<?xml version="1.0" encoding="utf-8"?>
<!-- Generator: Adobe Illustrator 23.0.1, SVG Export Plug-In . SVG Version: 6.00 Build 0)  -->
<svg version="1.1" id="Calque_1" xmlns="http://www.w3.org/2000/svg" xmlns:xlink="http://www.w3.org/1999/xlink" x="0px" y="0px"
	 viewBox="0 0 80 80" style="enable-background:new 0 0 80 80;" xml:space="preserve">
<path id="js_1_" d="M0.1,0C0,0,0,0.1,0,0.2c0,26.6,0,53.1,0,79.7c26.5,0.2,53.3,0,80,0.1c0-26.7,0-53.3,0-80C53.4,0,26.7,0,0.1,0z
	 M43.3,64.4c-0.7,5.8-4.5,9.3-11.1,9.3c-5.9,0-9.2-2.8-11.3-6.8c2-1.3,4.1-2.5,6.1-3.7c0.9,1.5,1.5,2.9,3.1,3.6
	c1.8,0.7,4.3,0.1,5-1.1c0.9-1.4,0.7-4.2,0.7-6.7c0-7.1,0-15.4,0-21.9c0-0.1,0-0.2,0.1-0.2c2.5,0,4.9,0,7.4,0c0,5.8,0,12.3,0,18.4
	C43.4,58.5,43.7,61.7,43.3,64.4z M73.6,64.1c-0.4,6.2-5.6,9.5-12.4,9.5c-6.7,0-11-3-13.7-7.6c1.9-1.3,4.1-2.3,6-3.6
	c1.7,2.2,3.8,4.8,8.2,4.5c2.5-0.2,5.2-1.9,4.2-5c-0.6-1.7-2.5-2.5-4.3-3.4c-5.8-2.6-12.4-4.5-11.8-13.4c0.4-5.3,4.8-8.7,10.5-9
	c5.5-0.2,9,2.2,11.1,5.9c-1.8,1.4-3.8,2.6-5.9,3.8c-0.7-2-3.8-4.2-6.6-2.8c-1.3,0.6-2.2,2.3-1.6,4.1c0.5,1.6,2.6,2.6,4.4,3.4
	C67.6,53.1,74.2,55.3,73.6,64.1z"/>
</svg>
