<?xml version="1.0" encoding="utf-8"?>
<!-- Generator: Adobe Illustrator 23.0.1, SVG Export Plug-In . SVG Version: 6.00 Build 0)  -->
<svg version="1.1" id="Calque_1" xmlns="http://www.w3.org/2000/svg" xmlns:xlink="http://www.w3.org/1999/xlink" x="0px" y="0px"
	 viewBox="0 0 24 24" style="enable-background:new 0 0 24 24;" xml:space="preserve">
<style type="text/css">
	.st0{fill:#FFFFFF;}
</style>
<path id="logo" class="st0" d="M22.22,0H1.77C0.79,0,0,0.77,0,1.73v20.54C0,23.22,0.79,24,1.77,24h20.45C23.2,24,24,23.22,24,22.27
	V1.73C24,0.77,23.2,0,22.22,0z M7.12,20.45H3.56V9h3.56V20.45z M5.34,7.43c-1.14,0-2.07-0.92-2.07-2.06c0-1.14,0.92-2.06,2.07-2.06
	c1.14,0,2.06,0.92,2.06,2.06C7.4,6.51,6.48,7.43,5.34,7.43z M20.45,20.45h-3.56v-5.57c0-1.33-0.02-3.04-1.85-3.04
	c-1.85,0-2.13,1.45-2.13,2.94v5.66H9.35V9h3.41v1.57h0.05c0.47-0.9,1.64-1.85,3.37-1.85c3.6,0,4.27,2.37,4.27,5.46V20.45z"/>
</svg>
