<?xml version="1.0" encoding="utf-8"?>
<!-- Generator: Adobe Illustrator 22.0.1, SVG Export Plug-In . SVG Version: 6.00 Build 0)  -->
<svg version="1.1" id="Calque_1" xmlns="http://www.w3.org/2000/svg" xmlns:xlink="http://www.w3.org/1999/xlink" x="0px" y="0px"
	 viewBox="0 0 350 151.2" style="enable-background:new 0 0 350 151.2;" xml:space="preserve">
<style type="text/css">
	.st0{filter:url(#Adobe_OpacityMaskFilter);}
	.st1{fill:#FFFFFF;}
	.st2{mask:url(#SVGID_1_);fill:url(#SVGID_2_);}
</style>
<defs>
	<filter id="Adobe_OpacityMaskFilter" filterUnits="userSpaceOnUse" x="0" y="0" width="350" height="151.2">
		<feColorMatrix  type="matrix" values="1 0 0 0 0  0 1 0 0 0  0 0 1 0 0  0 0 0 1 0"/>
	</filter>
</defs>
<mask maskUnits="userSpaceOnUse" x="0" y="0" width="350" height="151.2" id="SVGID_1_">
	<g class="st0">
		<g>
			<path class="st1" d="M97.8,5.7v84h13.9v24.8H97.8v29h-32v-29H12.4l-1.9-19.8L65.8,5.9V5.7H97.8z M65.8,89.6V47.2L65.2,47
				L39.1,89.6H65.8z"/>
			<path class="st1" d="M221.4,60.3v29c0,18.4-4.2,32.4-12.7,42c-8.5,9.6-20.3,14.4-35.3,14.4c-15,0-26.8-4.8-35.3-14.4
				c-8.5-9.6-12.7-23.6-12.7-42v-29c0-18.4,4.2-32.4,12.6-42c8.4-9.6,20.2-14.4,35.3-14.4c15.1,0,26.9,4.8,35.4,14.5
				C217.2,28,221.4,42,221.4,60.3z M185.6,35.5c-2.7-4.7-6.8-7-12.3-7c-5.5,0-9.5,2.3-12.1,7c-2.6,4.7-3.9,12.2-3.9,22.6v33.1
				c0,10.6,1.3,18.2,3.9,22.9c2.6,4.7,6.7,7,12.1,7c5.4,0,9.5-2.3,12.2-7c2.7-4.7,4-12.3,4-22.8l0.1-33.1
				C189.7,47.7,188.3,40.2,185.6,35.5z"/>
			<path class="st1" d="M322.3,5.7v84h13.9v24.8h-13.9v29h-32v-29h-53.4L235,94.7l55.3-88.8V5.7H322.3z M290.4,89.6V47.2l-0.6-0.2
				l-26.1,42.6H290.4z"/>
		</g>
	</g>
</mask>
<linearGradient id="SVGID_2_" gradientUnits="userSpaceOnUse" x1="134.809" y1="189.9519" x2="205.7404" y2="-16.4464">
	<stop  offset="0" style="stop-color:#941B1E"/>
	<stop  offset="1" style="stop-color:#E72E45"/>
</linearGradient>
<polygon class="st2" points="348.2,151.2 0,151.2 0,0 350,0 "/>
</svg>
