<?xml version="1.0" encoding="utf-8"?>
<!-- Generator: Adobe Illustrator 22.0.1, SVG Export Plug-In . SVG Version: 6.00 Build 0)  -->
<svg version="1.1" id="Calque_1" xmlns="http://www.w3.org/2000/svg" xmlns:xlink="http://www.w3.org/1999/xlink" x="0px" y="0px"
	 viewBox="0 0 348 73.8" style="enable-background:new 0 0 348 73.8;" xml:space="preserve">
<style type="text/css">
	.st0{fill-rule:evenodd;clip-rule:evenodd;}
</style>
<path id="logo_1_" class="st0" d="M344.7,62.4H339c-1.8,0-3.3-1.5-3.3-3.2V36.3c0-6.7-5.5-12.2-12.4-12.2l-9.5,0
	c-1.8,0-3.3,1.5-3.3,3.2v31.8c0,1.8-1.5,3.2-3.3,3.2h-5.7c-1.8,0-3.3-1.5-3.3-3.2v-44c0-1.8,1.5-3.2,3.3-3.2l21.7,0
	c13.4,0,24.4,10.7,24.6,23.9h0v23.3C348,60.9,346.5,62.4,344.7,62.4z M268,62.3c-14,0-25.4-11.3-25.4-25.2C242.6,23.3,254,12,268,12
	c14,0,25.4,11.3,25.4,25.2C293.4,51,282,62.3,268,62.3z M268,24c-7.3,0-13.3,5.9-13.3,13.1s6,13.1,13.3,13.1
	c7.3,0,13.3-5.9,13.3-13.1S275.3,24,268,24z M223,50.1c3.2,0.3,6.2-0.5,8.7-2.1c1.3-0.9,3-0.7,4.1,0.4l4.2,4.1
	c1.4,1.4,1.2,3.6-0.3,4.8c-4.3,3.2-9.5,5-15.3,5c-14.7,0-26.6-12.4-25.4-27.2c0.9-12.2,10.8-22.1,23.1-23.2
	c6.6-0.6,12.8,1.3,17.6,4.9c1.6,1.2,1.7,3.4,0.3,4.8l-4.2,4.1c-1.1,1.1-2.8,1.2-4.1,0.4c-2.1-1.4-4.6-2.2-7.3-2.2
	c-7.8,0-14,6.7-13.1,14.6C211.9,44.7,216.9,49.5,223,50.1z M190.7,62.5c-6,0-18.6-0.1-22.2-0.1c-14.1,0-25.5-11.3-25.5-25.2
	s11.4-25.2,25.5-25.2c3.6,0,16.2-0.1,22.2-0.1c1.8,0,3.3,1.4,3.3,3.2v44.2C194,61.1,192.5,62.5,190.7,62.5z M181.7,27.3
	c0-1.8-1.5-3.2-3.3-3.2h-9.9c-7.5,0-13.5,6.1-13.2,13.6c0.3,7.1,6.4,12.6,13.5,12.6h9.6c1.8,0,3.3-1.5,3.3-3.2V27.3z M135.4,62.4
	h-5.7c-1.8,0-3.3-1.5-3.3-3.2V36.3c0-6.7-5.5-12.2-12.4-12.2l-9.5,0c-1.8,0-3.3,1.5-3.3,3.2v31.8c0,1.8-1.5,3.2-3.3,3.2h-5.7
	c-1.8,0-3.3-1.5-3.3-3.2v-44c0-1.8,1.5-3.2,3.3-3.2l21.7,0c13.4,0,24.4,10.7,24.6,23.9h0v23.3C138.7,60.9,137.2,62.4,135.4,62.4z
	 M37.3,73.8C16.7,73.8,0,57.2,0,36.9C0,16.6,16.7,0,37.3,0c20.6,0,37.3,16.6,37.3,36.9C74.6,57.2,57.9,73.8,37.3,73.8z M38.2,24.5
	c3-1.4,10.6-5.8,14.4-7.5c1.5-2.1,3-3.2,6-4.4C46.8,13.1,40.4,21,38.2,24.5z M68.5,19.6c3.2,11.8-1.5,28.8-19.7,36.9
	c-0.2,0.1-1.4,0.7-2.8,0.5c-2.4-0.3-4.3-1.3-5.2-2.4c-0.5-0.6-0.6-0.8,0.2-1.6c7.7-7.6,9.6-19.3,5.7-28.6c4.1-2.2,6.2-3.4,9.8-5
	c1.5-0.7,4.7-1.5,6.2,4c1.8,8.5,0.1,18.8-7.4,27.5c0,0,0,0,0,0c-0.1,0.1-0.2,0.2-0.3,0.4c0.1-0.1,0.3-0.3,0.4-0.4
	c8.5-8.2,10.9-18.7,9.6-27.4c-0.9-7.4-4.1-6.8-7-5.7c-4.2,1.8-9.8,5.1-13.3,7.1c-2.1,1.2-5.8,3.2-8.4,4c-1.4,3.5-2.7,10.3-0.3,17.5
	c-5-5.6-6.1-13-4.9-18.8c-0.6-0.7-2.4-3.6-6.4-2.5c-0.3,4.1,0.1,10.1,2.4,16.2c-6.4-6-10.9-19.9-0.8-31.3c-2.2,4-0.9,10-0.9,10
	s1.4-8.3,5.5-13.7c1.5-0.9,3.1-1.6,4.8-2.1C27,6,20.3,12.5,18.1,20.8c-3.7,4.3-6,10-6,16.1c0,13.7,11.3,25.5,25.1,25.6
	c18,0,32.7-15.1,32.7-32.9C70,26.5,69.5,23,68.5,19.6z"/>
</svg>
