<svg xmlns="http://www.w3.org/2000/svg" viewBox="0 0 596.8 59.9">
    <path d="m582.5 7.2c0-1 0.2-1.9 0.6-2.8s0.9-1.6 1.5-2.3 1.4-1.2 2.3-1.5c0.9-0.4 1.8-0.6 2.8-0.6s1.9 0.2 2.8 0.6 1.6 0.9 2.3 1.5c0.7 0.7 1.2 1.4 1.5 2.3 0.4 0.9 0.6 1.8 0.6 2.8s-0.2 1.9-0.6 2.8-0.9 1.6-1.5 2.3c-0.7 0.7-1.4 1.2-2.3 1.5-0.9 0.4-1.8 0.6-2.8 0.6s-1.9-0.2-2.8-0.6-1.6-0.9-2.3-1.5c-0.7-0.7-1.2-1.4-1.5-2.3-0.4-0.9-0.6-1.8-0.6-2.8zm2.2 0c0 0.7 0.1 1.3 0.4 1.9s0.6 1.1 1 1.5 1 0.8 1.6 1c0.6 0.3 1.2 0.4 1.9 0.4s1.3-0.1 1.9-0.4 1.1-0.6 1.6-1c0.4-0.4 0.8-1 1.1-1.5 0.3-0.6 0.4-1.2 0.4-1.9s-0.1-1.3-0.4-1.9-0.6-1.1-1.1-1.6c-0.4-0.4-1-0.8-1.6-1.1s-1.2-0.4-1.9-0.4-1.3 0.1-1.9 0.4-1.1 0.6-1.6 1.1c-0.4 0.4-0.8 1-1 1.6s-0.4 1.2-0.4 1.9zm5.7 1.2h1.8v1.6c-0.2 0.2-0.6 0.3-1 0.5-0.4 0.1-1 0.2-1.6 0.2-1 0-1.8-0.3-2.3-0.8-0.6-0.5-0.9-1.4-0.9-2.6s0.3-2.1 0.9-2.6 1.3-0.8 2.3-0.8c0.7 0 1.2 0.1 1.6 0.2 0.4 0.2 0.7 0.3 1 0.5v1.5h-1.8v-0.4c0-0.4-0.3-0.6-0.8-0.6s-0.8 0.2-0.8 0.6v3c0 0.4 0.3 0.6 0.8 0.6s0.8-0.2 0.8-0.6v-0.3z"></path>
    <polygon points="380.8 13.9 386.1 13.9 386.1 46.8 380.8 46.8 380.8 58.8 415.9 58.8 415.9 46.8 410.6 46.8 410.6 13.9 415.9 13.9 415.9 1.9 380.8 1.9"></polygon>
    <polygon points="325.7 13.9 330.9 13.9 330.9 46.8 325.7 46.8 325.7 58.8 366.9 58.8 366.9 46.8 355.4 46.8 355.4 34.4 368.7 34.4 368.7 26 355.4 26 355.4 13.9 363.4 13.9 363.4 20.8 378.9 20.8 378.9 1.9 325.7 1.9"></polygon>
    <polygon points="191.6 13.9 196.9 13.9 196.9 46.8 191.6 46.8 191.6 58.8 251.6 58.8 251.6 35.3 232 35.3 232 46.8 221.4 46.8 221.4 33.8 229.1 33.8 229.1 25.5 221.4 25.5 221.4 13.9 232 13.9 232 24 251.6 24 251.6 1.9 191.6 1.9"></polygon>
    <path d="m318.8 41.2c0-5-2.8-7.9-8.4-8.6l-0.1-0.7c3-1 5.2-2.7 6.8-5.1 1.5-2.4 2.3-5.2 2.3-8.4 0-3-0.5-5.6-1.6-7.7s-2.6-3.8-4.6-5.1-4.4-2.2-7.3-2.8-6.1-0.9-9.7-0.9h-41.1v12h5.3v32.9h-5.3v12h35.5v-12h-5.8v-12c1.8 0 3.4 0.1 4.6 0.3 1.3 0.2 2.3 0.5 3.2 1 0.8 0.5 1.5 1.1 1.8 2 0.4 0.9 0.6 2.1 0.6 3.6v17.2h27.8v-12h-4.1v-5.7zm-24.1-20c0 1.7-0.4 2.9-1.3 3.6-0.8 0.7-2.1 1.1-3.8 1.1h-4.7v-12h4.7c1.7 0 3 0.4 3.8 1.1s1.3 1.9 1.3 3.6v2.6z"></path>
    <path d="m49.7 27.6c-2.3-1.5-4.9-2.8-7.9-3.8s-6.2-2-9.6-2.9c-1.8-0.5-3.2-0.9-4.1-1.3s-1.4-1-1.4-1.8c0-1 0.4-1.7 1.3-2.2 0.8-0.4 2.2-0.6 4.2-0.6 1.3 0 2.5 0.3 3.4 0.8s1.4 1.5 1.4 2.9h18.4v-13.2c-3-1.4-6.7-2.5-11.2-3.4s-9.3-1.3-14.4-1.3c-5.6 0-10.3 0.4-14.1 1.2s-6.9 2-9.2 3.5-4 3.4-5 5.6-1.5 4.6-1.5 7.4c0 2.9 0.5 5.3 1.6 7.4 1.1 2 2.6 3.8 4.8 5.3 2.1 1.5 4.8 2.9 8.1 4.1 3.2 1.2 7 2.6 11.3 3.9 2 0.7 3.4 1.3 4.1 1.8s1 1.1 1 1.8c0 1-0.4 1.7-1.2 2.2s-2.2 0.7-4.1 0.7c-2.2 0-3.7-0.4-4.4-1.1-0.8-0.6-1.2-1.7-1.2-3.2h-19.2v14.5c3 1.1 6.9 2 11.9 2.8s10.1 1.2 15.5 1.2c9.5 0 16.6-1.5 21.5-4.6s7.4-7.8 7.4-14.2c0-3.1-0.7-5.8-2-7.9-1.3-2.2-3.1-4-5.4-5.6z"></path>
    <polygon points="456.1 46.8 448.3 46.8 448.3 13.9 456.3 13.9 456.3 1.9 418.5 1.9 418.5 13.9 423.7 13.9 423.7 46.8 418.5 46.8 418.5 58.8 473.6 58.8 473.6 40.1 456.1 40.1"></polygon>
    <path d="m578 13.9v-12h-40.4l-9.6 25.1-10-25.1h-41.8v12h5.3v32.9h-5.3v12h30.6v-12h-5.3v-29l19.8 41.1h9.5l17.4-40.9v28.9h-5.2v12h35v-12h-5.3v-33h5.3zm-11 40.5h-13v-9h13v9zm0-13h-13v-9h13v9zm0-13h-13v-9h13v9zm0-13h-13v-9h13v9z"></path>
    <path d="m184.7 5.8c-2-1.4-4.4-2.4-7.3-3s-6.1-0.9-9.7-0.9h-39.3v12h5.3v32.9h-5.3v12h38.2v-12h-8.4v-10.5h9.5c3.6 0 6.8-0.3 9.7-0.9s5.3-1.6 7.3-3 3.5-3.1 4.6-5.3 1.6-4.8 1.6-8c0-3.1-0.5-5.8-1.6-8s-2.6-4-4.6-5.3zm-18.4 15.4c0 1.7-0.4 2.9-1.3 3.6s-2.1 1.1-3.8 1.1h-3v-12h3c1.7 0 3 0.4 3.8 1.1s1.3 1.9 1.3 3.6v2.6z"></path>
    <path d="m95.6 13.9h3.5v28.3c0 1.7-0.4 2.9-1.3 3.6-0.8 0.7-2.1 1.1-3.8 1.1s-3-0.4-3.8-1.1-1.3-1.9-1.3-3.6v-28.3h3.5v-12h-33.2v12h5.3v24.5c0 4 0.7 7.3 2.1 10s3.3 4.9 5.8 6.6 5.5 2.9 9 3.7 7.5 1.1 11.9 1.1c4.3 0 8.1-0.4 11.6-1.1 3.5-0.8 6.4-2 8.9-3.7s4.3-3.9 5.6-6.6 2-6 2-10v-24.5h5.3v-12h-31.1v12z"></path>
</svg>