<?xml version="1.0" encoding="utf-8"?>
<!-- Generator: Adobe Illustrator 22.0.1, SVG Export Plug-In . SVG Version: 6.00 Build 0)  -->
<svg version="1.1" id="Calque_1" xmlns="http://www.w3.org/2000/svg" xmlns:xlink="http://www.w3.org/1999/xlink" x="0px" y="0px"
	 viewBox="0 0 300 29.9" style="enable-background:new 0 0 300 29.9;" xml:space="preserve">
<style type="text/css">
	.st0{fill:#E1C345;}
	.st1{fill:#28484F;}
</style>
<g>
	<path class="st0" d="M28.5,15c0,2.1-0.4,4.1-1.1,5.9c-0.7,1.8-1.8,3.4-3.1,4.8C23,27,21.5,28,19.8,28.8c-1.7,0.8-3.6,1.1-5.5,1.1
		c-2,0-3.9-0.4-5.6-1.2C7,28,5.5,26.9,4.2,25.5c-1.3-1.4-2.3-3-3.1-4.8C0.4,19,0,17,0,15c0-2,0.4-4,1.1-5.8s1.8-3.4,3.1-4.8
		C5.6,3,7.1,1.9,8.8,1.2C10.5,0.4,12.3,0,14.3,0c2,0,3.8,0.4,5.5,1.2C21.5,2,23,3.1,24.3,4.4c1.3,1.4,2.3,3,3.1,4.8
		C28.1,11,28.5,12.9,28.5,15z M25.1,15c0-1.6-0.3-3.1-0.9-4.5c-0.6-1.4-1.3-2.7-2.3-3.8c-1-1.1-2.1-2-3.4-2.6
		c-1.3-0.6-2.7-0.9-4.2-0.9c-1.5,0-2.9,0.3-4.3,0.9C8.7,4.7,7.5,5.5,6.5,6.6c-1,1.1-1.8,2.4-2.3,3.8c-0.6,1.4-0.9,2.9-0.9,4.5
		c0,1.6,0.3,3.1,0.9,4.6c0.6,1.4,1.3,2.7,2.3,3.8c1,1.1,2.1,2,3.4,2.6c1.3,0.6,2.7,0.9,4.3,0.9c1.5,0,2.9-0.3,4.2-0.9
		c1.3-0.6,2.5-1.5,3.4-2.6c1-1.1,1.8-2.4,2.3-3.8C24.8,18.1,25.1,16.6,25.1,15z"/>
	<path class="st0" d="M35.5,29.5h-3.3V0.4h3.3V29.5z"/>
	<path class="st0" d="M41.8,6c-0.6,0-1.1-0.2-1.6-0.6c-0.4-0.4-0.6-0.9-0.6-1.6c0-0.6,0.2-1.1,0.6-1.6c0.4-0.4,0.9-0.6,1.6-0.6
		c0.6,0,1.1,0.2,1.6,0.6c0.4,0.4,0.6,0.9,0.6,1.6c0,0.6-0.2,1.1-0.6,1.6C43,5.8,42.5,6,41.8,6z M43.4,29.5h-3.1V8.7h3.1V29.5z"/>
	<path class="st0" d="M67.3,8.7l-7.7,20.8h-4.1L47.8,8.7h3.4l6.3,17.4l6.3-17.4H67.3z"/>
	<path class="st0" d="M73.2,6c-0.6,0-1.1-0.2-1.6-0.6C71.2,4.9,71,4.4,71,3.8c0-0.6,0.2-1.1,0.6-1.6c0.4-0.4,0.9-0.6,1.6-0.6
		c0.6,0,1.1,0.2,1.6,0.6c0.4,0.4,0.6,0.9,0.6,1.6c0,0.6-0.2,1.1-0.6,1.6C74.4,5.8,73.8,6,73.2,6z M74.8,29.5h-3.1V8.7h3.1V29.5z"/>
	<path class="st0" d="M98,20.1H81.8c0.1,1.8,0.5,3.2,1.5,4.3c0.9,1.1,2.1,1.7,3.5,2.1c1.4,0.3,2.9,0.3,4.5-0.1
		c1.6-0.4,3.1-1.1,4.6-2.2l1.7,2.6c-1.4,1.1-2.8,1.8-4.2,2.3c-1.5,0.5-2.9,0.8-4.4,0.8C85.5,30,82.8,29,81,27
		c-1.8-2-2.7-4.8-2.7-8.4c0-3.1,0.9-5.5,2.6-7.4c1.7-1.8,4.2-2.7,7.5-2.7c2.2,0,4,0.4,5.5,1.3c1.5,0.9,2.6,2.2,3.4,3.9
		c0.4,0.9,0.6,1.8,0.7,2.9C98.1,17.7,98.1,18.9,98,20.1z M88.6,11.6c-1.9,0-3.5,0.5-4.8,1.5c-1.3,1-2,2.4-2,4.4H95
		c0-1.8-0.6-3.3-1.7-4.3C92.1,12.1,90.6,11.6,88.6,11.6z"/>
	<path class="st0" d="M102.1,29.5V9h3.3v1.9c0.9-1,2-1.6,3.4-1.9c1.3-0.2,3,0,5.1,0.5l-1.5,2.9c-1.2-0.4-2.4-0.5-3.5-0.2
		c-1.1,0.3-1.9,0.8-2.6,1.5c-0.6,0.7-0.9,1.5-0.9,2.3v13.4H102.1z"/>
	<path class="st1" d="M133,29.5V0.4H144c1.5,0,2.9,0.4,4,1.1c1.1,0.8,2,1.8,2.6,3c0.6,1.2,0.9,2.6,0.9,4.1c0,0.9-0.1,1.8-0.4,2.7
		c-0.3,0.9-0.7,1.8-1.2,2.6c0.9,0.8,1.7,1.7,2.2,2.9c0.5,1.2,0.8,2.4,0.8,3.7c0,1.1-0.2,2.1-0.6,3.2c-0.4,1.1-1,2-1.7,2.8
		c-0.7,0.8-1.5,1.5-2.5,2c-0.9,0.5-1.9,0.8-3,0.8H133z M138.1,12.5h5.8c0.5,0,0.9-0.2,1.3-0.6c0.4-0.4,0.7-0.9,0.9-1.5
		c0.2-0.6,0.4-1.2,0.4-1.8c0-0.8-0.2-1.5-0.7-2.1c-0.4-0.6-1.1-0.9-1.8-0.9h-5.9V12.5z M138.1,24.3h7.1c0.4,0,0.9-0.2,1.2-0.6
		c0.4-0.4,0.7-0.8,1-1.4c0.2-0.6,0.4-1.1,0.4-1.7c0-0.9-0.2-1.6-0.7-2.3c-0.5-0.6-1-0.9-1.8-0.9h-7.3V24.3z"/>
	<path class="st1" d="M172.3,29.5h-15.7V0.4h15.7v4.7h-10.7v8.1h8.6v4.2h-8.6v7.5h10.7V29.5z"/>
	<path class="st1" d="M196.2,29.5h-5.9l-6.6-11.3h-2.5v11.3h-5l0-29.1H187c1.5,0,2.8,0.4,3.9,1.2c1.1,0.8,2,1.9,2.7,3.3
		c0.7,1.3,1,2.8,1,4.3c0,1.2-0.2,2.3-0.7,3.4c-0.5,1.1-1.1,2.1-1.9,3c-0.8,0.9-1.7,1.6-2.8,2L196.2,29.5z M189.5,9.3
		c0-0.6-0.1-1.1-0.4-1.7c-0.3-0.6-0.6-1.1-1-1.5c-0.4-0.4-0.9-0.6-1.5-0.6h-5.7v7.5h5.7c0.6,0,1-0.2,1.5-0.5c0.4-0.4,0.7-0.8,1-1.4
		C189.4,10.4,189.5,9.8,189.5,9.3z"/>
	<path class="st1" d="M221.6,29.5h-6.4L204.9,6.9v22.6h-5v-29h6.9l9.8,22.1V0.4h5V29.5z"/>
	<path class="st1" d="M225.4,29.5l9-29h6.3l9,29h-5.3l-2.1-7h-9.5l-2.1,7H225.4z M237.5,6.7l-3.4,11.5h6.8L237.5,6.7z"/>
	<path class="st1" d="M273.5,29.5h-5.9l-6.7-11.3h-2.5v11.3h-5l0-29.1h10.9c1.5,0,2.8,0.4,3.9,1.2c1.1,0.8,2,1.9,2.7,3.3
		c0.7,1.3,1,2.8,1,4.3c0,1.2-0.2,2.3-0.7,3.4c-0.5,1.1-1.1,2.1-1.9,3c-0.8,0.9-1.7,1.6-2.8,2L273.5,29.5z M266.8,9.3
		c0-0.6-0.1-1.1-0.4-1.7c-0.2-0.6-0.6-1.1-1-1.5c-0.4-0.4-0.9-0.6-1.5-0.6h-5.7v7.5h5.7c0.6,0,1-0.2,1.5-0.5c0.4-0.4,0.7-0.8,1-1.4
		C266.7,10.4,266.8,9.8,266.8,9.3z"/>
	<path class="st1" d="M300,14.9c0,2-0.4,3.9-1.1,5.6c-0.7,1.8-1.7,3.3-3,4.7c-1.3,1.4-2.8,2.4-4.5,3.2c-1.7,0.8-3.5,1.1-5.5,1.1
		h-8.8V0.3h8.8c2,0,3.8,0.4,5.5,1.2c1.7,0.8,3.2,1.8,4.4,3.2c1.3,1.4,2.2,2.9,3,4.7C299.6,11.1,300,12.9,300,14.9z M294.8,14.9
		c0-1.8-0.4-3.4-1.2-4.8c-0.8-1.4-1.8-2.6-3.2-3.4c-1.3-0.8-2.8-1.2-4.5-1.2h-3.8v19h3.8c1.7,0,3.2-0.4,4.5-1.3
		c1.3-0.9,2.4-2,3.2-3.4C294.5,18.2,294.8,16.6,294.8,14.9z"/>
</g>
</svg>
