<?xml version="1.0" encoding="utf-8"?>
<!-- Generator: Adobe Illustrator 22.0.1, SVG Export Plug-In . SVG Version: 6.00 Build 0)  -->
<svg version="1.1" id="Calque_1" xmlns="http://www.w3.org/2000/svg" xmlns:xlink="http://www.w3.org/1999/xlink" x="0px" y="0px"
	 viewBox="0 0 350 28.9" style="enable-background:new 0 0 350 28.9;" xml:space="preserve">
<g>
	<polygon points="335.1,25.6 335.1,15.6 348.4,15.6 348.4,13.2 335.1,13.2 335.1,3.3 350,3.3 350,0.9 332.5,0.9 332.5,28.1 
		350,28.1 350,25.6 	"/>
	<path d="M312.1,2.6c-1.9-1.6-4.2-2.4-6.9-2.4c-6.4,0-10.4,3.6-10.4,9.9v8.7c0,6.2,3.8,9.9,10.4,9.9c2.8,0,5.2-0.9,6.9-2.4
		c1.9-1.6,2.9-3.8,2.9-6.8v-0.7h-2.8v0.7c0,2.1-0.7,3.8-2.1,4.9c-1.4,1.2-3.1,1.7-5,1.7c-4.9,0-7.6-2.6-7.6-7.1V10
		c0-4.5,2.8-7.1,7.6-7.1c1.9,0,3.6,0.5,5,1.7c1.4,1,2.1,2.8,2.1,4.9v0.7h2.8V9.5C315,6.6,314,4.3,312.1,2.6"/>
	<polygon points="274.5,0.9 274.5,21.5 256.3,0 256.3,28.1 258.9,28.1 258.9,7.5 277.2,28.9 277.2,0.9 	"/>
	<polygon points="223.3,15.6 237.2,15.6 237.2,13.2 223.3,13.2 223.3,3.3 238.6,3.3 238.6,0.9 220.6,0.9 220.6,28.1 238.8,28.1 
		238.8,25.6 223.3,25.6 	"/>
	<path d="M200.1,2.6c-1.9-1.6-4.2-2.4-6.9-2.4c-6.4,0-10.4,3.6-10.4,9.9v8.7c0,6.2,3.8,9.9,10.4,9.9c2.8,0,5.2-0.9,6.9-2.4
		c1.9-1.6,2.9-3.8,2.9-6.8v-0.7h-2.8v0.7c0,2.1-0.7,3.8-2.1,4.9c-1.4,1.2-3.1,1.7-5,1.7c-4.9,0-7.6-2.6-7.6-7.1V10
		c0-4.5,2.8-7.1,7.6-7.1c1.9,0,3.6,0.5,5,1.7c1.4,1,2.1,2.8,2.1,4.9v0.7h2.8V9.5C203.1,6.6,202.2,4.3,200.1,2.6"/>
	<path d="M164.1,16.6c-1.4-1-3.3-2.1-6.1-3.1l-2.9-1c-1.9-0.7-3.3-1.4-4.2-2.1c-0.7-0.7-1.2-1.6-1.2-2.8c0-2.8,2.4-4.5,6.4-4.5
		c2.1,0,3.6,0.5,5,1.6c1.4,1,2.1,2.8,2.1,5v0.2h2.8V9.5c0-5.9-3.5-9.2-9.7-9.2c-5.5,0-9,2.8-9,7.3c0,1.9,0.5,3.3,1.7,4.3
		c1.2,1,2.9,2.1,5.5,2.9l2.9,1c4.5,1.7,5.9,2.9,5.9,5.4c0,2.9-2.4,4.9-6.6,4.9c-2.9,0-5.2-0.9-6.6-2.9c-0.9-1-1.2-2.4-1.2-4v-0.2
		h-2.8v0.2c0,6.9,5.5,9.5,10.4,9.5c5.9,0,9.4-2.8,9.4-7.5C166.2,19.2,165.5,17.7,164.1,16.6"/>
	<polygon points="115.6,15.6 128.9,15.6 128.9,13.2 115.6,13.2 115.6,3.3 130.3,3.3 130.3,0.9 112.8,0.9 112.8,28.1 130.5,28.1 
		130.5,25.6 115.6,25.6 	"/>
	<path d="M95.3,9c0-5-2.9-8.1-7.8-8.1H76.2v27.2H79V17.2h7.8l6.4,10.9h2.6h0.7l-6.6-11.3C93.6,15.8,95.3,13.2,95.3,9 M92.5,9
		c0,3.6-1.9,5.7-5.2,5.7h-8.1V3.3h8.1C90.8,3.3,92.5,5.4,92.5,9"/>
	<polygon points="44,15.6 57.4,15.6 57.4,13.2 44,13.2 44,3.3 58.9,3.3 58.9,0.9 41.4,0.9 41.4,28.1 58.9,28.1 58.9,25.6 44,25.6 	
		"/>
	<polygon points="22.5,0.9 12.6,22.2 2.9,0.9 0,0.9 12.6,28.9 25.5,0.9 	"/>
</g>
</svg>
