<?xml version="1.0" encoding="utf-8"?><svg xmlns="http://www.w3.org/2000/svg" xmlns:xlink="http://www.w3.org/1999/xlink"><symbol id="css" viewBox="0 0 70 98.77" xml:space="preserve" xmlns="http://www.w3.org/2000/svg"><style>.st0{fill:#efefef}</style><g id="acss_1_"><path d="M54.81 3.7h-5.8l6.05 6.54v3.09H42.59v-3.7h6.05l-6.05-6.54V0h12.22v3.7zm-14.69 0h-5.8l6.05 6.54v3.09H27.9v-3.7h6.05L27.9 3.09V0h12.22v3.7zm-14.44.13h-6.3v5.68h6.3v3.83H14.94V0h10.74v3.83zM0 19.38l6.42 71.36 28.52 8.02 28.64-7.9L70 19.51H0v-.13zm52.96 58.64l-17.9 4.94-18.02-4.94L15.8 64.2h8.77l.62 6.91 9.75 2.59V59.75h-9.75l-.74-8.77h10.37v-9.01H13.83l-.74-8.64h43.96l-4.09 44.69z"/><path class="st0" d="M47.29 41.99H34.82v9h11.6zM44.81 71.11l.99-11.36H34.94V73.7z"/><path class="st0" d="M34.94 25.06v8.27H56.9L52.96 77.9l-18.02 5.03v9.66l23.21-6.42 5.43-61.11z"/></g></symbol><symbol id="email" viewBox="0 0 27 18.4" xml:space="preserve" xmlns="http://www.w3.org/2000/svg"><style>.st0{fill:#fff}</style><path id="bmail" class="st0" d="M26.1 0H.9l12.5 9.1L26.1 0zM13.4 10.3L0 .6v17.8h27V.6l-13.6 9.7z"/></symbol><symbol id="github" viewBox="0 0 26 25.4" xml:space="preserve" xmlns="http://www.w3.org/2000/svg"><style>.st0{fill:#fff}</style><path id="cgithub" class="st0" d="M13.04 0C5.83 0 0 5.83 0 13.04c0 5.74 3.74 10.61 8.96 12.35.7.09.87-.26.87-.61v-2.26c-3.65.78-4.43-1.74-4.43-1.74-.61-1.48-1.48-1.91-1.48-1.91-1.22-.78.08-.78.08-.78 1.3.09 2 1.3 2 1.3 1.13 2 3.04 1.39 3.83 1.04.09-.87.43-1.39.87-1.74-2.87-.35-5.91-1.48-5.91-6.43 0-1.39.52-2.61 1.3-3.48-.18-.35-.61-1.65.08-3.48 0 0 1.13-.35 3.57 1.3 1.04-.26 2.17-.43 3.3-.43s2.26.17 3.3.43c2.52-1.65 3.57-1.3 3.57-1.3.7 1.83.26 3.13.09 3.48.87.87 1.3 2.09 1.3 3.48 0 5.04-3.04 6.09-5.91 6.43.43.43.87 1.22.87 2.43v3.57c0 .35.26.78.87.61C22.35 23.56 26 18.7 26 12.96 26.09 5.83 20.26 0 13.04 0z"/></symbol><symbol viewBox="0 0 49.6 109.69" id="gulp" xmlns="http://www.w3.org/2000/svg"><path d="M24.57 86.55c-6.42 0-11.41-.99-13.77-1.54-1.65-.38-2.96-.82-3.95-1.21l3.18 5.43 1.26 17c0 1.92 6.03 3.46 13.55 3.46 7.46 0 13.55-1.54 13.55-3.46l.99-17.17 3.02-5.27c-.99.44-2.3.82-4 1.26-2.42.56-7.36 1.5-13.83 1.5zM42.45 31.2c-4.72.66-10.97 1.04-17.61 1.04s-12.88-.38-17.6-1.04c-2.36-.33-4.17-.71-5.48-1.15-.33-.11-.82-.27-1.37-.55L3.3 56.38c.11-.44.27-.93.44-1.37.33-.93.71-1.86 1.21-2.8.44-.88.93-1.76 1.48-2.58.55-.82 1.1-1.54 1.7-2.19.6-.66 1.21-1.26 1.86-1.76.6-.49 1.26-.88 1.92-1.15.66-.27 1.26-.38 1.92-.38.71 0 1.43.22 2.08.6.66.38 1.32 1.04 1.92 1.92.11.22.22.38.27.6.05.22.05.38.05.55 0 .44-.11.77-.33.99-.22.22-.44.38-.71.38-.27 0-.49-.11-.71-.38-.22-.27-.44-.66-.71-1.15-.27-.44-.55-.77-.82-.99-.33-.22-.66-.33-.99-.33-.55 0-1.15.22-1.81.71-.66.44-1.26 1.1-1.86 1.81-.61.77-1.21 1.65-1.82 2.64-.55.99-1.1 1.97-1.54 3.02-.44 1.04-.77 2.03-1.04 3.02-.27.99-.38 1.86-.38 2.69 0 .27 0 .55.05.82.05.27.11.55.22.77.11.22.22.44.38.55.16.16.38.22.66.22s.6-.11.99-.27c.38-.22.77-.44 1.15-.77.38-.33.82-.66 1.21-1.1.38-.38.77-.82 1.15-1.21.33-.44.66-.82.93-1.21.27-.38.49-.71.6-.99l1.1-3.35c.11-.38.33-.6.55-.77.22-.16.44-.22.66-.22.11 0 .22 0 .33.05.11.05.22.11.27.16.11.05.16.16.22.33.05.11.05.27.05.44 0 .44-.05.88-.11 1.26-.05.38-.16.77-.33 1.15-.11.38-.27.77-.44 1.15-.16.38-.27.77-.44 1.21-.05.05-.11.22-.16.44-.11.27-.16.55-.33.93-.11.38-.27.82-.38 1.26-.16.49-.27.93-.44 1.43-.16.49-.27.99-.44 1.43-.11.49-.27.88-.38 1.26-.11.38-.22.71-.27.93-.05.27-.11.38-.11.44-.05.16-.11.33-.16.49-.05.16-.16.38-.33.55-.16.16-.27.33-.38.38-.16.11-.27.16-.44.16-.27 0-.44-.11-.55-.27-.11-.16-.16-.49-.16-.93v-.44c0-.16.05-.44.16-.88s.22-.88.38-1.43c.16-.55.33-1.04.49-1.65.16-.55.33-1.04.49-1.54-.44.49-.88.93-1.37 1.43-.49.49-.99.88-1.54 1.26-.49.38-1.04.66-1.59.93-.55.22-1.04.33-1.54.33-.55 0-1.04-.11-1.43-.38-.04-.03-.15-.08-.2-.14L5.59 81.5c.44 1.04 8.39 3.67 18.92 3.67S43 82.54 43.44 81.5l2.36-20.29c-.22.16-.38.33-.55.49-.66.6-1.32 1.15-1.92 1.59-.6.44-1.15.82-1.76 1.04-.55.22-1.15.38-1.81.38-.6 0-1.1-.11-1.43-.38-.33-.27-.49-.6-.49-1.1v-.11-.11c.05-.27.16-.6.38-.99.22-.38.49-.77.77-1.15.33-.38.6-.82.99-1.21.33-.38.66-.77.93-1.15.27-.38.55-.71.71-.99.22-.33.27-.55.27-.71 0-.11-.05-.22-.11-.27-.05-.05-.22-.11-.38-.11-.33 0-.66.11-.99.27-.33.16-.66.38-.99.66-.33.27-.66.6-.99.93-.33.38-.6.71-.88 1.1-.27.38-.55.77-.77 1.15-.22.38-.44.77-.6 1.1-.05.11-.11.27-.22.44-.11.16-.16.38-.27.66-.11.22-.22.49-.33.71-.11.27-.22.49-.33.71-.11.22-.16.44-.27.6-.05.16-.11.27-.16.38-.05.11-.11.22-.22.49-.11.22-.22.49-.33.82-.11.33-.22.66-.38.99-.11.33-.27.66-.38.99-.11.33-.22.6-.33.82-.11.22-.16.38-.16.49-.05.22-.16.49-.27.71-.11.22-.22.38-.38.55-.16.16-.27.27-.49.38-.16.11-.38.16-.6.16-.27 0-.55-.05-.71-.22s-.27-.38-.27-.77c0-.16 0-.38.05-.6.05-.22.11-.38.16-.6.05-.22.16-.38.22-.55.05-.16.16-.38.22-.55.44-.93.88-1.86 1.32-2.85.44-.93.88-1.86 1.26-2.8.11-.22.16-.38.27-.6l-.05.05c-.49.49-1.04.93-1.54 1.32-.49.38-1.04.71-1.54.93-.49.22-.99.33-1.48.33-.33 0-.6-.05-.82-.16-.22-.11-.38-.22-.55-.44-.11-.16-.22-.38-.27-.66 0-.11-.05-.16-.05-.27-.16.11-.27.22-.44.33-.49.33-.99.6-1.48.82-.49.22-.93.33-1.32.33-.38 0-.71-.11-.93-.38-.22-.27-.38-.71-.38-1.32 0-.44.05-.93.16-1.54-.22.38-.49.77-.77 1.1-.33.38-.66.71-1.04 1.04-.38.33-.82.55-1.32.77-.49.22-1.04.27-1.59.27-.27 0-.49-.05-.77-.11-.22-.05-.44-.16-.66-.33a1.95 1.95 0 0 1-.44-.66c-.11-.27-.16-.6-.16-.99 0 0 0-.16.05-.44.05-.27.11-.71.33-1.32.16-.6.44-1.37.77-2.36.38-.93.88-2.08 1.54-3.46.16-.38.38-.6.6-.77.22-.16.44-.22.71-.22.11 0 .22 0 .33.05.11.05.22.11.33.16.11.05.16.16.27.27.05.11.11.22.11.38 0 .11 0 .16-.05.27-.05.16-.11.38-.27.6-.11.27-.27.55-.44.88-.16.33-.38.71-.55 1.1-.22.38-.38.77-.55 1.21-.16.44-.33.82-.44 1.26-.11.44-.16.82-.22 1.26 0 .16.05.33.11.49.05.16.22.22.38.22.49 0 .99-.16 1.48-.49.49-.33.88-.77 1.32-1.26.38-.49.77-1.04 1.1-1.65.33-.6.6-1.1.82-1.59.16-.33.27-.66.38-1.04.11-.38.22-.71.38-1.04.11-.33.27-.55.49-.77.16-.22.38-.33.66-.33s.49.11.66.33c.16.22.27.49.27.77 0 .16-.05.38-.16.71-.11.27-.22.66-.38 1.04s-.33.77-.55 1.21c-.16.44-.38.88-.55 1.32-.16.44-.27.88-.38 1.32-.11.44-.16.82-.16 1.21 0 .33.16.49.55.49.27 0 .55-.11.93-.27.38-.16.77-.38 1.15-.71.11-.05.22-.16.33-.22.11-.44.22-.88.38-1.26.27-.71.55-1.48.82-2.19.27-.71.55-1.37.77-1.97l3.62-9.16c.16-.38.33-.6.6-.77.22-.16.49-.22.71-.22.27 0 .49.05.66.22.22.16.33.44.33.77 0 .16-.05.33-.11.55-.05.16-.16.38-.27.6-.22.44-.44.99-.71 1.65-.27.66-.55 1.32-.88 2.08-.33.77-.66 1.54-.99 2.36-.33.82-.66 1.59-.99 2.41-.33.77-.6 1.54-.88 2.19-.27.71-.49 1.32-.71 1.81-.11.22-.16.49-.27.77-.11.27-.11.55-.11.77 0 .16 0 .27.05.33.05.11.16.11.27.11.16 0 .38-.05.6-.16.27-.11.55-.27.82-.49.27-.22.6-.44.93-.66.33-.27.6-.49.93-.77.33-.27.6-.55.88-.82s.55-.49.77-.77c.05-.05.11-.11.16-.11.11-.38.27-.82.38-1.21.05-.16.16-.38.27-.71.11-.33.22-.6.38-.93.16-.33.33-.55.49-.77.16-.22.38-.33.6-.33.33 0 .55.05.71.22.16.16.22.38.22.66v.27c0 .11-.05.27-.05.38 0 .11-.05.27-.05.38-.05.11-.05.22-.05.27.27-.33.6-.66.93-.93.33-.33.71-.6 1.04-.88.38-.27.77-.44 1.15-.6a2.936 2.936 0 0 1 1.92-.11c.27.05.49.16.71.33.22.16.38.33.49.55.11.22.16.49.16.77 0 .38-.11.82-.27 1.26-.22.44-.44.88-.71 1.32-.27.44-.6.88-.93 1.32-.33.44-.66.82-.99 1.15-.27.33-.55.66-.77.88-.22.22-.33.38-.33.49s.05.22.11.27c.05.05.16.11.38.11.11 0 .33-.05.6-.22.27-.16.66-.44 1.1-.77.49-.38 1.1-.88 1.81-1.48.49-.44 1.1-.93 1.76-1.54l3.18-29.29c-.49.27-1.04.44-1.37.55-1.12.83-2.93 1.21-5.29 1.48zm-7.4-6.6l2.14-8.75 12.34-13c.27-.27-.27-1.21-1.15-1.97C47.5.1 46.57-.17 46.24.1L33.13 13.93l-2.7 10.46c-1.81-.06-3.69-.09-5.63-.09C11.13 24.29 0 25.83 0 27.69s11.08 3.4 24.79 3.4 24.79-1.54 24.79-3.4c0-1.36-5.95-2.55-14.53-3.09zm-3.29 4.9c-1.65 0-2.96-.38-2.96-.82 0-.19.25-.36.65-.5l-.04.17v.05c0 .27 1.04.49 2.36.49 1.32 0 2.36-.22 2.36-.49l.04-.18c.35.13.56.28.56.46-.01.44-1.33.82-2.97.82z"/></symbol><symbol id="html5" viewBox="0 0 70 98.77" xml:space="preserve" xmlns="http://www.w3.org/2000/svg"><style>.st0{fill:#f0efef}</style><g id="ehtml"><path d="M.01 19.51l6.41 71.23 28.52 8.02 28.64-7.9L70 19.51H.01zM56.67 36.3l-.37 4.44-.25 1.98H22.59l.74 9.01H55.3l-.25 2.35-1.98 23.09-.12 1.48-17.9 4.94-17.9-4.94-1.23-13.83h8.52l.62 6.91 9.75 2.59 9.75-2.59.99-11.36H15.43l-2.22-24.2-.25-2.35h43.96l-.25 2.48zM0 19.51h.01L0 19.38v.13zM63.58 8.89h-6.3V0h-4.44v13.33h10.74V8.89zm-52.59 0h4.07v4.44h4.44V0h-4.44v4.44h-4.07V0H6.54v13.33h4.44V8.89zM40 6.79l3.09 4.69h.12l2.96-4.82v6.67h4.44V0h-4.57L43.2 4.69 40.37 0h-4.69v13.46H40V6.79zm-14.69 6.54h4.44V4.44h3.95V0H21.36v4.44h3.95v8.89z"/><path class="st0" d="M34.94 25.19v8.89h21.98l-.25 2.22-.37 4.44-.25 1.98H34.94v9.01h20.37l-.25 2.35-1.98 23.09-.12 1.48-18.02 4.94v9.14l23.21-6.42 5.43-61.11H34.94zm10.74 35.3H34.94v13.95l9.75-2.59.99-11.36z"/></g></symbol><symbol viewBox="0 0 82.1 80" id="illustrator" xmlns="http://www.w3.org/2000/svg"><path d="M0 0v80h82.1V0H0zm78.6 76.5H3.4V3.4h75.2v73.1zM59.5 31.45h-5.4c-.3 0-.4.1-.4.4v26.9c0 .3.2.5.5.5h5.3c.3 0 .4-.1.4-.4v-27c0-.3-.1-.4-.4-.4zm-2.7-3.8c2.1 0 3.6-1.2 3.6-3.5 0-2.1-1.4-3.5-3.5-3.5-2 0-3.5 1.3-3.5 3.5s1.4 3.4 3.4 3.5zm-36.5 31.6h5c.3 0 .4 0 .5-.3l2.7-10.3v.1h11l2.8 10.3c0 .2.2.3.5.3h5.7c.3 0 .4-.2.3-.5l-10.9-36.9c-.1-.2-.2-.3-.4-.3h-7.2c-.2 0-.3.1-.3.3 0 1.7-.1 2.2-.3 2.8l-9.7 34c-.1.4 0 .5.3.5zm13.5-32.2h.1c.9 4 3.2 12.3 4.1 16.1h-8.2c1.5-5.3 3.3-12.1 4-16.1z"/></symbol><symbol viewBox="0 0 80 80" id="js" xmlns="http://www.w3.org/2000/svg"><path d="M.1 0C0 0 0 .1 0 .2v79.7c26.5.2 53.3 0 80 .1V0H.1zm43.2 64.4c-.7 5.8-4.5 9.3-11.1 9.3-5.9 0-9.2-2.8-11.3-6.8 2-1.3 4.1-2.5 6.1-3.7.9 1.5 1.5 2.9 3.1 3.6 1.8.7 4.3.1 5-1.1.9-1.4.7-4.2.7-6.7V37.1c0-.1 0-.2.1-.2h7.4v18.4c.1 3.2.4 6.4 0 9.1zm30.3-.3c-.4 6.2-5.6 9.5-12.4 9.5-6.7 0-11-3-13.7-7.6 1.9-1.3 4.1-2.3 6-3.6 1.7 2.2 3.8 4.8 8.2 4.5 2.5-.2 5.2-1.9 4.2-5-.6-1.7-2.5-2.5-4.3-3.4-5.8-2.6-12.4-4.5-11.8-13.4.4-5.3 4.8-8.7 10.5-9 5.5-.2 9 2.2 11.1 5.9-1.8 1.4-3.8 2.6-5.9 3.8-.7-2-3.8-4.2-6.6-2.8-1.3.6-2.2 2.3-1.6 4.1.5 1.6 2.6 2.6 4.4 3.4 5.9 2.6 12.5 4.8 11.9 13.6z"/></symbol><symbol id="linkedin" viewBox="0 0 24 24" xml:space="preserve" xmlns="http://www.w3.org/2000/svg"><style>.st0{fill:#fff}</style><path id="hlogo" class="st0" d="M22.22 0H1.77C.79 0 0 .77 0 1.73v20.54C0 23.22.79 24 1.77 24h20.45c.98 0 1.78-.78 1.78-1.73V1.73C24 .77 23.2 0 22.22 0zM7.12 20.45H3.56V9h3.56v11.45zM5.34 7.43a2.06 2.06 0 1 1 0-4.12c1.14 0 2.06.92 2.06 2.06 0 1.14-.92 2.06-2.06 2.06zm15.11 13.02h-3.56v-5.57c0-1.33-.02-3.04-1.85-3.04-1.85 0-2.13 1.45-2.13 2.94v5.66H9.35V9h3.41v1.57h.05c.47-.9 1.64-1.85 3.37-1.85 3.6 0 4.27 2.37 4.27 5.46v6.27z"/></symbol><symbol viewBox="0 0 20 33" id="phone" xmlns="http://www.w3.org/2000/svg"><path d="M0 0v33h20V0H0zm6.9 1.59h6.2v1.19H6.9V1.59zm3.15 30.82c-.92 0-1.67-.75-1.67-1.68s.75-1.68 1.67-1.68 1.67.75 1.67 1.68-.75 1.68-1.67 1.68zm7.97-3.95H1.98V3.57h16.03v24.89h.01z"/></symbol><symbol viewBox="0 0 82.1 80" id="photoshop" xmlns="http://www.w3.org/2000/svg"><path d="M.2 0C0 0 0 .2 0 .3V80h82.1V0H.2zm78.5 76.5H3.5V3.8c0-.1 0-.3.1-.4h75.1v73.1zM53 47.6c1.8.9 4.3 2 4.1 4.3-.1.9-.9 1.6-1.7 1.9-3.2 1.2-7.1-.8-9.3-1.8 0 2.1-.1 3.7-.1 5.9 7.1 3.4 17.4 1.7 17.2-6.9-.1-4.9-3.5-6.9-6.8-8.6-1.7-.9-4.8-1.7-4.4-4.3.1-.9.8-1.5 1.4-1.8 2.8-1.3 6.5.7 8.5 1.1v-5.6c-7.4-3-16-.3-16 7.1 0 5 3.7 7 7.1 8.7zM26.1 58.9V45.4c5.9.2 10.4-.6 13.5-3.6 4.9-4.6 3.8-15.5-1.8-18.9-3.9-2.4-17.9-1.4-17.9-1.4l.1 37.4h6.1zM26 27c0-.2 0-.3.1-.4 4.2-.2 8.2.2 9.7 3.1 1.3 2.6.7 6.9-1.2 8.5-1.8 1.5-5.1 1.9-8.6 1.6V27z"/></symbol><symbol viewBox="0 0 106.89 79.94" id="sass" xmlns="http://www.w3.org/2000/svg"><path d="M91.89 46.11c-3.7 0-6.9.9-9.7 2.2-1-2-2-3.7-2.2-5-.2-1.5-.4-2.4-.2-4.2.2-1.8 1.3-4.3 1.3-4.5s-.2-1.1-2.4-1.1c-2.1 0-4 .4-4.2 1s-.6 1.9-.9 3.2c-.4 2-4.3 8.9-6.5 12.5-.7-1.4-1.3-2.7-1.5-3.7-.2-1.5-.4-2.4-.2-4.2s1.3-4.3 1.3-4.5-.2-1.1-2.4-1.1c-2.1 0-4 .4-4.2 1s-.4 1.9-.9 3.2c-.4 1.3-5.7 12.9-7 15.9-.7 1.5-1.3 2.8-1.8 3.6 0 0 0 .1-.1.2-.4.7-.6 1.1-.6 1.1-.3.5-.6 1-.7 1-.1 0-.3-1.4.1-3.3.8-4.1 2.6-10.3 2.6-10.5 0-.1.4-1.2-1.2-1.8-1.5-.6-2.1.4-2.2.4-.1 0-.2.3-.2.3s1.8-7.1-3.1-7.1c-3.1 0-7.3 3.4-9.4 6.4-1.3.7-4.2 2.2-7.1 3.9-1.2.6-2.3 1.3-3.5 1.9-.1-.1-.2-.2-.2-.3-6-6.3-17-10.8-16.5-19.4-.1-3.2.9-11.4 20.9-21.3 16.4-8.1 29.4-5.9 31.7-.9 3.3 7.1-7 20.3-24 22.2-6.5.7-9.9-1.8-10.7-2.7-.9-1-1-1-1.4-.9-.5.3-.2 1.2 0 1.7.5 1.3 2.6 3.7 6.1 4.8 3.1 1 10.7 1.6 19.9-2 10.3-4 18.3-15 16-24.3-2.4-9.4-18-12.5-32.8-7.3-8.7 3.2-18.2 8.1-25 14.5-8.1 7.6-9.4 14.2-8.9 17 1.9 9.8 15.4 16.2 20.9 20.9-.3.2-.5.3-.7.4-2.7 1.3-13 6.7-15.6 12.4-2.9 6.5.5 11.1 2.7 11.7 6.9 1.9 14.1-1.5 17.9-7.3 3.8-5.7 3.4-13.2 1.6-16.6 0-.1-.1-.1-.1-.1.7-.4 1.4-.9 2.1-1.2 1.4-.8 2.8-1.6 3.9-2.2-.6 1.8-1.2 4-1.4 7.1-.3 3.7 1.2 8.4 3.2 10.3.9.8 1.9.9 2.6.9 2.3 0 3.3-1.9 4.5-4.2 1.4-2.8 2.7-6 2.7-6s-1.7 8.9 2.7 8.9c1.5 0 3.1-2 3.8-3 0 0 .1-.1.1-.2.2-.3.3-.4.3-.4v-.1c.6-1.1 2-3.6 4.1-7.7 2.7-5.3 5.3-12 5.3-12s.2 1.6 1 4.3c.5 1.6 1.4 3.3 2.2 5-.6.9-1 1.4-1 1.4-.5.6-1.1 1.4-1.7 2.1-2.1 2.5-4.6 5.4-5 6.3-.4 1-.3 1.7.5 2.3.6.4 1.6.5 2.6.4 1.9-.2 3.3-.6 3.9-.9 1-.4 2.2-1 3.4-1.8 2.1-1.5 3.4-3.7 3.3-6.7-.1-1.6-.6-3.2-1.2-4.7.2-.3.4-.5.6-.8 3.3-4.8 5.9-10.1 5.9-10.1s.2 1.6 1 4.3c.4 1.4 1.2 2.8 1.9 4.3-3.1 2.5-5 5.4-5.7 7.4-1.4 3.6-.4 5.2 1.4 5.5.8.2 2-.2 2.8-.6 1.1-.4 2.4-1 3.6-1.9 2.1-1.5 4.1-3.7 4-6.6-.1-1.3-.4-2.6-.9-3.9 2.6-1.1 6-1.7 10.4-1.2 9.3 1.1 11.1 6.9 10.8 9.3-.4 2.5-2.3 3.8-2.9 4.2-.6.4-.9.5-.8.9s.4.4 1 .3c.7-.2 4.9-2 5.1-6.5.1-5.6-5.4-11.9-15-11.8zm-71.6 24.1c-3.1 3.4-7.4 4.6-9.2 3.5-2-1.2-1.2-6.1 2.6-9.7 2.3-2.2 5.3-4.2 7.3-5.4.4-.3 1.1-.6 1.9-1.2l.2-.1c.2-.1.3-.2.5-.3 1.3 5.2-.1 9.7-3.3 13.2zm22.4-15.3c-1.1 2.6-3.3 9.3-4.7 8.9-1.2-.3-1.9-5.4-.2-10.4.9-2.5 2.6-5.5 3.6-6.7 1.7-1.9 3.5-2.5 4-1.8.6 1.2-2 8.4-2.7 10zm18.5 8.9c-.4.2-.9.4-1.1.3-.2-.1.2-.4.2-.4s2.3-2.5 3.3-3.6c.5-.6 1.2-1.4 1.8-2.3v.3c0 2.9-2.9 4.9-4.2 5.7zm14.3-3.3c-.3-.2-.3-1 .9-3.5.4-1 1.4-2.6 3.2-4.1.2.6.3 1.2.3 1.8-.1 3.9-2.8 5.2-4.4 5.8z"/></symbol></svg>