<?xml version="1.0" encoding="utf-8"?>
<!-- Generator: Adobe Illustrator 22.0.1, SVG Export Plug-In . SVG Version: 6.00 Build 0)  -->
<svg version="1.1" id="Calque_1" xmlns="http://www.w3.org/2000/svg" xmlns:xlink="http://www.w3.org/1999/xlink" x="0px" y="0px"
	 viewBox="0 0 300 277.7" style="enable-background:new 0 0 300 277.7;" xml:space="preserve">
<style type="text/css">
	.st0{fill:#FFFFFF;}
	.st1{fill:#49C0B6;}
</style>
<g>
	<path class="st0" d="M186.4,237c9.5-13.3,17.7-29.1,24.2-46.7c3.3-8.9,5.9-18,7.9-27.3c1.7-8.5,3.4-18.5,2.2-28.1
		c-1.7-14-11.3-27.4-24.5-34c-5.2-2.6-10.7-3.9-16.3-3.9c-7.6,0-15.5,2.5-22.7,7.2c-2.1,1.4-4.3,2.9-6.2,4.4l-0.4,0.3
		c-0.7,0.5-1.6,0.5-2.2,0c-2.5-2-5.3-4-7.9-5.5c-5.6-3.2-12.2-4.9-19.1-4.9c-7.7,0-15.7,2-22.7,5.8c-13.3,7.2-20.8,21.5-19.8,38.5
		c1,18,6.1,37.1,15.5,58.5c6.8,15.1,14.5,28.4,23.2,39.2c2.5,3.2,5.3,6.5,8.6,8.9c1.4,1,3.2,1.6,5,1.6c1.7,0,3.1-0.4,4.3-1.4
		c1.8-1.5,1.7-6.5,1.7-9.7c0-1.1,0-2.1,0-2.9c0.7-12.3,2.8-22,6.5-30.8c2.1-5,4.7-9.7,6.4-12.7c0.3-0.7,1-1,1.7-1l0,0
		c0.7,0,1.3,0.4,1.7,1c2.9,5.3,4.9,9.5,6.5,13.7c4,10,5.1,20.6,5.5,30.8v1c0.2,5.4,0.4,9.7,4.7,13c0.3,0.3,0.7,0.4,1.1,0.4
		c1.4,0,3.1-1.5,4.3-2.6l0.3-0.2C179.7,246,183.3,241.4,186.4,237z"/>
	<path class="st1" d="M111.2,164.1c-2,0-3.6,2.2-3.6,4.9c0,5.4,3.4,9.7,5.3,9.7c0,0-2.3-1.4,0.3-9.7
		C114.2,166.5,113.2,164.1,111.2,164.1z M111.2,184.1c-2,0-3.6,2.2-3.6,4.9c0,5.4,3.4,9.7,5.3,9.7c0,0-2.3-1.4,0.3-9.7
		C114.2,186.4,113.2,184.1,111.2,184.1z M111.2,144.2c-2,0-3.6,2.2-3.6,4.9c0,5.4,3.4,9.7,5.3,9.7c0,0-2.3-1.4,0.3-9.7
		C114.2,146.6,113.2,144.2,111.2,144.2z M101.3,134.3c-2,0-3.6,2.2-3.6,4.9c0,5.4,3.4,9.7,5.3,9.7c0,0-2.3-1.4,0.3-9.7
		C104.2,136.6,103.3,134.3,101.3,134.3z M190.5,58c2.3-0.4,4.6-1.4,6.5-2.9c2-1.5,3.9-3.3,5.6-5.6c1.7-2.2,3.2-4.7,4.4-7.3
		c1.3-2.6,2.3-5.4,3.1-8.3c0.8-2.9,1.4-5.6,1.7-8.2c0.3-2.6,0.3-5,0.1-7.2c-0.2-2.2-0.7-4-1.6-5.4c-0.4-0.7-1.1-1.3-2-2
		c-1-0.7-1.9-1.4-3.1-1.9c-1.1-0.5-2.2-1-3.3-1.1c-1.1-0.2-2-0.2-2.8,0.2l-16.3,49.2C185.5,58.2,188,58.6,190.5,58z M190.1,47.8
		c0.8-2.5,1.7-5,2.6-7.9c1-2.8,1.9-5.6,2.9-8.5c1-2.8,1.8-5.5,2.6-8s1.5-4.7,2-6.5c0.5-1.9,1-3.3,1.1-4.1c2.1,0.2,3.7,1.1,4.7,2.5
		c1.1,1.5,1.6,3.2,1.8,5.3c0.2,2.1,0,4.4-0.7,7.1c-0.7,2.6-1.4,5.2-2.5,7.9c-1.1,2.6-2.3,5.2-3.7,7.5c-1.4,2.5-2.9,4.4-4.4,6.2
		c-1.5,1.7-3.1,3.1-4.6,3.9c-1.5,0.8-2.9,1.1-4,0.5C188.5,52.2,189.3,50.2,190.1,47.8z M111.2,124.3c-2,0-3.6,2.2-3.6,4.9
		c0,5.4,3.4,9.7,5.3,9.7c0,0-2.3-1.4,0.3-9.7C114.2,126.6,113.2,124.3,111.2,124.3z M101.3,114.3c-2,0-3.6,2.2-3.6,4.9
		c0,5.4,3.4,9.7,5.3,9.7c0,0-2.3-1.4,0.3-9.7C104.2,116.7,103.3,114.3,101.3,114.3z M111.2,104.4c-2,0-3.6,2.2-3.6,4.9
		c0,5.4,3.4,9.7,5.3,9.7c0,0-2.3-1.4,0.3-9.7C114.2,106.7,113.2,104.4,111.2,104.4z M121.2,114.3c-2,0-3.6,2.2-3.6,4.9
		c0,5.4,3.4,9.7,5.3,9.7c0,0-2.3-1.4,0.3-9.7C124.1,116.7,123.2,114.3,121.2,114.3z M101.3,154.2c-2,0-3.6,2.2-3.6,4.9
		c0,5.4,3.4,9.7,5.3,9.7c0,0-2.3-1.4,0.3-9.7C104.2,156.5,103.3,154.2,101.3,154.2z M121.2,134.3c-2,0-3.6,2.2-3.6,4.9
		c0,5.4,3.4,9.7,5.3,9.7c0,0-2.3-1.4,0.3-9.7C124.1,136.6,123.2,134.3,121.2,134.3z M130,203.9c-1.7,0-2.9,1.4-2.9,2.9
		c0,4.4,2.9,11.9,2.9,11.9s2.9-7.5,2.9-11.9C133,205.1,131.6,203.9,130,203.9z M121.2,154.2c-2,0-3.6,2.2-3.6,4.9
		c0,5.4,3.4,9.7,5.3,9.7c0,0-2.3-1.4,0.3-9.7C124.1,156.5,123.2,154.2,121.2,154.2z M121.2,213.9c-2,0-3.6,2.2-3.6,4.9
		c0,5.4,3.4,9.7,5.3,9.7c0,0-2.3-1.4,0.3-9.7C124.1,216.2,123.2,213.9,121.2,213.9z M121.2,194c-2,0-3.6,2.2-3.6,4.9
		c0,5.4,3.4,9.7,5.3,9.7c0,0-2.3-1.4,0.3-9.7C124.1,196.3,123.2,194,121.2,194z M121.2,174.1c-2,0-3.6,2.2-3.6,4.9
		c0,5.4,3.4,9.7,5.3,9.7c0,0-2.3-1.4,0.3-9.7C124.1,176.4,123.2,174.1,121.2,174.1z M111.2,203.9c-2,0-3.6,2.2-3.6,4.9
		c0,5.4,3.4,9.7,5.3,9.7c0,0-2.3-1.4,0.3-9.7C114.2,206.3,113.2,203.9,111.2,203.9z M207.7,54.8c-0.7,2.3-0.8,4.7-0.7,6.9
		c0.1,2.2,0.7,4.3,1.8,6.1c1.7,1.3,3.2,2,4.7,2.5c1.5,0.3,2.8,0.4,3.8,0.3c1.1-0.2,2-0.5,2.6-1.1c0.7-0.5,1.1-1.1,1.3-1.6
		c0.1-0.5-0.1-1-0.7-1.3c-0.5-0.3-1.5-0.3-2.8-0.1c-2.5-0.4-4.1-1.3-5-2.6c-1-1.4-1.4-3.1-1.3-5c0.1-2,0.7-4.1,1.6-6.5
		c0.9-2.3,2-4.7,3.3-6.9c1.3-2.3,2.5-4.4,4-6.5c1.4-2,2.6-3.7,3.6-5c2.3,0.5,4.7,1.4,6.8,2.5c2.1,1.1,4.3,2.1,6.4,3.2
		c1.6-1.1,2.6-2.6,3.2-4.4s0.5-3.6,0.1-5.4c-0.4-1.8-1.3-3.4-2.5-4.7c-1.3-1.4-2.8-2.2-4.6-2.5c-1.8-0.2-3.8,0.2-6.1,1.5
		c-2.2,1.3-4.7,3.6-7.1,7.1c-0.8,1.1-1.8,2.5-2.9,4.3c-1.1,1.7-2.5,3.6-3.6,5.7c-1.1,2.1-2.3,4.3-3.4,6.7
		C209.2,50,208.3,52.5,207.7,54.8z M229.7,27.7c1-0.5,1.9-0.7,2.8-0.5c0.8,0.1,1.6,0.5,2.1,1.1c0.7,0.7,1.1,1.4,1.4,2.1
		c0.3,0.7,0.3,1.5,0.2,2.2c-0.1,0.7-0.4,1.3-1.1,1.5l-8.5-3.5C227.7,29.2,228.8,28.1,229.7,27.7z M39.6,110.1
		c-2-1.3-4.1-2.5-6.1-3.8c-2.1-1.3-4.3-2.5-6.2-3.7c-2-1.1-4-2.3-5.8-3.4c0.1-0.3,0.3-0.7,0.7-1.3c0.3-0.5,0.7-1.1,1-1.9
		c0.3-0.7,0.5-1.5,0.7-2.3c0.2-0.8,0.2-1.8,0-2.8s-0.5-2-1.1-3.1c-0.7-1.1-1.6-2.2-2.9-3.3c-2.5-2-4.7-3.3-6.9-3.7
		c-2.2-0.5-4.1-0.5-5.9,0c-1.7,0.4-3.2,1.3-4.3,2.5c-1.1,1.1-1.9,2.3-2.3,3.6c-0.4,1.3-0.3,2.5,0.1,3.6c0.5,1.1,1.5,2,3.1,2.5
		l39.6,23.5c0.4,0.2,0.8,0.3,1.1,0.2c0.3-0.1,0.7-0.3,0.8-0.5c0.2-0.2,0.4-0.5,0.4-1c0.1-0.4,0-0.7-0.2-1.1
		C43.4,112.8,41.6,111.5,39.6,110.1z M17.5,96.7c-0.7-0.5-1.7-1.1-2.9-1.8c-1.1-0.7-2.5-1.4-3.7-2.1c-1.3-0.7-2.5-1.4-3.7-1.9
		C6,90.2,5,89.8,4.3,89.4c0.3-2.1,1.1-3.6,2.1-4.4c1.1-0.8,2.3-1.3,3.7-1.1c1.4,0.1,2.8,0.5,4.1,1.3c1.4,0.7,2.5,1.8,3.4,3.1
		c0.8,1.3,1.4,2.6,1.5,4.1C19.3,93.7,18.7,95.2,17.5,96.7z M130,184c-1.7,0-2.9,1.4-2.9,2.9c0,4.4,2.9,11.9,2.9,11.9
		s2.9-7.5,2.9-11.9C133,185.2,131.6,184,130,184z M101.3,174.1c-2,0-3.6,2.2-3.6,4.9c0,5.4,3.4,9.7,5.3,9.7c0,0-2.3-1.4,0.3-9.7
		C104.2,176.4,103.3,174.1,101.3,174.1z M31.5,50.3c1.5-0.3,2.5-0.8,2.9-1.6c0.5-0.7,0.7-1.6,0.5-2.3c-0.1-0.7-0.4-1.5-1-2
		c-0.5-0.7-1.1-0.8-1.7-0.7c-1.5-0.1-2.5,0.2-3.1,0.8c-0.7,0.7-0.8,1.5-0.7,2.3c0.1,0.8,0.4,1.7,1,2.5C30,49.9,30.8,50.3,31.5,50.3z
		 M138.8,52.8c0.4,0.2,1,0.3,1.5,0.3s1-0.2,1.1-0.7l9.7-29.6c0.7,2.5,1.7,5.1,2.6,7.9c1,2.8,2,5.5,3.1,8.3c1.1,2.8,2.1,5.3,3.3,7.9
		c1.2,2.6,2.2,4.7,3.3,6.8c0.8,0.2,1.5,0.3,2,0.1c0.5-0.2,1-0.4,1.1-0.8c0.2-0.4,0.3-0.8,0.3-1.5c0-0.5-0.2-1.1-0.5-1.7
		c-1.5-2.5-2.9-5.2-4.1-8c-1.1-2.9-2.3-5.7-3.4-8.8c-1.1-2.9-2-5.9-2.9-8.9c-0.8-2.9-1.7-5.7-2.5-8.5l7.2-13.7
		c-0.1-0.3-0.3-0.7-0.7-1c-0.3-0.3-0.7-0.5-1.1-0.7c-0.4-0.1-0.8-0.2-1.1-0.1c-0.3,0-0.7,0.2-0.7,0.5l-6.1,10
		c-0.7-0.4-1.1-1.1-1.8-2.1c-0.7-1-1.1-2-1.8-2.9c-0.7-1.1-1.3-2-1.9-2.9c-0.7-1-1.3-1.5-2-1.8c-1.3-0.7-2.2-0.7-2.8,0
		c-0.5,0.7-0.5,1.4,0,2.3c0.1,0.3,0.4,0.7,0.8,1.4c0.4,0.7,0.8,1.4,1.4,2.2s1.1,1.7,1.7,2.6c0.7,1,1.1,1.8,1.7,2.6
		c0.5,0.8,1.1,1.6,1.5,2.2c0.4,0.7,0.7,1.1,0.8,1.3l-10.9,35.5c-0.2,0.4-0.1,0.8,0.1,1.3C138.1,52.3,138.4,52.6,138.8,52.8z
		 M38.9,51.4c-0.3-0.3-0.7-0.5-1.4-0.5s-1.1,0.2-1.5,0.5s-0.7,0.7-0.8,1.3c-0.1,0.5,0.1,1.1,0.7,1.8l29.8,32.1
		c0.4,0.4,0.8,0.7,1.4,0.5c0.4,0,0.8-0.2,1.3-0.4c0.3-0.3,0.7-0.7,0.7-1.1c0.1-0.5,0.1-1.1,0-1.7L38.9,51.4z M112,48.4
		c0.8,2.8,1.8,4.9,2.9,6.1c1.1,1.4,2.3,2.2,3.6,2.5c1.3,0.3,2.5,0.3,3.6-0.2s2.2-1.1,3.2-2.1c1-1,1.7-1.9,2.2-3.2
		c0.5-1.1,0.8-2.3,0.8-3.3c0.2,0.3,0.5,0.7,1,1.3c0.4,0.7,0.8,1.1,1.4,1.8c0.4,0.5,1,1.1,1.5,1.5s1.1,0.7,1.6,0.7
		c0.3,0.2,0.7,0.2,1.3,0.1c0.5-0.1,1-0.3,1.4-0.5c0.4-0.2,0.7-0.7,0.8-1c0.2-0.4,0.1-0.8-0.3-1.3c-1.6-0.8-2.9-2.2-3.9-4.1
		c-1-1.9-2-4.1-2.9-6.7c-0.8-2.5-1.5-5.4-2.1-8.3c-0.7-3.1-1.3-6.1-1.8-9.2c-0.7-3.2-1.1-6.2-1.8-9.4c-0.7-3.1-1.4-6.1-2.2-8.8
		c-1.1-1-2-1.3-2.8-1c-0.8,0.3-1.1,1.3-1.1,2.5c0.4,2.1,0.8,4.4,1.4,6.9c0.5,2.5,1.1,5,1.7,7.5c0.5,2.5,1.1,5.1,1.6,7.5
		c0.5,2.5,1,4.7,1.4,6.9c0.4,2.1,0.7,4,0.8,5.7s0.2,2.9,0.1,3.9c-0.4,2.5-1.1,4.1-1.7,5.3c-0.7,1.1-1.4,1.9-2,2.1
		c-0.7,0.3-1.5,0.2-2.2-0.2c-0.7-0.4-1.4-1.1-2-1.9c-0.7-0.8-1.1-1.8-1.5-2.9s-0.7-2-0.8-3.1l-7.6-36c-0.2-0.7-0.5-1.1-1.1-1.3
		c-0.5-0.2-1-0.2-1.5,0c-0.4,0.2-0.8,0.5-1.3,1.1c-0.3,0.5-0.5,1.1-0.4,2L112,48.4z M57.4,86.5c-1.1-2.1-2.5-4.1-4.3-6.4
		c-1.8-2.1-3.8-4.3-6.1-6.4c-2.2-2-4.7-3.9-7.2-5.7c-2.5-1.7-5.2-3.2-7.9-4.4s-5.3-2.1-7.9-2.6c-1.8-0.2-3.3-0.1-4.4,0.4
		c-1.1,0.5-2.1,1.3-2.8,2.2s-1.1,2.1-1.4,3.4s-0.3,2.6-0.2,3.9c0.1,1.4,0.4,2.6,0.8,3.8c0.4,1.3,1,2.2,1.5,3.1
		c1.6,1.9,3.3,3.8,5.3,5.7c2,1.9,4,3.7,6.2,5.5c2.2,1.8,4.3,3.4,6.7,4.9c2.2,1.5,4.4,2.8,6.7,3.7c2.1,1,4.3,1.7,6.1,2.2
		c1.9,0.4,3.6,0.5,5.2,0.2c2.1-0.7,3.6-1.7,4.6-3.1c0.8-1.4,1.3-2.9,1.1-4.7C59.1,90.5,58.5,88.6,57.4,86.5z M55.1,93.2
		c-0.2,1-0.8,1.6-1.9,2c-1,0.4-2.5,0.4-4.1,0.2c-1.8-0.2-3.9-1.1-6.5-2.3c-2.5-1.3-5.4-3.2-8.7-5.7s-6.9-5.7-11-9.7
		c-1.5-1.8-2.5-3.5-2.9-5.2c-0.4-1.7-0.5-3.1-0.1-4.3c0.4-1.1,1.1-2,2.3-2.5c1.1-0.4,2.6-0.4,4.3,0.3c1.9,0.8,3.9,1.9,6.1,3.3
		c2.1,1.4,4.3,2.9,6.4,4.6c2.1,1.7,4,3.3,5.9,5.1c1.9,1.7,3.5,3.4,4.9,4.9c1.4,1.5,2.5,2.9,3.4,4c0.8,1.1,1.3,2,1.4,2.5
		C55.3,91.3,55.4,92.2,55.1,93.2z M91.3,144.2c-2,0-3.6,2.2-3.6,4.9c0,5.4,3.4,9.7,5.3,9.7c0,0-2.3-1.4,0.3-9.7
		C94.3,146.6,93.4,144.2,91.3,144.2z M43.8,38.8c-0.4-0.4-0.8-0.7-1.4-0.7c-0.5,0-1,0.2-1.4,0.5s-0.7,0.7-0.8,1.3
		c-0.1,0.5,0,1,0.3,1.4l32.4,39.7c0.3,0.4,0.7,0.5,1.1,0.3s0.8-0.5,1.1-1c0.3-0.4,0.5-1,0.7-1.5c0.1-0.5,0.1-1-0.1-1.3L43.8,38.8z
		 M93.1,119c0,0-1.1-0.7-0.8-4c-0.5,0.8-1.1,1.7-1.6,2.5C91.6,118.4,92.4,119,93.1,119z M103.1,109c0,0-1.1-0.7-1-3.7
		c-0.7,0.4-1.4,1-2.1,1.5C101,108.2,102.2,109,103.1,109z M169.9,243.7c0,0.5,0.1,1,0.1,1.5c0.4-0.3,0.8-0.7,1.3-1.1
		C170.8,243.9,170.4,243.7,169.9,243.7z M83.3,51c1.4,2.3,2.9,4.6,4.4,6.5c1.5,1.9,3.1,3.6,4.6,5c1.5,1.4,2.9,2.3,4.3,2.9
		c1.6,0.4,2.9,0.1,3.9-0.7c1-0.8,1.7-1.9,2.1-3.2c0.4-1.3,0.7-2.8,0.7-4.3c0-1.5,0-2.9-0.3-3.9c0.2,0.2,0.7,0.7,1.1,1.1
		c0.5,0.4,1.1,1,1.9,1.5c0.7,0.5,1.5,1,2.2,1.4c0.7,0.4,1.5,0.7,2.1,0.7c0.7,0.1,1.1-0.1,1.7-0.5c0.4-0.4,0.7-1.1,0.7-2.3
		c-1.6-1.4-2.9-2.5-4-3.3c-1.1-0.8-2-1.6-2.9-2.3c-0.8-0.8-1.6-1.7-2.3-2.8s-1.6-2.5-2.6-4.3c-1-1.9-2.2-4.3-3.7-7.4
		c-1.5-3.1-3.3-7-5.5-11.8c-1.1-1.8-2.2-3.4-3.5-4.7c-1.3-1.3-2.6-2.2-4-2.8s-2.8-0.7-4.1-0.3c-1.4,0.3-2.6,1.1-3.8,2.5
		c-1.1,1.3-1.7,2.9-2,4.7c-0.3,1.9-0.2,3.9,0.1,6.2c0.3,2.3,0.8,4.7,1.7,7.2c0.8,2.5,1.8,5.1,2.9,7.5C80.6,46.3,81.9,48.7,83.3,51z
		 M78.2,24.4c0-1.1,0.3-2.2,0.7-3.3c0.5-1,1.3-1.6,2.5-1.8c1-0.3,2,0.1,3.3,1.3c1.1,1.1,2.5,2.8,3.6,4.7c1.3,2,2.5,4.3,3.6,7
		c1.1,2.6,2.2,5.4,3.3,8.2c1,2.8,1.8,5.5,2.5,8.2s1.1,5,1.4,7c0.2,2,0.1,3.6-0.2,4.7s-1.1,1.6-2.1,1.4c-1.3-0.8-2.5-2.2-4-3.9
		c-1.4-1.7-2.8-3.7-4.1-5.9c-1.4-2.2-2.6-4.6-3.9-7.1c-1.3-2.5-2.3-5.1-3.3-7.5c-1-2.5-1.7-4.7-2.2-7.1C78.4,28,78.2,26,78.2,24.4z
		 M149.9,267.7c-27.5,0-49.8,2.2-49.8,5s22.3,5,49.8,5c27.5,0,49.8-2.2,49.8-5S177.4,267.7,149.9,267.7z M91.3,124.3
		c-2,0-3.6,2.2-3.6,4.9c0,5.4,3.4,9.7,5.3,9.7c0,0-2.3-1.4,0.3-9.7C94.3,126.6,93.4,124.3,91.3,124.3z M189.1,124.3
		c-2,0-2.9,2.3-2.1,4.9c2.6,8.3,0.3,9.7,0.3,9.7c2,0,5.3-4.3,5.3-9.7C192.7,126.5,191.2,124.3,189.1,124.3z M189.1,144.2
		c-2,0-2.9,2.3-2.1,4.9c2.6,8.3,0.3,9.7,0.3,9.7c2,0,5.3-4.3,5.3-9.7C192.7,146.4,191.2,144.2,189.1,144.2z M189.1,164.1
		c-2,0-2.9,2.3-2.1,4.9c2.6,8.3,0.3,9.7,0.3,9.7c2,0,5.3-4.3,5.3-9.7C192.7,166.4,191.2,164.1,189.1,164.1z M189.1,104.4
		c-2,0-2.9,2.3-2.1,4.9c2.6,8.3,0.3,9.7,0.3,9.7c2,0,5.3-4.3,5.3-9.7C192.7,106.5,191.2,104.4,189.1,104.4z M189.1,203.9
		c-2,0-2.9,2.3-2.1,4.9c2.6,8.3,0.3,9.7,0.3,9.7c2,0,5.3-4.3,5.3-9.7C192.7,206.2,191.2,203.9,189.1,203.9z M179.2,174.1
		c-2,0-2.9,2.3-2.1,4.9c2.6,8.3,0.3,9.7,0.3,9.7c2,0,5.3-4.3,5.3-9.7C182.8,176.3,181.1,174.1,179.2,174.1z M189.1,184.1
		c-2,0-2.9,2.3-2.1,4.9c2.6,8.3,0.3,9.7,0.3,9.7c2,0,5.3-4.3,5.3-9.7C192.7,186.3,191.2,184.1,189.1,184.1z M179.2,154.2
		c-2,0-2.9,2.3-2.1,4.9c2.6,8.3,0.3,9.7,0.3,9.7c2,0,5.3-4.3,5.3-9.7C182.8,156.4,181.1,154.2,179.2,154.2z M199.1,174.1
		c-2,0-2.9,2.3-2.1,4.9c2.6,8.3,0.3,9.7,0.3,9.7c2,0,5.3-4.3,5.3-9.7C202.7,176.3,201.1,174.1,199.1,174.1z M179.2,134.3
		c-2,0-2.9,2.3-2.1,4.9c2.6,8.3,0.3,9.7,0.3,9.7c2,0,5.3-4.3,5.3-9.7C182.8,136.5,181.1,134.3,179.2,134.3z M130,164
		c-1.7,0-2.9,1.4-2.9,2.9c0,4.4,2.9,11.9,2.9,11.9s2.9-7.5,2.9-11.9C133,165.3,131.6,164,130,164z M267.9,50c0.1-1.6,0-3.1-0.5-4.3
		c-0.5-1.3-1.4-2.5-2.5-3.5c-1.1-1.1-2.3-1.8-3.6-2.5c-1.3-0.7-2.8-1-4.3-1.1c-1.5-0.1-2.9,0-4.1,0.5c1.6-1.1,2.5-2,2.6-2.9
		c0.2-0.8,0.1-1.6-0.3-2.1c-0.4-0.5-1.1-0.7-1.8-0.7c-0.7,0-1.4,0.4-1.8,1.1l-31,38.4c-0.2,0.1-0.3,0.3-0.2,0.8
		c0.1,0.4,0.3,0.8,0.7,1.4c0.3,0.4,0.7,0.7,1.3,1.1c0.5,0.2,1,0.2,1.5-0.1l21.3-25.1c1.8-2.1,3.7-3.8,5.5-4.9
		c1.9-1.1,3.7-1.9,5.3-2.1c1.6-0.3,2.9-0.2,4.3,0.3c1.1,0.5,2,1.3,2.5,2.5c0.4,1.1,0.3,2.5-0.2,4.1c-0.5,1.6-1.8,3.4-3.7,5.4l-25,29
		c-0.2,0.4-0.3,0.7-0.1,1.3c0.2,0.4,0.4,0.8,0.8,1.1c0.4,0.3,0.8,0.4,1.4,0.4s1.1-0.2,1.7-0.7l28.6-32.4
		C267.2,53.2,267.8,51.7,267.9,50z M299.1,84.8c-0.7-1.4-1.4-2.5-2.3-3.4c-1-0.8-2-1.6-3.3-2c-1.3-0.4-2.5-0.7-3.6-0.5
		c-1.1,0.1-2.3,0.4-3.5,1.1c-1.1,0.7-2.1,1.6-2.9,2.8c-2.1,3.5-4,6.5-5.7,9.1c-1.7,2.5-3.2,4.7-4.6,6.7c-1.4,1.8-2.5,3.4-3.7,4.7
		c-1.1,1.3-2,2.3-2.9,3.1c-0.8,0.8-1.6,1.5-2.2,2c-0.7,0.5-1.3,1-1.9,1.4c-1.4,0.5-2.5,0.7-3.4,0.7c-1-0.1-1.6-0.4-2.1-1.1
		c-0.5-0.5-0.7-1.3-0.8-2.2c-0.1-1,0-1.9,0.3-3.1c0.1-0.7,0-1.1-0.2-1.7c-0.2-0.5-0.7-0.8-1.1-1.1c-0.4-0.2-1-0.3-1.5-0.2
		c-0.5,0.1-1.1,0.4-1.5,1.1c-0.1,0.1-0.2,0.5-0.4,1.3c-0.2,0.7-0.3,1.5-0.3,2.5s0,1.9,0.2,2.9c0.2,1,0.7,2,1.3,2.9
		c1.8,1.7,3.6,2.6,5.4,2.9c1.8,0.3,3.5,0.1,5.2-0.5c1.7-0.7,3.3-1.7,4.9-3.2c1.6-1.5,3.1-3.2,4.6-5c1.5-1.9,2.9-3.8,4.3-5.9
		c1.4-2.1,2.6-4.1,3.8-6.1c1.1-1.9,2.3-3.7,3.4-5.3c1.1-1.6,2-2.8,2.9-3.6c1.4-1.4,2.5-2,3.5-2s1.8,0.3,2.5,1.1
		c0.7,0.7,1.1,1.6,1.6,2.6c0.3,1.1,0.7,2,0.7,2.9c0.1,0.4,0.3,0.8,0.7,1.1c0.4,0.3,1,0.4,1.4,0.5c0.5,0.1,1,0,1.5-0.3
		c0.4-0.3,0.7-0.7,1-1.4C299.9,87.8,299.6,86.2,299.1,84.8z M197,99.2c-5.4-2.8-11.2-4.1-17.2-4.1c-8,0-16.2,2.6-23.7,7.5
		c-2.1,1.4-4.3,2.9-6.4,4.4l-0.4,0.3c-2.8-2.1-5.5-4.1-8-5.6c-5.8-3.3-12.8-5.1-20-5.1c-8,0-16.2,2.1-23.6,6.1
		c-14,7.5-21.7,22.6-20.8,40.3C78,161.1,83,180.5,92.7,202c6.8,15.4,14.7,28.7,23.4,39.6c2.6,3.3,5.5,6.7,8.9,9.3
		c1.7,1.3,3.8,1.9,6.1,1.9c2.1,0,3.9-0.7,5.4-1.7c2.5-2,2.5-7.3,2.3-11.1c0-1.1,0-2,0-2.6c0.7-12.1,2.6-21.6,6.4-30.2
		c2-4.7,4.3-9,6.2-12.5c2.9,5.2,4.9,9.4,6.5,13.4c3.9,9.7,5,20.2,5.4,30.3v1c0.2,5.6,0.5,10.5,5.5,14.4c0.7,0.5,1.5,0.8,2.2,0.8l0,0
		c2.1,0,4.1-1.8,5.5-3.1l0.2-0.2c4.3-3.8,7.7-8.6,10.9-13c9.7-13.4,17.9-29.3,24.5-47.1c3.3-8.9,6.1-18.2,7.9-27.5
		c1.8-8.7,3.4-18.8,2.2-28.7C220.7,120.1,210.7,106.2,197,99.2z M213.8,157.8c-0.5,2.8-1.1,5.5-1.9,8.3c-0.7-1.1-1.7-1.9-2.9-1.9
		c-2,0-2.9,2.3-2.1,4.9c2.6,8.3,0.3,9.7,0.3,9.7c0.3,0,0.7-0.1,1-0.3c-1.9,5.6-4,11.3-6.5,17.2c-0.7-1-1.6-1.5-2.5-1.5
		c-2,0-2.9,2.3-2.1,4.9c0.5,1.8,1,3.3,1.1,4.6c-1.7,3.4-3.4,6.8-5.3,10.3c-4.3,7.9-8.6,14.6-12.9,20.3c-0.2-0.1-0.5-0.1-0.7-0.1
		c-1.7,0-2.8,1.8-2.3,4c-0.7,1-1.6,1.9-2.3,2.8c-1.4,1.6-2.9,3.1-4.4,4.4c-0.1-2.5-0.2-4.7-0.4-7l0,0c0.1,0.3,0.2,0.5,0.2,0.5
		s2.9-7.5,2.9-11.9c0-1.7-1.4-2.9-2.9-2.9c-0.7,0-1.5,0.3-2,0.7c0-0.1,0-0.1,0-0.2c-1.4-7.1-4-13.6-6.7-19.1
		c0.8-2.5,1.7-5.8,1.7-8.3c0-1.7-1.4-2.9-2.9-2.9s-2.9,1.3-2.9,2.9l0,0c-1.1-2-2.2-4-3.3-5.9c0.7-1.4,1.5-2.6,2.2-4
		c1.1-1.8,2.1-3.7,3.2-5.5c-0.3,0.7-0.7,1.1-1.1,1.8c0.8,3.1,1.9,5.7,1.9,5.7s2.9-7.5,2.9-11.9c0-0.7-0.2-1.3-0.7-1.8
		c1.8-3.8,3.1-7.9,3.2-11.9c0-0.2-0.1-0.4-0.2-0.7c-0.2-0.2-0.7-0.5-2-0.5c0,0-0.4,0-1.1,0.1c0.4-1.8,0.7-3.6,0.7-5.1
		c0-1.7-1.4-2.9-2.9-2.9c-1.7,0-2.9,1.4-2.9,2.9c0,1.8,0.4,3.9,1.1,6.1c-0.7,0.4-1.3,1-1.3,1.6c-0.1,6.7-3.6,12.6-6.9,18.4l-0.5,1
		c-1.3,0.3-2.2,1.5-2.2,2.9c0,0.3,0,0.7,0,1c0.1-0.2,0.2-0.3,0.3-0.5c-1.6,2.8-3.1,5.4-4.7,8.3c-0.5-1.1-1.5-1.7-2.6-1.7
		c-1.7,0-2.9,1.4-2.9,2.9c0,2.1,0.7,4.9,1.4,7.2l0,0c-1.4,2.9-2.6,5.9-3.7,8.9c-1.4,3.7-2.2,7.5-2.9,11.3c-0.4-0.3-1.1-0.5-1.6-0.5
		c-1.7,0-2.9,1.4-2.9,2.9c0,4.4,2.9,11.9,2.9,11.9s0,0,0-0.1l0,0c-0.1,1.1-0.1,2-0.2,3.1c0,0.5,0,1.1-0.1,1.7c0,0.1,0,0.2,0,0.3
		c-0.4,0-0.7,0.1-1.1,0.3c-1.8-1.9-3.5-4-5.1-6.1c0.4-2.2-0.5-4-2.3-4c-0.2,0-0.4,0-0.7,0.1c0.4,0.7,0.8,1.1,1.3,1.8
		c-3.6-4.9-7.2-10.4-11.1-17.3c-2.9-5.3-5.7-10.6-8.3-16c0.2-1.1,0.5-2.2,1-3.6c0.8-2.5-0.2-4.9-2.1-4.9c-0.7,0-1.5,0.3-2.1,1
		c-2.6-6.5-5-13-7-19.6c0-1.5,0.3-3.5,1.3-6.4c0.8-2.5-0.2-4.9-2.1-4.9c-0.7,0-1.4,0.3-2,0.8c0.4,1.7,0.8,3.4,1.3,5
		c-0.5-1.8-1-3.6-1.4-5.5c-3.5-14.9-6.1-30.6-0.1-44.1c5.2-11.8,16.5-19.8,28.4-19.9h0.3h-0.1c0.4,4.7,3.5,8.5,5.3,8.5
		c0,0-2-1.1-0.1-7.9c6.2,1.1,11.8,4.4,17,8.2l0,0l0,0c1.8,1.3,3.5,2.5,5.2,3.8c1.1,0.8,2.3,1.7,3.4,2.5c0.7,2.1,1.3,3.7,1.3,3.7
		s0.3-0.8,0.8-2.2l0,0c2.2,1.4,4.3,2.6,6.5,3.5c0.8,4.1,2.6,8.7,2.6,8.7s1.4-3.4,2.2-7c2.6,0.7,5.3,1.1,7.9,1.1
		c3.2,0,6.5-0.4,9.7-1.4c-0.7,0.2-1.3,0.3-1.9,0.4c1.3,5.7-0.4,6.8-0.4,6.8c1.9,0,5-3.9,5.3-8.9c0-0.1,0.1-0.2,0.1-0.3
		c0-0.1,0-0.3-0.1-0.4v-0.1c0-2.6-1.6-4.9-3.6-4.9c-1.9,0-2.9,2.2-2.2,4.7l0,0c-1.4,0.4-2.8,0.5-4.1,0.5c-3.5,0-7-1.1-10.1-2.9
		c-0.2-1.5-1.5-2.5-2.9-2.5c-0.3,0-0.7,0.1-1.1,0.2c-0.7-0.4-1.3-0.8-1.8-1.3c1.4-1,2.8-2,4.3-3.1c1.9-1.3,3.8-2.5,5.6-3.4
		c0,0.2,0,0.3,0,0.5c0,4.4,2.9,11.9,2.9,11.9s2.9-7.5,2.9-11.9c0-1.1-0.7-2-1.5-2.5c2.2-0.8,4.4-1.5,6.7-1.9
		c1.1,5.3-0.5,6.2-0.5,6.2c1.6,0,4-2.9,5-6.7c5.4-0.2,10.9,0.8,15.9,2.9c0.2,3.1-1,3.7-1,3.7c1,0,2.2-1.1,3.3-2.6
		c1.1,0.7,2.3,1.3,3.5,2c1.7,1.1,3.1,2.3,4.3,3.7c-0.3-0.3-0.7-0.7-1-1c1.8,6.7-0.2,7.9-0.2,7.9c1.1,0,2.6-1.4,3.8-3.6
		C218.4,126.5,216.7,142.7,213.8,157.8z M209.1,124.3c-2,0-2.9,2.3-2.1,4.9c2.6,8.3,0.3,9.7,0.3,9.7c2,0,5.3-4.3,5.3-9.7
		C212.7,126.5,211.1,124.3,209.1,124.3z M199.1,114.3c-2,0-2.9,2.3-2.1,4.9c2.6,8.3,0.3,9.7,0.3,9.7c2,0,5.3-4.3,5.3-9.7
		C202.7,116.5,201.1,114.3,199.1,114.3z M199.1,154.2c-2,0-2.9,2.3-2.1,4.9c2.6,8.3,0.3,9.7,0.3,9.7c2,0,5.3-4.3,5.3-9.7
		C202.7,156.4,201.1,154.2,199.1,154.2z M199.1,134.3c-2,0-2.9,2.3-2.1,4.9c2.6,8.3,0.3,9.7,0.3,9.7c2,0,5.3-4.3,5.3-9.7
		C202.7,136.5,201.1,134.3,199.1,134.3z M209.1,144.2c-2,0-2.9,2.3-2.1,4.9c2.6,8.3,0.3,9.7,0.3,9.7c2,0,5.3-4.3,5.3-9.7
		C212.7,146.4,211.1,144.2,209.1,144.2z M263.5,79c3.8-3.1,8.5-6.9,14-11.2l5.2,5.6c0.3,0.4,0.7,0.5,1.3,0.5c0.5-0.1,1-0.2,1.4-0.5
		c0.4-0.3,0.7-0.7,1-1.1c0.2-0.4,0.2-0.7,0-1l-5.6-6.4l7.1-5.8c-0.5-1.1-1-2-1.5-2.6c-0.5-0.7-1.1-0.7-2-0.2l-6.7,5.3l-4.9-5.8
		c-1.3,0.5-2.2,1.1-2.8,1.6c-0.5,0.5-0.7,1.1-0.3,1.8l4.4,5.4c-6.4,5-11.6,9.2-15.9,12.9c-4.3,3.7-7.6,6.9-10.3,9.5
		c-2.6,2.8-4.6,5.1-5.7,7c-1.3,1.9-2,3.6-2.3,5.2c-0.3,1.5-0.3,2.9,0.1,4.3c0.4,1.3,0.8,2.5,1.4,4c0.2,0.7,0.7,0.8,1.3,0.5
		c0.7-0.3,1.1-0.7,1.8-1.4c0.5-0.7,1.1-1.1,1.4-1.8c0.3-0.7,0.4-0.8,0.1-0.8c-0.5-1.3-0.8-2.5-1-3.6c-0.1-1.1,0-2.2,0.5-3.4
		c0.5-1.3,1.4-2.6,2.8-4.3c1.4-1.6,3.3-3.5,5.8-5.7C256.5,84.8,259.7,82.2,263.5,79z M139.9,114.1c-1.7,0-2.9,1.4-2.9,2.9
		c0,4.4,2.9,11.9,2.9,11.9s2.9-7.5,2.9-11.9C142.9,115.5,141.6,114.1,139.9,114.1z M139.9,153.9c-1.7,0-2.9,1.4-2.9,2.9
		c0,4.4,2.9,11.9,2.9,11.9s2.9-7.5,2.9-11.9C142.9,155.3,141.6,153.9,139.9,153.9z M139.9,134.1c-1.7,0-2.9,1.4-2.9,2.9
		c0,4.4,2.9,11.9,2.9,11.9s2.9-7.5,2.9-11.9C142.9,135.5,141.6,134.1,139.9,134.1z M179.2,194c-2,0-2.9,2.3-2.1,4.9
		c2.6,8.3,0.3,9.7,0.3,9.7c2,0,5.3-4.3,5.3-9.7C182.8,196.2,181.1,194,179.2,194z M139.9,174c-1.7,0-2.9,1.4-2.9,2.9
		c0,4.4,2.9,11.9,2.9,11.9s2.9-7.5,2.9-11.9C142.9,175.2,141.6,174,139.9,174z M149.9,144c-1.7,0-2.9,1.4-2.9,2.9
		c0,4.4,2.9,11.9,2.9,11.9s2.9-7.5,2.9-11.9C152.8,145.4,151.6,144,149.9,144z M130,124.1c-1.7,0-2.9,1.4-2.9,2.9
		c0,4.4,2.9,11.9,2.9,11.9s2.9-7.5,2.9-11.9C133,125.5,131.6,124.1,130,124.1z M130,144c-1.7,0-2.9,1.4-2.9,2.9
		c0,4.4,2.9,11.9,2.9,11.9s2.9-7.5,2.9-11.9C133,145.4,131.6,144,130,144z M130,104.2c-1.7,0-2.9,1.4-2.9,2.9
		c0,4.4,2.9,11.9,2.9,11.9s2.9-7.5,2.9-11.9C133,105.6,131.6,104.2,130,104.2z M149.9,164c-1.7,0-2.9,1.4-2.9,2.9
		c0,4.4,2.9,11.9,2.9,11.9s2.9-7.5,2.9-11.9C152.8,165.3,151.6,164,149.9,164z M169.8,144c-1.7,0-2.9,1.4-2.9,2.9
		c0,4.4,2.9,11.9,2.9,11.9s2.9-7.5,2.9-11.9C172.8,145.4,171.5,144,169.8,144z M169.8,164c-1.7,0-2.9,1.4-2.9,2.9
		c0,4.4,2.9,11.9,2.9,11.9s2.9-7.5,2.9-11.9C172.8,165.3,171.5,164,169.8,164z M169.8,124.1c-1.7,0-2.9,1.4-2.9,2.9
		c0,4.4,2.9,11.9,2.9,11.9s2.9-7.5,2.9-11.9C172.8,125.5,171.5,124.1,169.8,124.1z M149.9,124.1c-1.7,0-2.9,1.4-2.9,2.9
		c0,4.4,2.9,11.9,2.9,11.9s2.9-7.5,2.9-11.9C152.8,125.5,151.6,124.1,149.9,124.1z M179.2,213.9c-2,0-2.9,2.3-2.1,4.9
		c2.6,8.3,0.3,9.7,0.3,9.7c2,0,5.3-4.3,5.3-9.7C182.8,216.1,181.1,213.9,179.2,213.9z M159.9,134.1c-1.7,0-2.9,1.4-2.9,2.9
		c0,4.4,2.9,11.9,2.9,11.9s2.9-7.5,2.9-11.9C162.8,135.5,161.5,134.1,159.9,134.1z M169.8,184c-1.7,0-2.9,1.4-2.9,2.9
		c0,4.4,2.9,11.9,2.9,11.9s2.9-7.5,2.9-11.9C172.8,185.2,171.5,184,169.8,184z M169.8,203.9c-1.7,0-2.9,1.4-2.9,2.9
		c0,4.4,2.9,11.9,2.9,11.9s2.9-7.5,2.9-11.9C172.8,205.1,171.5,203.9,169.8,203.9z"/>
</g>
</svg>
