<?xml version="1.0" encoding="utf-8"?>
<!-- Generator: Adobe Illustrator 22.0.1, SVG Export Plug-In . SVG Version: 6.00 Build 0)  -->
<svg version="1.1" id="Calque_1" xmlns="http://www.w3.org/2000/svg" xmlns:xlink="http://www.w3.org/1999/xlink" x="0px" y="0px"
	 viewBox="0 0 350 83.8" style="enable-background:new 0 0 350 83.8;" xml:space="preserve">
<g id="horizontal">
	<g>
		<path d="M129.6,33.4l-5.7,2.5c-0.5-1.2-1.3-2.7-3.5-2.7c-1.3,0-2.2,0.8-2.2,1.8c0,3.7,11.9,3.3,11.9,11.5c0,5-3.7,8.5-9.9,8.5
			c-6.4,0-8.9-4.3-9.7-6.4l5.9-2.7c0.8,1.5,2.3,3,4.2,3c1.7,0,2.5-0.7,2.5-1.8c0-3.5-11.7-3.3-11.7-11.9c0-4.8,3.7-8,9.4-8
			C126.6,27.3,129,31.4,129.6,33.4z"/>
		<path d="M133.3,54.7V27.8h15v5.9h-8.2v4.5h7V44h-7v4.8h8.5v5.9H133.3z"/>
		<path d="M167.7,43.1c0,0,0,0,6.5,11.5h-7.7l-5-10h-2.2v10h-6.9V27.8h9.2c6.7,0,9.9,2.8,9.9,8.4C171.8,39,170.4,41.8,167.7,43.1z
			 M159.6,33.4v5.9h2c1.8,0,3-1.2,3-3c0-1.8-0.8-2.8-3.3-2.8H159.6z"/>
		<path d="M183.3,54.7h-6.9V27.8h6.9V54.7z"/>
		<path d="M186.5,41.1c0-7.9,5.9-13.9,14.9-13.9c8.9,0,14.9,6.2,14.9,13.9c0,7.9-5.9,14-14.9,14S186.5,49.2,186.5,41.1z M193.7,41.1
			c0,4.5,3.2,7.9,7.7,7.9c4.5,0,7.7-3.3,7.7-7.9c0-4.3-3.2-7.9-7.7-7.9C196.8,33.4,193.7,36.8,193.7,41.1z"/>
		<path d="M219.1,44.3V27.8h6.9v16.6c0,2.8,1.8,4.7,4.8,4.7c3.2,0,4.8-1.8,4.8-4.8V27.6h6.9v16.6c0,6.4-4.3,10.9-11.9,10.9
			C223.4,55.2,219.1,50.8,219.1,44.3z"/>
		<path d="M264.6,33.4l-5.7,2.5c-0.5-1.2-1.3-2.7-3.5-2.7c-1.3,0-2.2,0.8-2.2,1.8c0,3.7,11.9,3.3,11.9,11.5c0,5-3.7,8.5-9.9,8.5
			c-6.4,0-8.9-4.3-9.7-6.4l5.9-2.7c0.8,1.5,2.3,3,4.2,3c1.7,0,2.5-0.7,2.5-1.8c0-3.5-11.7-3.3-11.7-11.9c0-4.8,3.7-8,9.4-8
			C261.4,27.3,263.7,31.4,264.6,33.4z"/>
		<path d="M273.1,30.6h-7.7v-2.8H284v2.8h-7.5v24.1h-3.3V30.6z"/>
		<path d="M298.2,27.3c8.2,0,14.4,6.2,14.4,14s-6.2,14-14.5,14c-8.2,0-14.4-6-14.4-14C283.8,33.3,290,27.3,298.2,27.3z M298.2,52.3
			c6.2,0,11-4.7,11-11c0-6.4-4.8-11-11-11s-11,4.7-11,11S292,52.3,298.2,52.3z"/>
		<path d="M320.4,42.1l-8.7-14.4h3.7l6.7,11.4l6.7-11.4h3.7l-8.7,14.4v12.7h-3.2V42.1H320.4z"/>
		<path d="M335.3,48.2c0.8,2,2.5,4.2,6.2,4.2c3,0,5.2-1.7,5.2-4.5c0-6.7-13.2-5-13.2-13.7c0-3.8,3-6.9,8-6.9c5,0,7.4,3.3,8,5.2
			l-2.7,1c-0.7-1.3-2.2-3.3-5.4-3.3c-3.2,0-4.8,1.8-4.8,4c0,6.2,13.4,4.8,13.4,13.5c0,4.2-3.3,7.5-8.5,7.5c-5.5,0-8-3.3-8.9-5.9
			L335.3,48.2z"/>
	</g>
	<g>
		<path d="M66.4,5c1.7,0,3.2,0.8,4,2.3l18.9,32.1c0.8,1.5,0.8,3.3,0,4.8L70.4,76.2c-0.8,1.5-2.3,2.3-4,2.3H28.6
			c-1.7,0-3.2-0.8-4-2.3L5.7,44.1c-0.8-1.5-0.8-3.3,0-4.8L24.5,7.4C25.3,5.9,27,5,28.6,5H66.4 M66.4,0H28.6c-3.5,0-6.7,1.8-8.4,4.8
			L1.4,37c-1.8,3-1.8,6.9,0,9.9l18.9,32.1c1.7,3,5,4.8,8.4,4.8h37.8c3.5,0,6.7-1.8,8.4-4.8l18.9-32.3c1.8-3,1.8-6.9,0-9.9L74.8,4.8
			C73.1,1.8,69.9,0,66.4,0L66.4,0z"/>
		<path d="M46,30.9c0-1.3,1-2.3,2.7-2.3c3.3,0,4.7,2.5,5.7,4.5l11.7-5.4c-1.3-3.8-5.5-12-17.1-12c-10.2,0.2-17.2,6-17.2,15.5
			C31.8,47.2,52,47.3,52,52.3c0,1.3-1,2.2-3.2,2.2c-2.5,0-5.4-2.3-6.9-4.8l-11.9,5.9c1.3,3.5,6.5,12,18.2,12
			c11.5,0,17.9-6.7,17.9-16.2C66.4,36.1,46,36.5,46,30.9z"/>
	</g>
</g>
</svg>
