<?xml version="1.0" encoding="utf-8"?>
<!-- Generator: Adobe Illustrator 22.0.1, SVG Export Plug-In . SVG Version: 6.00 Build 0)  -->
<svg version="1.1" id="Calque_1" xmlns="http://www.w3.org/2000/svg" xmlns:xlink="http://www.w3.org/1999/xlink" x="0px" y="0px"
	 viewBox="0 0 26 25.4" style="enable-background:new 0 0 26 25.4;" xml:space="preserve">
<path id="github" d="M13,0C5.8,0,0,5.8,0,13c0,5.7,3.7,10.6,9,12.3c0.7,0.1,0.9-0.3,0.9-0.6s0-1.1,0-2.3c-3.7,0.8-4.4-1.7-4.4-1.7
	C4.9,19.2,4,18.8,4,18.8c-1.3-0.7,0-0.7,0-0.7c1.3,0.1,2,1.3,2,1.3c1.1,2,3,1.4,3.8,1c0.1-0.9,0.4-1.4,0.9-1.7
	c-2.9-0.4-5.9-1.5-5.9-6.4c0-1.4,0.5-2.6,1.3-3.5C5.9,8.4,5.5,7.1,6.2,5.3c0,0,1.1-0.3,3.6,1.3c1-0.3,2.2-0.4,3.3-0.4
	s2.3,0.2,3.3,0.4C18.9,4.9,20,5.3,20,5.3c0.7,1.8,0.3,3.1,0.1,3.5c0.9,0.9,1.3,2.1,1.3,3.5c0,5-3,6.1-5.9,6.4
	c0.4,0.4,0.9,1.2,0.9,2.4c0,1.7,0,3.1,0,3.6c0,0.4,0.3,0.8,0.9,0.6C22.4,23.6,26,18.7,26,13C26.1,5.8,20.3,0,13,0z"/>
</svg>
