<?xml version="1.0" encoding="utf-8"?>
<!-- Generator: Adobe Illustrator 23.0.1, SVG Export Plug-In . SVG Version: 6.00 Build 0)  -->
<svg version="1.1" id="Calque_1" xmlns="http://www.w3.org/2000/svg" xmlns:xlink="http://www.w3.org/1999/xlink" x="0px" y="0px"
	 viewBox="0 0 49.6 109.69" style="enable-background:new 0 0 49.6 109.69;" xml:space="preserve">
<path id="gulp" d="M24.57,86.55c-6.42,0-11.41-0.99-13.77-1.54c-1.65-0.38-2.96-0.82-3.95-1.21l3.18,5.43l1.26,17
	c0,1.92,6.03,3.46,13.55,3.46c7.46,0,13.55-1.54,13.55-3.46l0.99-17.17l3.02-5.27c-0.99,0.44-2.3,0.82-4,1.26
	C35.98,85.61,31.04,86.55,24.57,86.55z M42.45,31.2c-4.72,0.66-10.97,1.04-17.61,1.04S11.96,31.86,7.24,31.2
	c-2.36-0.33-4.17-0.71-5.48-1.15c-0.33-0.11-0.82-0.27-1.37-0.55l2.91,26.88c0.11-0.44,0.27-0.93,0.44-1.37
	c0.33-0.93,0.71-1.86,1.21-2.8c0.44-0.88,0.93-1.76,1.48-2.58c0.55-0.82,1.1-1.54,1.7-2.19c0.6-0.66,1.21-1.26,1.86-1.76
	c0.6-0.49,1.26-0.88,1.92-1.15c0.66-0.27,1.26-0.38,1.92-0.38c0.71,0,1.43,0.22,2.08,0.6c0.66,0.38,1.32,1.04,1.92,1.92
	c0.11,0.22,0.22,0.38,0.27,0.6c0.05,0.22,0.05,0.38,0.05,0.55c0,0.44-0.11,0.77-0.33,0.99c-0.22,0.22-0.44,0.38-0.71,0.38
	c-0.27,0-0.49-0.11-0.71-0.38c-0.22-0.27-0.44-0.66-0.71-1.15c-0.27-0.44-0.55-0.77-0.82-0.99c-0.33-0.22-0.66-0.33-0.99-0.33
	c-0.55,0-1.15,0.22-1.81,0.71c-0.66,0.44-1.26,1.1-1.86,1.81C9.6,49.63,9,50.51,8.39,51.5c-0.55,0.99-1.1,1.97-1.54,3.02
	c-0.44,1.04-0.77,2.03-1.04,3.02c-0.27,0.99-0.38,1.86-0.38,2.69c0,0.27,0,0.55,0.05,0.82c0.05,0.27,0.11,0.55,0.22,0.77
	c0.11,0.22,0.22,0.44,0.38,0.55c0.16,0.16,0.38,0.22,0.66,0.22s0.6-0.11,0.99-0.27c0.38-0.22,0.77-0.44,1.15-0.77
	c0.38-0.33,0.82-0.66,1.21-1.1c0.38-0.38,0.77-0.82,1.15-1.21c0.33-0.44,0.66-0.82,0.93-1.21c0.27-0.38,0.49-0.71,0.6-0.99l1.1-3.35
	c0.11-0.38,0.33-0.6,0.55-0.77c0.22-0.16,0.44-0.22,0.66-0.22c0.11,0,0.22,0,0.33,0.05c0.11,0.05,0.22,0.11,0.27,0.16
	c0.11,0.05,0.16,0.16,0.22,0.33c0.05,0.11,0.05,0.27,0.05,0.44c0,0.44-0.05,0.88-0.11,1.26c-0.05,0.38-0.16,0.77-0.33,1.15
	c-0.11,0.38-0.27,0.77-0.44,1.15c-0.16,0.38-0.27,0.77-0.44,1.21c-0.05,0.05-0.11,0.22-0.16,0.44c-0.11,0.27-0.16,0.55-0.33,0.93
	c-0.11,0.38-0.27,0.82-0.38,1.26c-0.16,0.49-0.27,0.93-0.44,1.43c-0.16,0.49-0.27,0.99-0.44,1.43c-0.11,0.49-0.27,0.88-0.38,1.26
	c-0.11,0.38-0.22,0.71-0.27,0.93c-0.05,0.27-0.11,0.38-0.11,0.44c-0.05,0.16-0.11,0.33-0.16,0.49c-0.05,0.16-0.16,0.38-0.33,0.55
	c-0.16,0.16-0.27,0.33-0.38,0.38c-0.16,0.11-0.27,0.16-0.44,0.16c-0.27,0-0.44-0.11-0.55-0.27c-0.11-0.16-0.16-0.49-0.16-0.93v-0.44
	c0-0.16,0.05-0.44,0.16-0.88c0.11-0.44,0.22-0.88,0.38-1.43c0.16-0.55,0.33-1.04,0.49-1.65c0.16-0.55,0.33-1.04,0.49-1.54
	c-0.44,0.49-0.88,0.93-1.37,1.43c-0.49,0.49-0.99,0.88-1.54,1.26c-0.49,0.38-1.04,0.66-1.59,0.93c-0.55,0.22-1.04,0.33-1.54,0.33
	c-0.55,0-1.04-0.11-1.43-0.38C4.11,64.55,4,64.5,3.95,64.44L5.59,81.5c0.44,1.04,8.39,3.67,18.92,3.67S43,82.54,43.44,81.5
	l2.36-20.29c-0.22,0.16-0.38,0.33-0.55,0.49c-0.66,0.6-1.32,1.15-1.92,1.59c-0.6,0.44-1.15,0.82-1.76,1.04
	c-0.55,0.22-1.15,0.38-1.81,0.38c-0.6,0-1.1-0.11-1.43-0.38c-0.33-0.27-0.49-0.6-0.49-1.1v-0.11c0-0.05,0-0.05,0-0.11
	c0.05-0.27,0.16-0.6,0.38-0.99c0.22-0.38,0.49-0.77,0.77-1.15c0.33-0.38,0.6-0.82,0.99-1.21c0.33-0.38,0.66-0.77,0.93-1.15
	c0.27-0.38,0.55-0.71,0.71-0.99c0.22-0.33,0.27-0.55,0.27-0.71c0-0.11-0.05-0.22-0.11-0.27c-0.05-0.05-0.22-0.11-0.38-0.11
	c-0.33,0-0.66,0.11-0.99,0.27c-0.33,0.16-0.66,0.38-0.99,0.66c-0.33,0.27-0.66,0.6-0.99,0.93c-0.33,0.38-0.6,0.71-0.88,1.1
	c-0.27,0.38-0.55,0.77-0.77,1.15c-0.22,0.38-0.44,0.77-0.6,1.1c-0.05,0.11-0.11,0.27-0.22,0.44c-0.11,0.16-0.16,0.38-0.27,0.66
	c-0.11,0.22-0.22,0.49-0.33,0.71c-0.11,0.27-0.22,0.49-0.33,0.71c-0.11,0.22-0.16,0.44-0.27,0.6c-0.05,0.16-0.11,0.27-0.16,0.38
	c-0.05,0.11-0.11,0.22-0.22,0.49c-0.11,0.22-0.22,0.49-0.33,0.82c-0.11,0.33-0.22,0.66-0.38,0.99c-0.11,0.33-0.27,0.66-0.38,0.99
	c-0.11,0.33-0.22,0.6-0.33,0.82c-0.11,0.22-0.16,0.38-0.16,0.49c-0.05,0.22-0.16,0.49-0.27,0.71c-0.11,0.22-0.22,0.38-0.38,0.55
	c-0.16,0.16-0.27,0.27-0.49,0.38c-0.16,0.11-0.38,0.16-0.6,0.16c-0.27,0-0.55-0.05-0.71-0.22s-0.27-0.38-0.27-0.77
	c0-0.16,0-0.38,0.05-0.6c0.05-0.22,0.11-0.38,0.16-0.6c0.05-0.22,0.16-0.38,0.22-0.55c0.05-0.16,0.16-0.38,0.22-0.55
	c0.44-0.93,0.88-1.86,1.32-2.85c0.44-0.93,0.88-1.86,1.26-2.8c0.11-0.22,0.16-0.38,0.27-0.6l-0.05,0.05
	c-0.49,0.49-1.04,0.93-1.54,1.32c-0.49,0.38-1.04,0.71-1.54,0.93c-0.49,0.22-0.99,0.33-1.48,0.33c-0.33,0-0.6-0.05-0.82-0.16
	c-0.22-0.11-0.38-0.22-0.55-0.44c-0.11-0.16-0.22-0.38-0.27-0.66c0-0.11-0.05-0.16-0.05-0.27c-0.16,0.11-0.27,0.22-0.44,0.33
	c-0.49,0.33-0.99,0.6-1.48,0.82c-0.49,0.22-0.93,0.33-1.32,0.33c-0.38,0-0.71-0.11-0.93-0.38c-0.22-0.27-0.38-0.71-0.38-1.32
	c0-0.44,0.05-0.93,0.16-1.54c-0.22,0.38-0.49,0.77-0.77,1.1c-0.33,0.38-0.66,0.71-1.04,1.04c-0.38,0.33-0.82,0.55-1.32,0.77
	c-0.49,0.22-1.04,0.27-1.59,0.27c-0.27,0-0.49-0.05-0.77-0.11c-0.22-0.05-0.44-0.16-0.66-0.33c-0.16-0.16-0.33-0.38-0.44-0.66
	c-0.11-0.27-0.16-0.6-0.16-0.99c0,0,0-0.16,0.05-0.44c0.05-0.27,0.11-0.71,0.33-1.32c0.16-0.6,0.44-1.37,0.77-2.36
	c0.38-0.93,0.88-2.08,1.54-3.46c0.16-0.38,0.38-0.6,0.6-0.77c0.22-0.16,0.44-0.22,0.71-0.22c0.11,0,0.22,0,0.33,0.05
	c0.11,0.05,0.22,0.11,0.33,0.16c0.11,0.05,0.16,0.16,0.27,0.27c0.05,0.11,0.11,0.22,0.11,0.38c0,0.11,0,0.16-0.05,0.27
	c-0.05,0.16-0.11,0.38-0.27,0.6c-0.11,0.27-0.27,0.55-0.44,0.88c-0.16,0.33-0.38,0.71-0.55,1.1c-0.22,0.38-0.38,0.77-0.55,1.21
	c-0.16,0.44-0.33,0.82-0.44,1.26c-0.11,0.44-0.16,0.82-0.22,1.26c0,0.16,0.05,0.33,0.11,0.49c0.05,0.16,0.22,0.22,0.38,0.22
	c0.49,0,0.99-0.16,1.48-0.49c0.49-0.33,0.88-0.77,1.32-1.26c0.38-0.49,0.77-1.04,1.1-1.65c0.33-0.6,0.6-1.1,0.82-1.59
	c0.16-0.33,0.27-0.66,0.38-1.04c0.11-0.38,0.22-0.71,0.38-1.04c0.11-0.33,0.27-0.55,0.49-0.77c0.16-0.22,0.38-0.33,0.66-0.33
	s0.49,0.11,0.66,0.33c0.16,0.22,0.27,0.49,0.27,0.77c0,0.16-0.05,0.38-0.16,0.71c-0.11,0.27-0.22,0.66-0.38,1.04
	s-0.33,0.77-0.55,1.21c-0.16,0.44-0.38,0.88-0.55,1.32c-0.16,0.44-0.27,0.88-0.38,1.32c-0.11,0.44-0.16,0.82-0.16,1.21
	c0,0.33,0.16,0.49,0.55,0.49c0.27,0,0.55-0.11,0.93-0.27c0.38-0.16,0.77-0.38,1.15-0.71c0.11-0.05,0.22-0.16,0.33-0.22
	c0.11-0.44,0.22-0.88,0.38-1.26c0.27-0.71,0.55-1.48,0.82-2.19c0.27-0.71,0.55-1.37,0.77-1.97l3.62-9.16
	c0.16-0.38,0.33-0.6,0.6-0.77c0.22-0.16,0.49-0.22,0.71-0.22c0.27,0,0.49,0.05,0.66,0.22c0.22,0.16,0.33,0.44,0.33,0.77
	c0,0.16-0.05,0.33-0.11,0.55c-0.05,0.16-0.16,0.38-0.27,0.6c-0.22,0.44-0.44,0.99-0.71,1.65c-0.27,0.66-0.55,1.32-0.88,2.08
	c-0.33,0.77-0.66,1.54-0.99,2.36c-0.33,0.82-0.66,1.59-0.99,2.41c-0.33,0.77-0.6,1.54-0.88,2.19c-0.27,0.71-0.49,1.32-0.71,1.81
	c-0.11,0.22-0.16,0.49-0.27,0.77c-0.11,0.27-0.11,0.55-0.11,0.77c0,0.16,0,0.27,0.05,0.33c0.05,0.11,0.16,0.11,0.27,0.11
	c0.16,0,0.38-0.05,0.6-0.16c0.27-0.11,0.55-0.27,0.82-0.49c0.27-0.22,0.6-0.44,0.93-0.66c0.33-0.27,0.6-0.49,0.93-0.77
	c0.33-0.27,0.6-0.55,0.88-0.82s0.55-0.49,0.77-0.77c0.05-0.05,0.11-0.11,0.16-0.11c0.11-0.38,0.27-0.82,0.38-1.21
	c0.05-0.16,0.16-0.38,0.27-0.71c0.11-0.33,0.22-0.6,0.38-0.93c0.16-0.33,0.33-0.55,0.49-0.77c0.16-0.22,0.38-0.33,0.6-0.33
	c0.33,0,0.55,0.05,0.71,0.22c0.16,0.16,0.22,0.38,0.22,0.66v0.27c0,0.11-0.05,0.27-0.05,0.38c0,0.11-0.05,0.27-0.05,0.38
	c-0.05,0.11-0.05,0.22-0.05,0.27c0.27-0.33,0.6-0.66,0.93-0.93c0.33-0.33,0.71-0.6,1.04-0.88c0.38-0.27,0.77-0.44,1.15-0.6
	c0.38-0.16,0.77-0.22,1.15-0.22c0.27,0,0.55,0.05,0.77,0.11c0.27,0.05,0.49,0.16,0.71,0.33c0.22,0.16,0.38,0.33,0.49,0.55
	c0.11,0.22,0.16,0.49,0.16,0.77c0,0.38-0.11,0.82-0.27,1.26c-0.22,0.44-0.44,0.88-0.71,1.32c-0.27,0.44-0.6,0.88-0.93,1.32
	c-0.33,0.44-0.66,0.82-0.99,1.15c-0.27,0.33-0.55,0.66-0.77,0.88c-0.22,0.22-0.33,0.38-0.33,0.49s0.05,0.22,0.11,0.27
	c0.05,0.05,0.16,0.11,0.38,0.11c0.11,0,0.33-0.05,0.6-0.22c0.27-0.16,0.66-0.44,1.1-0.77c0.49-0.38,1.1-0.88,1.81-1.48
	c0.49-0.44,1.1-0.93,1.76-1.54l3.18-29.29c-0.49,0.27-1.04,0.44-1.37,0.55C46.62,30.55,44.81,30.93,42.45,31.2z M35.05,24.6
	l2.14-8.75l12.34-13c0.27-0.27-0.27-1.21-1.15-1.97C47.5,0.1,46.57-0.17,46.24,0.1L33.13,13.93l-2.7,10.46
	c-1.81-0.06-3.69-0.09-5.63-0.09C11.13,24.29,0,25.83,0,27.69c0,1.86,11.08,3.4,24.79,3.4s24.79-1.54,24.79-3.4
	C49.58,26.33,43.63,25.14,35.05,24.6z M31.76,29.5c-1.65,0-2.96-0.38-2.96-0.82c0-0.19,0.25-0.36,0.65-0.5l-0.04,0.17v0.05
	c0,0.27,1.04,0.49,2.36,0.49c1.32,0,2.36-0.22,2.36-0.49l0.04-0.18c0.35,0.13,0.56,0.28,0.56,0.46C34.72,29.12,33.4,29.5,31.76,29.5
	z"/>
</svg>
