<?xml version="1.0" encoding="utf-8"?>
<!-- Generator: Adobe Illustrator 23.0.1, SVG Export Plug-In . SVG Version: 6.00 Build 0)  -->
<svg version="1.1" id="Calque_1" xmlns="http://www.w3.org/2000/svg" xmlns:xlink="http://www.w3.org/1999/xlink" x="0px" y="0px"
	 viewBox="0 0 70 98.77" style="enable-background:new 0 0 70 98.77;" xml:space="preserve">
<style type="text/css">
	.st0{fill:#F0EFEF;}
</style>
<g id="html">
	<g>
		<g>
			<path d="M0.01,19.51l6.41,71.23l28.52,8.02l28.64-7.9L70,19.51H0.01z M56.67,36.3l-0.37,4.44l-0.25,1.98H34.94H22.59l0.74,9.01
				h11.6h18.02h2.35l-0.25,2.35l-1.98,23.09l-0.12,1.48l-17.9,4.94l-17.9-4.94l-1.23-13.83h3.83h4.69l0.62,6.91l9.75,2.59l9.75-2.59
				l0.99-11.36H34.69H15.43l-2.22-24.2l-0.25-2.35h21.98h21.98L56.67,36.3z M0,19.51h0.01L0,19.38V19.51z M63.58,8.89h-6.3V0h-4.44
				v13.33h10.74V8.89z M10.99,8.89h4.07v4.44h4.44V0h-4.44v4.44h-4.07V0H6.54v13.33h4.44V8.89z M40,6.79l3.09,4.69h0.12l2.96-4.82
				v6.67h4.44V0h-4.57l-2.84,4.69L40.37,0h-4.69v13.46H40V6.79z M25.31,13.33h4.44V4.44h3.95V0H21.36v4.44h3.95V13.33z"/>
		</g>
	</g>
	<path class="st0" d="M34.94,25.19v8.89h21.98l-0.25,2.22l-0.37,4.44l-0.25,1.98H34.94v9.01h20.37l-0.25,2.35l-1.98,23.09
		l-0.12,1.48l-18.02,4.94v9.14l23.21-6.42l5.43-61.11H34.94z M45.68,60.49H34.94v13.95l9.75-2.59L45.68,60.49z"/>
</g>
</svg>
