<?xml version="1.0" encoding="utf-8"?>
<!-- Generator: Adobe Illustrator 23.0.1, SVG Export Plug-In . SVG Version: 6.00 Build 0)  -->
<svg version="1.1" id="Calque_1" xmlns="http://www.w3.org/2000/svg" xmlns:xlink="http://www.w3.org/1999/xlink" x="0px" y="0px"
	 viewBox="0 0 82.1 80" style="enable-background:new 0 0 82.1 80;" xml:space="preserve">
<path id="illustrator" d="M0,0v80h82.1V0H0z M78.6,76.5H3.4V3.4h75.2V76.5z M59.5,31.45h-5.4c-0.3,0-0.4,0.1-0.4,0.4v26.9
	c0,0.3,0.2,0.5,0.5,0.5h5.3c0.3,0,0.4-0.1,0.4-0.4v-27C59.9,31.55,59.8,31.45,59.5,31.45z M56.8,27.65c2.1,0,3.6-1.2,3.6-3.5
	c0-2.1-1.4-3.5-3.5-3.5c-2,0-3.5,1.3-3.5,3.5C53.4,26.35,54.8,27.55,56.8,27.65z M20.3,59.25h5c0.3,0,0.4,0,0.5-0.3l2.7-10.3v0.1h11
	l2.8,10.3c0,0.2,0.2,0.3,0.5,0.3h5.7c0.3,0,0.4-0.2,0.3-0.5l-10.9-36.9c-0.1-0.2-0.2-0.3-0.4-0.3h-7.2c-0.2,0-0.3,0.1-0.3,0.3
	c0,1.7-0.1,2.2-0.3,2.8l-9.7,34C19.9,59.15,20,59.25,20.3,59.25z M33.8,27.05h0.1c0.9,4,3.2,12.3,4.1,16.1h-8.2
	C31.3,37.85,33.1,31.05,33.8,27.05z"/>
</svg>
