<?xml version="1.0" encoding="utf-8"?>
<!-- Generator: Adobe Illustrator 23.0.1, SVG Export Plug-In . SVG Version: 6.00 Build 0)  -->
<svg version="1.1" id="Calque_1" xmlns="http://www.w3.org/2000/svg" xmlns:xlink="http://www.w3.org/1999/xlink" x="0px" y="0px"
	 viewBox="0 0 82.1 80" style="enable-background:new 0 0 82.1 80;" xml:space="preserve">
<path id="photoshop" d="M0.2,0C0,0,0,0.2,0,0.3V80h82.1V0H0.2z M78.7,76.5H3.5V3.8c0-0.1,0-0.3,0.1-0.4h75.1V76.5z M53,47.6
	c1.8,0.9,4.3,2,4.1,4.3c-0.1,0.9-0.9,1.6-1.7,1.9C52.2,55,48.3,53,46.1,52c0,2.1-0.1,3.7-0.1,5.9c7.1,3.4,17.4,1.7,17.2-6.9
	c-0.1-4.9-3.5-6.9-6.8-8.6c-1.7-0.9-4.8-1.7-4.4-4.3c0.1-0.9,0.8-1.5,1.4-1.8c2.8-1.3,6.5,0.7,8.5,1.1v-5.6c-7.4-3-16-0.3-16,7.1
	C45.9,43.9,49.6,45.9,53,47.6z M26.1,58.9c0,0,0-8.8,0-13.5c5.9,0.2,10.4-0.6,13.5-3.6c4.9-4.6,3.8-15.5-1.8-18.9
	c-3.9-2.4-17.9-1.4-17.9-1.4L20,58.9H26.1z M26,27c0-0.2,0-0.3,0.1-0.4c4.2-0.2,8.2,0.2,9.7,3.1c1.3,2.6,0.7,6.9-1.2,8.5
	c-1.8,1.5-5.1,1.9-8.6,1.6V27z"/>
</svg>
