<?xml version="1.0" encoding="utf-8"?>
<!-- Generator: Adobe Illustrator 22.0.1, SVG Export Plug-In . SVG Version: 6.00 Build 0)  -->
<svg version="1.1" id="prestashop" xmlns="http://www.w3.org/2000/svg" xmlns:xlink="http://www.w3.org/1999/xlink" x="0px" y="0px"
	 viewBox="0 0 80 80" style="enable-background:new 0 0 80 80;" xml:space="preserve">
<g>
	<path style="fill:#777777;" d="M66.1,70.3C74.6,62.9,80,52.1,80,40C80,17.9,62.1,0,40,0S0,17.9,0,40c0,12.1,5.4,22.9,13.9,30.3
		c3.3-3.8,7.6-1,12.2-3C26.1,67.3,62.7,66.5,66.1,70.3z"/>
	<path style="fill:#525353;" d="M54.1,61.4l2.5,8.5h0.7c0.5,0,0.8,0.1,0.8,0.6c0,0.8,0,1.6,0.1,2.4c0.6,0.5,1.4,1.1,1.9,1.7
		c2.1-1.2,4.2-2.7,6-4.3C62.8,66.5,58.7,63.4,54.1,61.4 M45.5,66.7c2.1,0.4,4.4,1.4,6.3,2.2l-1.2-3.2C50.6,65.8,45.5,66.3,45.5,66.7
		z"/>
	<path style="fill:#010101;" d="M19.9,74.6c0.5,0.3,0.9,0.5,1.4,0.8c0.2-0.8,0.4-1.9,0.5-2.7C21.2,73.2,20.5,74,19.9,74.6
		 M51.4,68.6c-1.9-0.8-3.9-1.5-5.9-1.9c-1.8-0.4-3.7-0.5-5.5-0.5c-1.9,0-3.7,0.2-5.5,0.5c-2.1,0.4-4.2,1-6.1,1.9l-0.2,1.2h23.6
		L51.4,68.6"/>
	<path style="fill:#525353;" d="M21.8,72.9c0.1-0.7,0.1-1.4,0.1-2.2c0-0.5,0.3-0.7,0.8-0.7h0.7l2.5-8.5c-4.6,2.1-8.7,5.1-12.1,8.9
		c1.9,1.6,3.9,3.1,6,4.3C20.5,74,21.1,73.5,21.8,72.9"/>
	<path style="fill:#010101;" d="M58.6,75.3c0.1,0,1-0.5,1.5-0.7c-0.6-0.7-1.1-1.1-1.8-1.7C58.3,72.9,58.4,74.3,58.6,75.3z"/>
	<path style="fill:#909393;" d="M51.4,68.6l0.4,1.2h4.8l-1.9-6.1c-0.6-0.3-4.2,1.9-4.2,1.9L51.4,68.6"/>
	<path style="fill:#C4B6A1;" d="M23.4,71.6C23.5,71.5,23.5,71.5,23.4,71.6L23.4,71.6C23.5,71.5,23.5,71.5,23.4,71.6"/>
	<path style="fill:#AA9678;" d="M56.5,71.5L56.5,71.5L56.5,71.5L56.5,71.5"/>
	<path style="fill:#909393;" d="M56.5,71.4H40V80c6.1,0,12-1.4,17.2-3.9c-0.3-1.5-0.4-3.1-0.4-4.7C56.7,71.5,56.5,71.4,56.5,71.4"/>
	<path style="fill:#E2E2E2;" d="M40,71.4H23.4c-0.1,1.6-0.4,3.4-0.5,4.7C28,78.6,33.9,80,40,80V71.4C40,71.5,40,71.4,40,71.4
		L40,71.4"/>
	<path style="fill:#525353;" d="M51.5,64.1"/>
	<path style="fill:#AA9678;" d="M52.4,65.1L52.4,65.1L52.4,65.1c0,0-0.4-0.3-0.9-0.9C52,64.7,52.4,65.1,52.4,65.1"/>
	<path style="fill:#FFFFFF;" d="M64.6,28.9L64.6,28.9L64.6,28.9 M66.2,40.4L66.2,40.4L66.2,40.4"/>
	<path style="fill:#BBBCBD;" d="M66.2,40.4L66.2,40.4L66.2,40.4"/>
	<path style="fill:#676A6A;" d="M66.2,39.7C66.2,39.8,66.2,39.8,66.2,39.7C66.2,39.8,66.2,39.8,66.2,39.7L66.2,39.7
		c0,0.2,0,0.4,0,0.5v0.1l0,0l0,0v0.1c0,0.2,0,0.3,0,0.5l0,0l0,0l0,0c0,0.2-0.1,0.3-0.1,0.5l0,0l0,0l0,0l0,0l0,0l1-1.1L66,39.2l0,0
		C66.1,39.4,66.1,39.6,66.2,39.7"/>
	<path style="fill:#010101;" d="M66.2,41L66.2,41c0-0.2,0-0.4,0-0.5v-0.1v-0.1c0-0.2,0-0.3,0-0.5c0,0,0,0,0-0.1
		c0-0.2-0.1-0.3-0.1-0.5c0-0.1,0-0.1,0-0.2c-0.1-0.3-0.2-0.6-0.4-0.8c-0.1-0.1-0.1-0.2-0.2-0.3s-0.1-0.1-0.2-0.2c0,0-0.1,0-0.1-0.1
		c-0.1-0.1-0.2-0.1-0.3-0.1c-0.1,0-0.2,0-0.3,0c-0.1,0-0.2,0-0.3,0c-0.1,0-0.2,0.1-0.3,0.1c0,0-0.1,0-0.1,0.1
		c-0.1,0.1-0.2,0.2-0.3,0.4c0,0,0,0.1-0.1,0.1c-0.2,0.2-0.3,0.5-0.4,0.8l0,0c0,0.1-0.1,0.3-0.1,0.5v0.1c0,0.2,0,0.4,0,0.5
		c0,0,0,0,0,0.1l0,0c0,1.5,0.7,2.8,1.6,2.8c0.2,0,0.3,0,0.4-0.1c0.1,0,0.2-0.1,0.2-0.1l0.1-0.1c0.1-0.1,0.1-0.1,0.2-0.2
		c0-0.1,0.1-0.1,0.1-0.2c0,0,0-0.1,0.1-0.1c0-0.1,0.1-0.2,0.1-0.3v-0.1c0-0.1,0.1-0.3,0.1-0.4C66.1,41.3,66.1,41.2,66.2,41L66.2,41z
		 M64.7,40c-0.3,0-0.6-0.5-0.6-1c0-0.6,0.3-1,0.6-1c0.3,0,0.6,0.5,0.6,1C65.3,39.5,65,40,64.7,40z"/>
	<path style="fill:#FFFFFF;" d="M64.7,37.9c-0.3,0-0.6,0.5-0.6,1c0,0.6,0.3,1,0.6,1c0.3,0,0.6-0.5,0.6-1
		C65.3,38.4,65,37.9,64.7,37.9"/>
	<path style="fill:#909393;" d="M63.2,39.1c0.1-0.3,0.2-0.6,0.4-0.8c0,0,0-0.1,0.1-0.1c0.1-0.1,0.2-0.3,0.3-0.4c0,0,0.1,0,0.1-0.1
		c0.1-0.1,0.2-0.1,0.3-0.1c0.1,0,0.2,0,0.3,0c0.1,0,0.2,0,0.3,0c0.1,0,0.2,0.1,0.3,0.1c0,0,0.1,0,0.1,0.1c0.1,0.1,0.1,0.1,0.2,0.2
		c0.1,0.1,0.1,0.2,0.2,0.3c0.2,0.2,0.3,0.5,0.4,0.8l0,0l-1.4-6.5L63.2,39.1L63.2,39.1"/>
	<path style="fill:#010101;" d="M45.7,40.3c0-0.1,0-0.3,0-0.4l0,0c0-0.1,0-0.2-0.1-0.4l0,0c0-0.1-0.1-0.2-0.1-0.4l0,0
		c0-0.1-0.1-0.2-0.1-0.3l0,0c-0.4-0.9-1.1-1.6-2-1.9l0,0c-0.2-0.1-0.4-0.2-0.7-0.2l0,0c-0.2,0-0.5-0.1-0.7-0.1s-0.5,0-0.7,0.1l0,0
		c-0.2,0-0.5,0.1-0.7,0.2l0,0c-0.2,0.1-0.4,0.2-0.6,0.3c-0.2,0.1-0.4,0.3-0.5,0.4l0,0l0,0c-0.3,0.3-0.5,0.6-0.7,0.9l0,0
		c-0.1,0.1-0.1,0.2-0.2,0.3l0,0c0,0.1-0.1,0.2-0.1,0.3c0,0,0,0,0,0.1s-0.1,0.2-0.1,0.3v0.1c0,0.1,0,0.2,0,0.3V40
		c0,0.4,0,0.8,0.1,1.1l0,0c0,0.2,0.1,0.5,0.2,0.7l0,0c0.2,0.4,0.4,0.8,0.8,1.2c0.3,0.3,0.6,0.5,0.9,0.7l0,0c0.1,0.1,0.2,0.1,0.3,0.2
		l0,0c0.1,0,0.2,0.1,0.3,0.1c0,0,0,0,0.1,0s0.2,0.1,0.3,0.1h0.1c0.1,0,0.2,0,0.3,0h0.1c0.9,0.1,1.8-0.1,2.5-0.6c0.4-0.3,0.7-0.6,1-1
		C45.5,41.8,45.7,41.1,45.7,40.3L45.7,40.3L45.7,40.3L45.7,40.3z M42,39.9c-0.8,0-1.4-0.6-1.4-1.4S41.2,37,42,37s1.4,0.6,1.4,1.4
		C43.4,39.2,42.7,39.9,42,39.9z"/>
	<path style="fill:#FFFFFF;" d="M42,37c-0.8,0-1.4,0.6-1.4,1.4c0,0.8,0.6,1.4,1.4,1.4l0,0c0.8,0,1.4-0.6,1.4-1.4
		C43.4,37.7,42.7,37,42,37"/>
	<path style="fill:#BBBCBD;" d="M39.4,37.6L39.4,37.6L39.4,37.6l2.6-8v-1.9l0,0c-1.5-0.3-3-0.5-4.5-0.5c-0.5,0-1,0-1.5,0.1
		c-0.1,0-0.1,0-0.2,0c-2.6,0.2-5.2,0.9-7.5,2c-2,0.9-3.9,2.2-5.6,3.6l0,0l0,0c-0.5,0.4-0.9,0.8-1.3,1.2c-0.1,0.1-0.2,0.2-0.2,0.2
		c-0.4,0.4-0.8,0.8-1.2,1.3c-0.1,0.1-0.2,0.2-0.2,0.3c-0.4,0.4-0.7,0.9-1.1,1.4l-0.1,0.1c-0.3,0.5-0.7,0.9-1,1.4
		c-0.1,0.1-0.1,0.2-0.2,0.3c-0.2,0.4-0.5,0.8-0.7,1.2h11.8L39.4,37.6"/>
	<path style="fill:#E2E2E2;" d="M49.3,36.7c0-0.3,0-0.6,0.1-0.9c0-0.4,0-0.8,0-1.3c0-0.3,0-0.7,0-1c0-0.1,0-0.2,0-0.3
		c0-0.8,0-1.7-0.1-2.5l0,0l0,0c-0.3-0.2-0.6-0.4-0.9-0.5l0,0l-0.2-0.1l0,0L48,30l0,0c0,0-0.1,0-0.1-0.1c-0.5-0.3-1.1-0.5-1.7-0.8
		C44.8,28.5,43,28,42,27.8v1.9l2.6,8l0,0c0.3,0.3,0.5,0.5,0.7,0.9l0,0c0.1,0.1,0.1,0.2,0.2,0.3l0,0c0,0.1,0.1,0.2,0.1,0.3l0,0
		c0,0.1,0.1,0.2,0.1,0.4l0,0c0,0.1,0,0.2,0.1,0.4l0,0c0,0.1,0,0.3,0,0.4l0,0H49C49.1,39.2,49.2,38,49.3,36.7
		C49.3,36.8,49.3,36.8,49.3,36.7"/>
	<path style="fill:#FCB03F;" d="M53.5,33.9L53.5,33.9L53.5,33.9"/>
	<path style="fill:#909393;" d="M39.4,37.6c0.2-0.2,0.4-0.3,0.5-0.4c0.2-0.1,0.4-0.2,0.6-0.3l0,0c0.2-0.1,0.4-0.2,0.7-0.2l0,0
		c0.2,0,0.5-0.1,0.7-0.1s0.5,0,0.7,0.1l0,0c0.2,0,0.5,0.1,0.7,0.2c0.4,0.2,0.8,0.4,1.2,0.8l0,0l-2.6-8L39.4,37.6"/>
	<path style="fill:#676A6A;" d="M38.5,41.8c-0.1-0.2-0.2-0.4-0.2-0.7l0,0c-0.1-0.4-0.1-0.7-0.1-1.1v-0.1c0-0.1,0-0.2,0-0.3v-0.1
		c0-0.1,0-0.2,0.1-0.3c0,0,0,0,0-0.1s0.1-0.2,0.1-0.3l0,0c0-0.1,0.1-0.2,0.2-0.3l0,0c0.2-0.3,0.4-0.6,0.7-0.9l-10.9,2.7l0,0L39.2,43
		C38.9,42.6,38.6,42.2,38.5,41.8L38.5,41.8"/>
	<path style="fill:#E2E2E2;" d="M63,39.7L63,39.7c0-0.3,0.1-0.4,0.1-0.6c0,0,0,0,0-0.1l1.4-6.5v-3.7c-1.2-1-2.4-1.5-3.7-1.5
		c-1.6,0-3.2,0.9-4.3,2c-1.3,1.2-2.2,2.8-3,4.3c0,0.1-0.1,0.1-0.1,0.2c0.2,0.2,0.5,0.4,0.7,0.6c0.5,0.5,1.1,1,1.6,1.5
		c0.2,0.2,0.5,0.5,0.7,0.7c0.3,0.3,0.5,0.5,0.7,0.8c0.5,0.5,0.9,1,1.3,1.4c0.4,0.4,0.7,0.8,1.1,1.3l0,0c0.1,0.1,0.1,0.1,0.1,0.1H63
		c0,0,0,0,0-0.1C63,40.1,63,39.9,63,39.7 M53.5,33.9L53.5,33.9L53.5,33.9L53.5,33.9L53.5,33.9"/>
	<path style="fill:#5B5B5B;" d="M14.7,44.4L14.7,44.4c0.5-1.2,1-2.3,1.5-3.3c0.1-0.2,0.2-0.3,0.3-0.5c0-0.1,0.1-0.2,0.2-0.3
		c0.2-0.4,0.5-0.8,0.7-1.2c0.1-0.1,0.1-0.2,0.2-0.3c0.3-0.5,0.6-0.9,1-1.4l0.1-0.1c0.4-0.5,0.7-0.9,1.1-1.4c0.1-0.1,0.2-0.2,0.2-0.3
		c0.4-0.4,0.8-0.8,1.2-1.3c0.1-0.1,0.2-0.2,0.2-0.2c0.4-0.4,0.9-0.8,1.3-1.2l0,0c1.8-6,7.6-9.7,14.1-9.7c2.6,0,5.2,0.8,7.5,2.1
		c2.3,1.4,3.9,2.8,5.1,5.2l0,0c0,0.1,0.1,0.1,0.1,0.2l0,0l0,0c1,0.6,2,1.3,2.9,2.1c0.3,0.3,0.6,0.5,0.9,0.8c0.1,0.1,0.2,0.2,0.3,0.3
		l0,0l0,0c0-0.1,0.1-0.1,0.1-0.2c0.9-5.8,3.8-8.9,6.8-8.9c2.3,0,3.9,1.4,5.2,5l0,0l0,0c0.4,0.4,0.7,0.8,1,1.3l0,0l0,0l0,0l0,0
		c0,0.1,0,0.1,0.1,0.2l0,0v-0.2C62.9,20,52.4,12,40.1,12C24.6,12,12,24.6,12,40.1c0,3.1,0.5,6,1.4,8.7l0,0
		C13.7,47.3,14.1,45.8,14.7,44.4"/>
	<path style="fill:#FFFFFF;" d="M67.1,40.4l-1,1.1l0,0l0,0c0,0.1-0.1,0.3-0.1,0.4V42c0,0.1-0.1,0.2-0.1,0.3c0,0,0,0.1-0.1,0.1
		c0,0.1-0.1,0.1-0.1,0.2c-0.1,0.1-0.1,0.2-0.2,0.2l-0.1,0.1c-0.2,0-0.3,0.1-0.4,0.1c-0.1,0.1-0.3,0.1-0.4,0.1
		c-0.9,0-1.6-1.2-1.6-2.8h-3.2l0,0c0.6,0.7,1.2,1.4,1.8,2.1c0.6,0.7,1.1,1.4,1.7,2.1l0.1,0.1c0.5,0.7,1,1.3,1.6,2l0.1,0.2
		c0.5,0.7,1.1,1.4,1.6,2.2c0.9-2.8,1.4-5.7,1.5-8.7h-0.9L67.1,40.4"/>
	<path style="fill:#010101;" d="M35.8,27.4c0.1,0,0.1,0,0.2,0c0.5,0,1-0.1,1.5-0.1c1.5,0,3,0.2,4.5,0.5l0,0c1,0.2,2.8,0.7,4.2,1.3
		c0.6,0.2,1.1,0.5,1.7,0.8L48,30l0,0c0.1,0,0.1,0.1,0.2,0.1l0,0l0.2,0.1l0,0c0.3,0.2,0.7,0.4,0.9,0.5l0,0l0,0c0-0.1-0.1-0.1-0.1-0.2
		l0,0c-1.2-2.4-3.1-4.4-5.4-5.8c-2.2-1.4-4.8-2.1-7.5-2.1c-6.5,0-12,4.4-13.8,10.4c1.7-1.5,3.6-2.7,5.6-3.6
		C30.6,28.3,33.2,27.6,35.8,27.4"/>
	<path style="fill:#BBBCBD;" d="M66.6,31.1L66.6,31.1L66.6,31.1L66.6,31.1L66.6,31.1c-0.3-0.5-0.7-0.9-1-1.3l0,0
		c-0.2-0.2-0.3-0.3-0.5-0.5c-0.1-0.1-0.1-0.1-0.2-0.2s-0.2-0.2-0.3-0.3v3.7L66,39l0,0c0,0.1,0,0.1,0,0.2l1,1.1l0,0h1
		c0-0.1,0-0.2,0-0.3l0,0c0-3-0.5-6-1.4-8.8l0,0C66.7,31.2,66.7,31.2,66.6,31.1"/>
	<path style="fill:#010101;" d="M56.6,29.4c1.1-1.1,2.7-2,4.3-2c1.3,0,2.5,0.5,3.7,1.5l0,0l0,0l0,0c0.1,0.1,0.2,0.2,0.3,0.3
		c0.1,0.1,0.1,0.1,0.2,0.2c0.2,0.2,0.3,0.3,0.5,0.5l0,0l0,0l0,0l0,0c-1.2-3.6-3.3-6-5.5-6c-3,0-5.6,4.2-6.5,10l0,0
		C54.4,32.1,55.3,30.6,56.6,29.4 M52.5,64.9c0,0-0.4-0.3-0.9-0.9c-0.2-0.3-0.5-0.6-0.7-0.9c-0.1-0.1-0.1-0.2-0.2-0.3
		c-0.2-0.3-0.3-0.7-0.5-1.1C50,61.3,50,61,49.9,60.6c-0.1-0.3-0.2-0.6-0.2-0.9c-0.1-0.5-0.1-1-0.1-1.5c0-0.3,0-0.6,0.1-0.9
		c0-0.3,0.1-0.6,0.2-0.9c0.2-0.9,0.6-1.9,1.2-2.9l0.2-0.3c0.2-0.3,0.2-0.3,0.4-0.6c2.7-4.5,4.1-7.9,3.4-13.2
		c-0.1-0.5-0.2-1.1-0.3-1.6c-0.1,0.4-0.1,0.8-0.2,1.2c0,0.1-0.1,0.3-0.1,0.3c-1.2,3.4-3,6-5.6,8.8c-0.4,0.4-0.7,0.8-1.1,1.2
		c-0.7,0.7-1.3,1.4-2,2.1c-0.3,0.3-0.6,0.6-0.9,0.9c-0.3,0.3-0.6,0.8-1,1.3c-0.2,0.7-0.5,1.5-0.8,2.3c-0.1,0-0.2-0.1-0.3-0.1
		c-5.1-2-8.5-4.6-8.5-4.6s2.6,3.4,7.1,6.7c0.4,0.3,0.8,0.6,1.3,0.8c-0.2,2.9,1.1,5.7,6.9,6.5c1,0.1,2,0.1,3,0h0.1
		C52.5,65.1,52.5,65,52.5,64.9"/>
	<path style="fill:#525353;" d="M49.4,57.5c5.1,0.8,12.7,0.7,20.6-3c0.2-0.1,0.4,0.1,0.6,0.1c0,0-5.4,5.5-11.8,8.6
		c-0.2,0.1-0.4,0.2-0.6,0.3c-0.6,0.3-1.3,0.5-1.9,0.8c-1.2,0.4-2.5,0.8-3.8,0.9c-0.1,0-0.1,0-0.2,0c0,0,0,0,0-0.1l0,0
		c0,0-0.4-0.3-0.9-0.9c-0.2-0.3-0.5-0.6-0.7-0.9c-0.3-0.4-0.5-0.9-0.8-1.3c-0.2-0.4-0.3-0.8-0.4-1.2c-0.2-0.8-0.3-1.6-0.3-2.4
		C49.3,58.1,49.3,57.8,49.4,57.5L49.4,57.5"/>
	<path style="fill:#BBBCBD;" d="M45.7,51.7c0.7-0.7,1.4-1.4,2-2.1c0.4-0.4,0.7-0.8,1.1-1.2c2.6-2.9,4.6-5.5,5.7-9
		c0-0.1,0.1-0.2,0.1-0.3V39c0-0.1,0.1-0.3,0.1-0.4c0-0.1,0.4-0.3,0.4-0.4c-0.3-1.5-1-3.1-1.7-4.3l0,0l0,0c-0.1-0.1-0.2-0.2-0.3-0.3
		c-0.3-0.3-0.6-0.5-0.9-0.8c-0.9-0.8-1.9-1.5-2.9-2.1c0.1,0.8,0.1,1.7,0.1,2.5c0,0.1,0,0.2,0,0.3c0,0.3,0,0.7,0,1c0,0.4,0,0.8,0,1.3
		c0,0.3,0,0.6-0.1,0.9v0.1c-0.1,1.2-0.2,2.3-0.5,3.5L48.4,42c-0.8,3.1-2.3,6-3.6,8.9c-0.3,0.8-0.7,1.6-1,2.4l-0.1,0.2
		c0.3-0.4,0.7-0.7,1-1.1C45.2,52.2,45.5,51.9,45.7,51.7"/>
	<path style="fill:#525353;" d="M28.8,68.5c1.9-0.8,3.6-1.4,5.7-1.8c-2.3-0.4-5.1-1.1-5.1-1.1l-1,3L28.8,68.5"/>
	<path style="fill:#909393;" d="M64.9,46.7c-0.5-0.7-1-1.3-1.6-2l-0.1-0.1c-0.6-0.7-1.1-1.4-1.7-2.1c-0.6-0.7-1.2-1.4-1.8-2.1
		l-0.1-0.1c-0.5-0.6-1-1.1-1.5-1.7c-0.3-0.3-0.6-0.7-0.9-1c-0.2-0.3-0.5-0.5-0.7-0.8c-0.2-0.2-0.5-0.5-0.7-0.7c-0.5-0.5-1-1-1.6-1.5
		c-0.2-0.2-0.5-0.4-0.7-0.6l0,0c0.5,1.5,1.1,2.9,1.4,4.5c0.1,0.4,0.1,0.8,0.2,1.2c0.7,5.3-1,8.7-3.7,13.2c-0.2,0.3-0.4,0.7-0.6,1
		c-0.6,1-1,2-1.2,2.9c-0.1,0.3-0.1,0.6-0.2,0.9c5.2,0.8,13.1,1,21.2-3c0,0-1.6-2.3-4-5.5c-0.5-0.7-1.1-1.4-1.6-2.1
		C65,46.8,64.9,46.7,64.9,46.7"/>
	<path style="fill:#909393;" d="M28.2,70l1.6-5.4c0,0-3.6-2.3-4.2-2L23.3,70h2.9H28.2"/>
	<path style="fill:#FFFFFF;" d="M30,66.2c0.3,0.1,0.5,0.2,0.8,0.3c3,1,6.1,1.6,9.3,1.6c3.6,0,7.1-0.7,10.5-2
		c0.2-0.1,0.3-0.1,0.5-0.2c0.3-0.1,0.5-0.2,0.8-0.4c0.2-0.1,0.5-0.2,0.7-0.3c-0.1,0-0.1,0-0.2,0c-1,0.1-2,0.1-3,0
		c-5.8-0.8-7.1-3.6-6.9-6.5c-0.4-0.3-0.9-0.5-1.3-0.8c-4.4-3.2-7.1-6.7-7.1-6.7s3.4,2.6,8.5,4.6c0.1,0,0.2,0.1,0.3,0.1
		c0.2-0.8,0.5-1.6,0.8-2.3l0.1-0.2c0.3-0.8,0.6-1.6,1-2.4c1.3-2.9,2.9-5.8,3.6-8.9l0.4-1.7h-3.2l0,0l0,0l0,0l0,0
		c0,0.8-0.2,1.5-0.6,2.1c-0.4,0.6-1,1.1-1.7,1.4c-0.6,0.2-1.2,0.3-1.9,0.3h-0.1c-0.1,0-0.2,0-0.3,0h-0.1c-0.1,0-0.2,0-0.3-0.1
		c0,0,0,0-0.1,0S40.3,44,40.2,44l0,0c-0.1,0-0.2-0.1-0.3-0.2l0,0c-0.3-0.2-0.6-0.4-0.9-0.7l-10.8-2.6H16.6c-0.1,0.1-0.1,0.2-0.2,0.3
		c-0.1,0.2-0.2,0.3-0.3,0.5c-0.3,0.5-0.6,1.1-0.8,1.7c-0.2,0.5-0.5,1.1-0.7,1.6v0.1c-0.5,1.4-1,2.9-1.3,4.3
		c1.9,5.7,5.5,10.5,10.2,14C25.9,64.6,28.8,65.8,30,66.2"/>
	<path style="fill:#676A6A;" d="M58.3,72.9c-0.1-0.8-0.1-1.5-0.1-2.3c0-0.5-0.4-0.8-0.8-0.8H22.6c-0.5,0-0.8,0.4-0.8,0.8
		c0,0.8,0,1.5-0.1,2.3s-0.2,1.6-0.4,2.4c0.5,0.3,1,0.5,1.5,0.8c0.3-1.5,0.5-3,0.6-4.6c0,0,0,0,0-0.1h33.1c0,0,0,0,0,0.1
		c0.1,1.5,0.3,3.1,0.6,4.6c0.6-0.3,1-0.5,1.5-0.8C58.5,74.6,58.4,73.7,58.3,72.9"/>
</g>
</svg>
