<?xml version="1.0" encoding="utf-8"?>
<!-- Generator: Adobe Illustrator 23.0.1, SVG Export Plug-In . SVG Version: 6.00 Build 0)  -->
<svg version="1.1" id="Calque_1" xmlns="http://www.w3.org/2000/svg" xmlns:xlink="http://www.w3.org/1999/xlink" x="0px" y="0px"
	 viewBox="0 0 106.89 79.94" style="enable-background:new 0 0 106.89 79.94;" xml:space="preserve">
<path id="sass_1_" d="M91.89,46.11c-3.7,0-6.9,0.9-9.7,2.2c-1-2-2-3.7-2.2-5c-0.2-1.5-0.4-2.4-0.2-4.2c0.2-1.8,1.3-4.3,1.3-4.5
	s-0.2-1.1-2.4-1.1c-2.1,0-4,0.4-4.2,1s-0.6,1.9-0.9,3.2c-0.4,2-4.3,8.9-6.5,12.5c-0.7-1.4-1.3-2.7-1.5-3.7c-0.2-1.5-0.4-2.4-0.2-4.2
	s1.3-4.3,1.3-4.5s-0.2-1.1-2.4-1.1c-2.1,0-4,0.4-4.2,1s-0.4,1.9-0.9,3.2c-0.4,1.3-5.7,12.9-7,15.9c-0.7,1.5-1.3,2.8-1.8,3.6l0,0
	c0,0,0,0.1-0.1,0.2c-0.4,0.7-0.6,1.1-0.6,1.1l0,0c-0.3,0.5-0.6,1-0.7,1c-0.1,0-0.3-1.4,0.1-3.3c0.8-4.1,2.6-10.3,2.6-10.5
	c0-0.1,0.4-1.2-1.2-1.8c-1.5-0.6-2.1,0.4-2.2,0.4c-0.1,0-0.2,0.3-0.2,0.3s1.8-7.1-3.1-7.1c-3.1,0-7.3,3.4-9.4,6.4
	c-1.3,0.7-4.2,2.2-7.1,3.9c-1.2,0.6-2.3,1.3-3.5,1.9c-0.1-0.1-0.2-0.2-0.2-0.3c-6-6.3-17-10.8-16.5-19.4
	c-0.1-3.2,0.9-11.4,20.9-21.3c16.4-8.1,29.4-5.9,31.7-0.9c3.3,7.1-7,20.3-24,22.2c-6.5,0.7-9.9-1.8-10.7-2.7c-0.9-1-1-1-1.4-0.9
	c-0.5,0.3-0.2,1.2,0,1.7c0.5,1.3,2.6,3.7,6.1,4.8c3.1,1,10.7,1.6,19.9-2c10.3-4,18.3-15,16-24.3c-2.4-9.4-18-12.5-32.8-7.3
	c-8.7,3.2-18.2,8.1-25,14.5c-8.1,7.6-9.4,14.2-8.9,17c1.9,9.8,15.4,16.2,20.9,20.9c-0.3,0.2-0.5,0.3-0.7,0.4
	c-2.7,1.3-13,6.7-15.6,12.4c-2.9,6.5,0.5,11.1,2.7,11.7c6.9,1.9,14.1-1.5,17.9-7.3c3.8-5.7,3.4-13.2,1.6-16.6c0-0.1-0.1-0.1-0.1-0.1
	c0.7-0.4,1.4-0.9,2.1-1.2c1.4-0.8,2.8-1.6,3.9-2.2c-0.6,1.8-1.2,4-1.4,7.1c-0.3,3.7,1.2,8.4,3.2,10.3c0.9,0.8,1.9,0.9,2.6,0.9
	c2.3,0,3.3-1.9,4.5-4.2c1.4-2.8,2.7-6,2.7-6s-1.7,8.9,2.7,8.9c1.5,0,3.1-2,3.8-3l0,0c0,0,0.1-0.1,0.1-0.2c0.2-0.3,0.3-0.4,0.3-0.4
	s0,0,0-0.1c0.6-1.1,2-3.6,4.1-7.7c2.7-5.3,5.3-12,5.3-12s0.2,1.6,1,4.3c0.5,1.6,1.4,3.3,2.2,5c-0.6,0.9-1,1.4-1,1.4l0,0
	c-0.5,0.6-1.1,1.4-1.7,2.1c-2.1,2.5-4.6,5.4-5,6.3c-0.4,1-0.3,1.7,0.5,2.3c0.6,0.4,1.6,0.5,2.6,0.4c1.9-0.2,3.3-0.6,3.9-0.9
	c1-0.4,2.2-1,3.4-1.8c2.1-1.5,3.4-3.7,3.3-6.7c-0.1-1.6-0.6-3.2-1.2-4.7c0.2-0.3,0.4-0.5,0.6-0.8c3.3-4.8,5.9-10.1,5.9-10.1
	s0.2,1.6,1,4.3c0.4,1.4,1.2,2.8,1.9,4.3c-3.1,2.5-5,5.4-5.7,7.4c-1.4,3.6-0.4,5.2,1.4,5.5c0.8,0.2,2-0.2,2.8-0.6
	c1.1-0.4,2.4-1,3.6-1.9c2.1-1.5,4.1-3.7,4-6.6c-0.1-1.3-0.4-2.6-0.9-3.9c2.6-1.1,6-1.7,10.4-1.2c9.3,1.1,11.1,6.9,10.8,9.3
	c-0.4,2.5-2.3,3.8-2.9,4.2c-0.6,0.4-0.9,0.5-0.8,0.9s0.4,0.4,1,0.3c0.7-0.2,4.9-2,5.1-6.5C106.99,52.31,101.49,46.01,91.89,46.11z
	 M20.29,70.21c-3.1,3.4-7.4,4.6-9.2,3.5c-2-1.2-1.2-6.1,2.6-9.7c2.3-2.2,5.3-4.2,7.3-5.4c0.4-0.3,1.1-0.6,1.9-1.2
	c0.2-0.1,0.2-0.1,0.2-0.1l0,0c0.2-0.1,0.3-0.2,0.5-0.3C24.89,62.21,23.49,66.71,20.29,70.21z M42.69,54.91c-1.1,2.6-3.3,9.3-4.7,8.9
	c-1.2-0.3-1.9-5.4-0.2-10.4c0.9-2.5,2.6-5.5,3.6-6.7c1.7-1.9,3.5-2.5,4-1.8C45.99,46.11,43.39,53.31,42.69,54.91z M61.19,63.81
	c-0.4,0.2-0.9,0.4-1.1,0.3c-0.2-0.1,0.2-0.4,0.2-0.4s2.3-2.5,3.3-3.6c0.5-0.6,1.2-1.4,1.8-2.3c0,0.1,0,0.2,0,0.3
	C65.39,61.01,62.49,63.01,61.19,63.81z M75.49,60.51c-0.3-0.2-0.3-1,0.9-3.5c0.4-1,1.4-2.6,3.2-4.1c0.2,0.6,0.3,1.2,0.3,1.8
	C79.79,58.61,77.09,59.91,75.49,60.51z"/>
</svg>
