<?xml version="1.0" encoding="utf-8"?>
<!-- Generator: Adobe Illustrator 22.0.1, SVG Export Plug-In . SVG Version: 6.00 Build 0)  -->
<svg version="1.1" id="Calque_1" xmlns="http://www.w3.org/2000/svg" xmlns:xlink="http://www.w3.org/1999/xlink" x="0px" y="0px"
	 viewBox="0 0 27.4 27.3" style="enable-background:new 0 0 27.4 27.3;" xml:space="preserve">
<path id="wordpress" d="M1.9,13.7c0,4.6,2.7,8.7,6.6,10.6L3,8.9C2.3,10.4,1.9,12,1.9,13.7z M21.6,13.1c0-1.4-0.5-2.5-1-3.2
	c-0.6-1-1.2-1.8-1.2-2.8c0-1.1,0.8-2.1,2-2.1c0.1,0,0.1,0,0.2,0c-2.1-1.9-4.9-3.1-7.9-3.1C9.6,1.9,6,4,3.9,7.2c0.3,0,0.5,0,0.8,0
	c1.2,0,3.1-0.1,3.1-0.1c0.6,0,0.7,0.9,0.1,1c0,0-0.6,0.1-1.3,0.1l4.3,12.7l2.6-7.7l-1.8-5c-0.6,0-1.2-0.1-1.2-0.1
	c-0.6,0-0.6-1,0.1-1c0,0,1.9,0.1,3.1,0.1s3.1-0.1,3.1-0.1c0.6,0,0.7,0.9,0.1,1c0,0-0.6,0.1-1.3,0.1l4.2,12.6l1.2-3.9
	C21.2,15.3,21.6,14.1,21.6,13.1L21.6,13.1z M13.9,14.7l-3.5,10.2c1.1,0.3,2.2,0.5,3.3,0.5c1.4,0,2.7-0.2,3.9-0.7
	c0-0.1-0.1-0.1-0.1-0.2L13.9,14.7L13.9,14.7z M24,8c0,0.4,0,0.8,0,1.3c0,1.2-0.2,2.5-0.9,4.2l-3.6,10.4c3.5-2,5.8-5.8,5.8-10.1
	C25.4,11.6,24.9,9.7,24,8L24,8z M13.7,0C6.1,0,0,6.1,0,13.7c0,7.5,6.1,13.7,13.7,13.7c7.5,0,13.7-6.1,13.7-13.7S21.2,0,13.7,0
	L13.7,0z M13.7,26.7c-7.2,0-13-5.9-13-13c0-7.2,5.9-13,13-13c7.2,0,13,5.9,13,13C26.7,20.9,20.9,26.7,13.7,26.7z"/>
</svg>
