<?xml version="1.0" encoding="utf-8"?>
<!-- Generator: Adobe Illustrator 23.0.1, SVG Export Plug-In . SVG Version: 6.00 Build 0)  -->
<svg version="1.1" id="Calque_1" xmlns="http://www.w3.org/2000/svg" xmlns:xlink="http://www.w3.org/1999/xlink" x="0px" y="0px"
	 viewBox="0 0 70 98.77" style="enable-background:new 0 0 70 98.77;" xml:space="preserve">
<style type="text/css">
	.st0{fill:#EFEFEF;}
</style>
<g id="css_1_">
	<g>
		<path d="M54.81,3.7h-5.8l6.05,6.54v3.09H42.59v-3.7h6.05l-6.05-6.54V0h12.22V3.7L54.81,3.7z M40.12,3.7h-5.8l6.05,6.54v3.09H27.9
			v-3.7h6.05L27.9,3.09V0h12.22V3.7L40.12,3.7z M25.68,3.83h-6.3v5.68h6.3v3.83H14.94V0h10.74V3.83z"/>
	</g>
	<path d="M0,19.38l6.42,71.36l28.52,8.02l28.64-7.9L70,19.51H0V19.38z M52.96,78.02l-17.9,4.94l0,0l0,0l-18.02-4.94L15.8,64.2h8.77
		l0.62,6.91l9.75,2.59l0,0l0,0l0-13.95h-9.75l0,0l-0.74-8.77h10.37l0,0l0-9.01l0,0H13.83l0,0l-0.74-8.64h21.98l0,0h21.98
		L52.96,78.02z"/>
	<g>
		<polygon class="st0" points="47.29,41.99 34.82,41.99 34.82,50.99 46.42,50.99 		"/>
		<g>
			<polygon class="st0" points="44.81,71.11 45.8,59.75 34.94,59.75 34.94,73.7 			"/>
			<polygon class="st0" points="34.94,25.06 34.94,33.33 56.9,33.33 52.96,77.9 34.94,82.93 34.94,92.59 58.15,86.17 63.58,25.06 
							"/>
		</g>
	</g>
</g>
</svg>
