<?xml version="1.0" encoding="utf-8"?>
<!-- Generator: Adobe Illustrator 22.0.1, SVG Export Plug-In . SVG Version: 6.00 Build 0)  -->
<svg version="1.1" id="Calque_1" xmlns="http://www.w3.org/2000/svg" xmlns:xlink="http://www.w3.org/1999/xlink" x="0px" y="0px"
	 viewBox="0 0 200 73" style="enable-background:new 0 0 200 73;" xml:space="preserve">
<g>
	<path d="M13.4,70.5c0,0.1,0,0.3-0.1,0.4c-0.3,0.4-0.7,0.7-1.2,0.9c-0.5,0.2-1,0.3-1.5,0.3c-1,0-1.8-0.3-2.4-1
		c-0.6-0.6-0.9-1.4-0.9-2.4s0.3-1.8,0.9-2.4s1.4-0.9,2.4-0.9c0.4,0,0.8,0.1,1.2,0.2s0.7,0.3,1,0.6c0.1,0.1,0.2,0.3,0.2,0.4
		s0,0.3-0.1,0.4s-0.2,0.2-0.4,0.2c-0.1,0-0.3,0-0.4-0.1c-0.5-0.4-0.9-0.5-1.4-0.5c-0.6,0-1.1,0.2-1.5,0.6s-0.6,1-0.6,1.6
		c0,0.7,0.2,1.2,0.6,1.7C9.5,70.8,10,71,10.7,71s1.2-0.2,1.6-0.6v-1H11c-0.1,0-0.3-0.1-0.4-0.2c-0.1-0.1-0.2-0.2-0.2-0.4
		c0-0.2,0.1-0.3,0.2-0.4c0.1-0.1,0.2-0.1,0.4-0.1h1.8c0.2,0,0.3,0.1,0.4,0.2c0.1,0.1,0.2,0.3,0.2,0.4V70.5z"/>
	<path d="M19.2,71.7l-0.6-1.2h-2.9l-0.6,1.2c0,0.2-0.1,0.3-0.3,0.3s-0.3-0.1-0.4-0.2c-0.1-0.1-0.2-0.2-0.2-0.4c0-0.1,0-0.2,0.1-0.2
		l2.5-5.5c0.1-0.2,0.3-0.3,0.5-0.3s0.4,0.1,0.5,0.3l2.5,5.5c0,0.1,0.1,0.2,0.1,0.2c0,0.1-0.1,0.3-0.2,0.4C20,72,19.9,72,19.7,72
		C19.5,72,19.4,71.9,19.2,71.7z M18.3,69.5l-1-2.5l-1,2.5H18.3z"/>
	<path d="M27.9,71.5c0,0.2-0.1,0.3-0.2,0.4C27.6,72,27.5,72,27.3,72s-0.3-0.1-0.4-0.2s-0.2-0.2-0.2-0.4v-3.2L25,71.7
		c0,0.2-0.2,0.3-0.4,0.3c-0.2,0-0.4-0.1-0.5-0.3l-1.7-3.5v3.2c0,0.1-0.1,0.3-0.2,0.4c0,0.2-0.1,0.2-0.3,0.2c-0.1,0-0.3-0.1-0.4-0.2
		s-0.2-0.2-0.2-0.4V66c0-0.2,0.1-0.3,0.2-0.4s0.2-0.2,0.4-0.2c0.2,0,0.4,0.1,0.5,0.3l2.2,4.5l2.2-4.5c0.1-0.2,0.3-0.3,0.5-0.3
		s0.3,0.1,0.4,0.2s0.2,0.2,0.2,0.4C27.9,66,27.9,71.5,27.9,71.5z"/>
	<path d="M34,71c0.1,0.1,0.2,0.2,0.2,0.4c0,0.2-0.1,0.3-0.2,0.4c-0.1,0.1-0.2,0.2-0.4,0.2H30c-0.2,0-0.3-0.1-0.4-0.2
		s-0.2-0.3-0.2-0.4v-5.3c0-0.2,0.1-0.3,0.2-0.4s0.3-0.2,0.4-0.2h3.5c0.2,0,0.3,0.1,0.4,0.2c0.1,0.1,0.2,0.2,0.2,0.4
		c0,0.2-0.1,0.3-0.2,0.4c-0.1,0.1-0.2,0.2-0.4,0.2h-2.9v1.5h1.6c0.1,0,0.3,0.1,0.4,0.2c0.1,0.1,0.2,0.2,0.2,0.4
		c0,0.2-0.1,0.3-0.2,0.4c-0.1,0.1-0.2,0.2-0.4,0.2h-1.6V71h3.1C33.8,70.9,33.9,70.9,34,71z"/>
	<path d="M40.8,69.6c0,0.1-0.1,0.3-0.2,0.3C40.5,70,40.4,70,40.2,70h-2c-0.1,0-0.3,0-0.4-0.1c-0.1-0.1-0.2-0.2-0.2-0.3
		c0-0.1,0.1-0.3,0.2-0.4c0.1-0.1,0.2-0.1,0.4-0.1h2c0.1,0,0.3,0,0.4,0.1C40.7,69.3,40.8,69.4,40.8,69.6z"/>
	<path d="M49.2,71.7l-0.6-1.2h-2.9l-0.6,1.2c0,0.2-0.1,0.3-0.3,0.3s-0.3-0.1-0.4-0.2c-0.1-0.1-0.2-0.2-0.2-0.4c0-0.1,0-0.2,0.1-0.2
		l2.5-5.5c0.1-0.2,0.3-0.3,0.5-0.3s0.4,0.1,0.5,0.3l2.5,5.5c0,0.1,0.1,0.2,0.1,0.2c0,0.1-0.1,0.3-0.2,0.4C50,72,49.9,72,49.7,72
		S49.3,71.9,49.2,71.7z M48.2,69.5l-1-2.5l-1,2.5H48.2z"/>
	<path d="M55.3,69.5V66c0-0.2,0.1-0.3,0.2-0.4c0.1-0.1,0.3-0.2,0.4-0.2c0.2,0,0.3,0.1,0.4,0.2c0.1,0.1,0.2,0.3,0.2,0.4v3.3
		c0,0.8-0.2,1.5-0.7,2s-1.2,0.7-2,0.7c-0.9,0-1.5-0.2-2-0.7s-0.7-1.1-0.7-2V66c0-0.2,0.1-0.3,0.2-0.4c0.1-0.1,0.3-0.2,0.4-0.2
		c0.2,0,0.3,0.1,0.4,0.2c0.1,0.1,0.2,0.3,0.2,0.4v3.4c0,0.5,0.1,0.8,0.4,1.1c0.3,0.3,0.7,0.4,1.2,0.4s0.9-0.1,1.2-0.4
		C55.2,70.3,55.3,70,55.3,69.5z"/>
	<path d="M62.7,66.4c0.6,0.6,0.9,1.4,0.9,2.3s-0.3,1.7-0.9,2.3c-0.6,0.6-1.4,0.9-2.3,0.9h-1.8c-0.2,0-0.3-0.1-0.4-0.2
		c-0.2,0-0.2-0.2-0.2-0.3v-5.3c0-0.2,0.1-0.3,0.2-0.4c0.1-0.1,0.3-0.2,0.4-0.2h1.8C61.3,65.5,62.1,65.8,62.7,66.4z M61.8,70.3
		c0.4-0.4,0.6-0.9,0.6-1.5s-0.2-1.2-0.6-1.5c-0.4-0.4-0.9-0.6-1.5-0.6h-1.1V71h1.1C60.9,70.9,61.4,70.7,61.8,70.3z"/>
	<path d="M65.9,71.4c0,0.2-0.1,0.3-0.2,0.4C65.6,72,65.5,72,65.3,72s-0.3-0.1-0.4-0.2s-0.2-0.3-0.2-0.4V66c0-0.2,0.1-0.3,0.2-0.4
		s0.3-0.2,0.4-0.2c0.2,0,0.3,0.1,0.4,0.2s0.2,0.3,0.2,0.4V71.4z"/>
	<path d="M72.8,66.4c0.6,0.6,1,1.4,1,2.4c0,0.9-0.3,1.7-1,2.4c-0.6,0.6-1.4,1-2.4,1c-0.9,0-1.7-0.3-2.4-1c-0.6-0.6-1-1.4-1-2.4
		c0-0.9,0.3-1.7,1-2.4c0.6-0.6,1.4-1,2.4-1S72.2,65.7,72.8,66.4z M72,70.4c0.4-0.4,0.6-1,0.6-1.6s-0.2-1.2-0.6-1.6s-0.9-0.7-1.5-0.7
		s-1.2,0.2-1.5,0.7c-0.4,0.4-0.6,1-0.6,1.6s0.2,1.2,0.6,1.6s0.9,0.7,1.5,0.7S71.6,70.8,72,70.4z"/>
	<path d="M80.1,66c0,0.1,0,0.1,0,0.2l-2.4,5.5c-0.1,0.2-0.3,0.3-0.5,0.3s-0.4-0.1-0.5-0.3l-2.4-5.5c0-0.1,0-0.2,0-0.2
		c0-0.1,0.1-0.3,0.2-0.4s0.2-0.2,0.4-0.2c0.3,0,0.4,0.1,0.5,0.3l1.9,4.5l1.9-4.5c0.1-0.2,0.3-0.3,0.5-0.3s0.3,0.1,0.4,0.2
		C80,65.7,80.1,65.9,80.1,66z"/>
	<path d="M82.3,71.4c0,0.2-0.1,0.3-0.2,0.4C82,72,81.8,72,81.7,72c-0.2,0-0.3-0.1-0.4-0.2s-0.2-0.3-0.2-0.4V66
		c0-0.2,0.1-0.3,0.2-0.4s0.3-0.2,0.4-0.2c0.2,0,0.3,0.1,0.4,0.2s0.2,0.3,0.2,0.4C82.3,66,82.3,71.4,82.3,71.4z"/>
	<path d="M88.7,70.2c0,0.6-0.2,1-0.7,1.4c-0.4,0.3-1.1,0.5-1.9,0.5c-0.4,0-0.8-0.1-1.2-0.2c-0.4-0.1-0.8-0.3-1-0.5s-0.3-0.4-0.3-0.6
		c0-0.1,0-0.3,0.1-0.4s0.2-0.1,0.4-0.1c0.1,0,0.2,0,0.3,0.1c0,0,0.1,0.1,0.2,0.1c0.1,0.1,0.2,0.1,0.2,0.1s0.1,0,0.2,0.1
		s0.2,0.1,0.2,0.1s0.1,0,0.2,0.1c0.1,0,0.2,0.1,0.2,0.1c0.1,0,0.2,0,0.3,0c0.1,0,0.2,0,0.3,0c0.4,0,0.8-0.1,1-0.2
		c0.2-0.2,0.3-0.3,0.3-0.6c0-0.2-0.1-0.4-0.3-0.6c-0.2-0.1-0.6-0.3-1.2-0.4c-0.9-0.2-1.4-0.5-1.8-0.8c-0.3-0.3-0.5-0.7-0.5-1.2
		c0-0.6,0.2-1,0.7-1.3s1.1-0.5,1.9-0.5c0.4,0,0.8,0.1,1.2,0.2c0.3,0.1,0.5,0.2,0.7,0.3c0.2,0.1,0.3,0.3,0.3,0.5c0,0.1,0,0.3-0.1,0.4
		S88.2,67,88,67c-0.1,0-0.2,0-0.2,0c-0.6-0.3-1.1-0.4-1.5-0.4c-0.9,0-1.4,0.2-1.4,0.7c0,0.2,0.1,0.4,0.3,0.5
		c0.2,0.1,0.6,0.3,1.2,0.5c0.4,0.1,0.7,0.2,0.9,0.3c0.2,0.1,0.5,0.2,0.7,0.4c0.2,0.2,0.4,0.3,0.5,0.6C88.6,69.6,88.7,69.9,88.7,70.2
		z"/>
	<path d="M94.1,69.5V66c0-0.2,0.1-0.3,0.2-0.4s0.3-0.2,0.4-0.2c0.2,0,0.3,0.1,0.4,0.2s0.2,0.3,0.2,0.4v3.3c0,0.8-0.2,1.5-0.7,2
		s-1.2,0.7-2,0.7c-0.9,0-1.5-0.2-2-0.7s-0.7-1.1-0.7-2V66c0-0.2,0.1-0.3,0.2-0.4s0.3-0.2,0.4-0.2c0.2,0,0.3,0.1,0.4,0.2
		s0.2,0.3,0.2,0.4v3.4c0,0.5,0.1,0.8,0.4,1.1c0.3,0.3,0.7,0.4,1.2,0.4s0.9-0.1,1.2-0.4C94,70.3,94.1,70,94.1,69.5z"/>
	<path d="M101,71.7l-0.6-1.2h-2.9l-0.6,1.2c-0.1,0.2-0.3,0.3-0.5,0.3s-0.3-0.1-0.4-0.2c0,0,0-0.2,0-0.3s0-0.2,0.1-0.2l2.5-5.5
		c0.1-0.2,0.3-0.3,0.5-0.3s0.4,0.1,0.5,0.3l2.5,5.5c0,0.1,0.1,0.2,0.1,0.2c0,0.1-0.1,0.3-0.2,0.4s-0.2,0.2-0.4,0.2
		C101.3,72,101.1,71.9,101,71.7z M100.1,69.5l-1-2.5l-1,2.5H100.1z"/>
	<path d="M107.2,72h-3.4c-0.2,0-0.3-0.1-0.4-0.2s-0.2-0.3-0.2-0.4V66c0-0.2,0.1-0.3,0.2-0.4s0.3-0.2,0.4-0.2c0.2,0,0.3,0.1,0.4,0.2
		s0.2,0.3,0.2,0.4v4.8h2.8c0.1,0,0.3,0.1,0.4,0.2s0.2,0.2,0.2,0.4c0,0.2-0.1,0.3-0.2,0.4C107.4,71.9,107.3,72,107.2,72z"/>
	<path d="M114.2,69.6c0,0.1-0.1,0.3-0.2,0.3s-0.2,0.1-0.4,0.1h-2c-0.1,0-0.3,0-0.4-0.1s-0.2-0.2-0.2-0.3c0-0.1,0.1-0.3,0.2-0.4
		s0.2-0.1,0.4-0.1h2c0.1,0,0.3,0,0.4,0.1C114.2,69.3,114.2,69.4,114.2,69.6z"/>
	<path d="M122.7,71.7l-0.6-1.2h-2.9l-0.6,1.2c-0.1,0.2-0.3,0.3-0.5,0.3s-0.3-0.1-0.4-0.2s-0.2-0.2-0.2-0.4c0-0.1,0-0.2,0.1-0.2
		l2.5-5.5c0.1-0.2,0.3-0.3,0.5-0.3s0.4,0.1,0.5,0.3l2.5,5.5c0,0.1,0.1,0.2,0.1,0.2c0,0.1-0.1,0.3-0.2,0.4s-0.2,0.2-0.4,0.2
		C123,72,122.8,71.9,122.7,71.7z M121.7,69.5l-1-2.5l-1,2.5H121.7z"/>
	<path d="M130.1,71.2c0,0.1,0.1,0.2,0.1,0.3c0,0.2-0.1,0.3-0.2,0.4c-0.1,0.1-0.3,0.2-0.4,0.2c-0.2,0-0.4-0.1-0.5-0.3l-1.1-2.3h-2
		v2.1c0,0.2-0.1,0.3-0.2,0.4s-0.3,0.2-0.4,0.2c-0.2,0-0.3-0.1-0.4-0.2s-0.2-0.3-0.2-0.4v-5.3c0-0.2,0.1-0.3,0.2-0.4s0.3-0.2,0.4-0.2
		h2.5c0.8,0,1.4,0.2,1.7,0.5c0.4,0.3,0.6,0.8,0.6,1.4c0,0.8-0.4,1.4-1.1,1.7L130.1,71.2z M129,67.5c0-0.2-0.1-0.4-0.2-0.6
		c-0.2-0.2-0.4-0.3-0.7-0.3H126v1.8h2.1c0.3,0,0.5-0.1,0.7-0.3C128.9,67.9,129,67.7,129,67.5z"/>
	<path d="M132.1,72.7c-0.1,0.2-0.2,0.3-0.5,0.3c-0.1,0-0.3,0-0.4-0.1c-0.1-0.1-0.1-0.2-0.1-0.4c0-0.1,0-0.1,0-0.2l2.4-7
		c0.1-0.2,0.2-0.3,0.5-0.3c0.2,0,0.3,0,0.4,0.1c0.1,0.1,0.1,0.2,0.1,0.4c0,0.1,0,0.1,0,0.2L132.1,72.7z"/>
	<path d="M141.2,66c0,0.1,0,0.1,0,0.2l-2.4,5.5c-0.1,0.2-0.3,0.3-0.5,0.3s-0.4-0.1-0.5-0.3l-2.4-5.5c0-0.1,0-0.2,0-0.2
		c0-0.1,0.1-0.3,0.2-0.4c0.1-0.1,0.2-0.2,0.4-0.2c0.3,0,0.4,0.1,0.5,0.3l1.9,4.5l1.9-4.5c0.1-0.2,0.3-0.3,0.5-0.3s0.3,0.1,0.4,0.2
		C141.1,65.7,141.2,65.9,141.2,66z"/>
	<path d="M147.5,71.2c0,0.1,0.1,0.2,0.1,0.3c0,0.2-0.1,0.3-0.2,0.4c-0.1,0.1-0.3,0.2-0.4,0.2c-0.2,0-0.4-0.1-0.5-0.3l-1.1-2.3h-2
		v2.1c0,0.2-0.1,0.3-0.2,0.4c-0.1,0.1-0.3,0.2-0.4,0.2c-0.2,0-0.3-0.1-0.4-0.2c-0.1-0.1-0.2-0.3-0.2-0.4v-5.3c0-0.2,0.1-0.3,0.2-0.4
		c0.1-0.1,0.3-0.2,0.4-0.2h2.5c0.8,0,1.4,0.2,1.7,0.5c0.4,0.3,0.6,0.8,0.6,1.4c0,0.8-0.4,1.4-1.1,1.7L147.5,71.2z M146.3,67.5
		c0-0.2-0.1-0.4-0.2-0.6c-0.2-0.2-0.4-0.3-0.7-0.3h-2.1v1.8h2.1c0.3,0,0.5-0.1,0.7-0.3C146.2,67.9,146.3,67.7,146.3,67.5z"/>
	<path d="M154.4,69.6c0,0.1-0.1,0.3-0.2,0.3S154,70,153.8,70h-2c-0.1,0-0.3,0-0.4-0.1s-0.2-0.2-0.2-0.3c0-0.1,0.1-0.3,0.2-0.4
		c0.1-0.1,0.2-0.1,0.4-0.1h2c0.1,0,0.3,0,0.4,0.1C154.3,69.3,154.4,69.4,154.4,69.6z"/>
	<path d="M163.1,66.4c0.6,0.6,0.9,1.4,0.9,2.3s-0.3,1.7-0.9,2.3c-0.6,0.6-1.4,0.9-2.3,0.9H159c-0.2,0-0.3-0.1-0.4-0.2
		c-0.1-0.1-0.2-0.3-0.2-0.4V66c0-0.2,0.1-0.3,0.2-0.4c0.1-0.1,0.3-0.2,0.4-0.2h1.8C161.8,65.5,162.6,65.8,163.1,66.4z M162.3,70.3
		c0.4-0.4,0.6-0.9,0.6-1.5s-0.2-1.2-0.6-1.5c-0.4-0.4-0.9-0.6-1.5-0.6h-1.1V71h1.1C161.4,70.9,161.9,70.7,162.3,70.3z"/>
	<path d="M169.8,71c0.1,0.1,0.2,0.2,0.2,0.4c0,0.2-0.1,0.3-0.2,0.4c-0.1,0.1-0.2,0.2-0.4,0.2h-3.6c-0.2,0-0.3-0.1-0.4-0.2
		c-0.1-0.1-0.2-0.3-0.2-0.4v-5.3c0-0.2,0.1-0.3,0.2-0.4c0.1-0.1,0.3-0.2,0.4-0.2h3.5c0.2,0,0.3,0.1,0.4,0.2c0.1,0.1,0.2,0.2,0.2,0.4
		c0,0.2-0.1,0.3-0.2,0.4c-0.1,0.1-0.2,0.2-0.4,0.2h-2.9v1.5h1.6c0.1,0,0.3,0.1,0.4,0.2c0.1,0.1,0.2,0.2,0.2,0.4
		c0,0.2-0.1,0.3-0.2,0.4c-0.1,0.1-0.2,0.2-0.4,0.2h-1.6V71h3.1C169.6,70.9,169.7,70.9,169.8,71z"/>
	<path d="M175.8,70.2c0,0.6-0.2,1-0.7,1.4c-0.4,0.3-1.1,0.5-1.9,0.5c-0.4,0-0.8-0.1-1.2-0.2s-0.8-0.3-1-0.5s-0.3-0.4-0.3-0.6
		c0-0.1,0-0.3,0.1-0.4s0.2-0.1,0.4-0.1c0.1,0,0.2,0,0.3,0.1c0,0,0.1,0.1,0.2,0.1c0.1,0.1,0.2,0.1,0.2,0.1s0.1,0,0.2,0.1
		c0.1,0.1,0.2,0.1,0.2,0.1s0.1,0,0.2,0.1c0.1,0,0.2,0.1,0.2,0.1c0.1,0,0.2,0,0.3,0s0.2,0,0.3,0c0.4,0,0.8-0.1,1-0.2
		c0.2-0.2,0.3-0.3,0.3-0.6c0-0.2-0.1-0.4-0.3-0.6c-0.2-0.1-0.6-0.3-1.2-0.4c-0.9-0.2-1.4-0.5-1.8-0.8c-0.3-0.3-0.5-0.7-0.5-1.2
		c0-0.6,0.2-1,0.7-1.3s1.1-0.5,1.9-0.5c0.4,0,0.8,0.1,1.2,0.2c0.3,0.1,0.5,0.2,0.7,0.3c0.2,0.1,0.3,0.3,0.3,0.5c0,0.1,0,0.3-0.1,0.4
		s-0.2,0.2-0.4,0.2c-0.1,0-0.2,0-0.2,0c-0.6-0.3-1.1-0.4-1.5-0.4c-0.9,0-1.4,0.2-1.4,0.7c0,0.2,0.1,0.4,0.3,0.5s0.6,0.3,1.2,0.5
		c0.4,0.1,0.7,0.2,0.9,0.3c0.2,0.1,0.5,0.2,0.7,0.4c0.2,0.2,0.4,0.3,0.5,0.6C175.7,69.6,175.8,69.9,175.8,70.2z"/>
	<path d="M178.2,71.4c0,0.2-0.1,0.3-0.2,0.4c-0.1,0.1-0.3,0.2-0.4,0.2c-0.2,0-0.3-0.1-0.4-0.2c-0.1-0.1-0.2-0.3-0.2-0.4V66
		c0-0.2,0.1-0.3,0.2-0.4c0.1-0.1,0.3-0.2,0.4-0.2c0.2,0,0.3,0.1,0.4,0.2c0.1,0.1,0.2,0.3,0.2,0.4V71.4z"/>
	<path d="M185.5,70.5c0,0.1,0,0.3-0.1,0.4c-0.3,0.4-0.7,0.7-1.2,0.9s-1,0.3-1.5,0.3c-1,0-1.8-0.3-2.4-1c-0.6-0.6-0.9-1.4-0.9-2.4
		s0.3-1.8,0.9-2.4c0.6-0.6,1.4-0.9,2.4-0.9c0.4,0,0.8,0.1,1.2,0.2s0.7,0.3,1,0.6c0.1,0.1,0.2,0.3,0.2,0.4s0,0.3-0.1,0.4
		s-0.2,0.2-0.4,0.2c-0.1,0-0.3,0-0.4-0.1c-0.5-0.4-0.9-0.5-1.4-0.5c-0.6,0-1.1,0.2-1.5,0.6s-0.6,1-0.6,1.6c0,0.7,0.2,1.2,0.6,1.7
		c0.4,0.4,0.9,0.6,1.6,0.6c0.7,0,1.2-0.2,1.6-0.6v-1H183c-0.1,0-0.3-0.1-0.4-0.2c-0.1-0.1-0.2-0.2-0.2-0.4c0-0.2,0.1-0.3,0.2-0.4
		c0.1-0.1,0.2-0.1,0.4-0.1h1.8c0.2,0,0.3,0.1,0.4,0.2c0.1,0.1,0.2,0.3,0.2,0.4v1.5H185.5z"/>
	<path d="M192.1,71.5c0,0.2-0.1,0.3-0.2,0.4c-0.1,0.1-0.2,0.2-0.4,0.2s-0.3-0.1-0.4-0.2l-3.3-4.2v3.9c0,0.2-0.1,0.3-0.2,0.4
		c-0.1,0.1-0.2,0.2-0.4,0.2c-0.1,0-0.3-0.1-0.4-0.2c-0.1-0.1-0.2-0.2-0.2-0.4V66c0-0.2,0.1-0.3,0.2-0.4c0.1-0.1,0.2-0.2,0.4-0.2
		s0.3,0.1,0.4,0.2l3.3,4.2V66c0-0.2,0.1-0.3,0.2-0.4c0.1-0.1,0.2-0.2,0.4-0.2s0.3,0.1,0.4,0.2c0.1,0.1,0.2,0.2,0.2,0.4V71.5z"/>
</g>
<g>
	<path d="M64.6,0.3h8.3c4.9,0,8.6,3.8,8.6,8.5s-3.7,8.5-8.6,8.5h-2.6v8h-5.7C64.6,25.3,64.6,0.3,64.6,0.3z M72.8,12
		c1.8,0,3.2-1.6,3.2-3.2c0-1.7-1.3-3.2-3.2-3.2h-2.5V12H72.8z"/>
	<rect x="122.1" y="0.3" width="5.7" height="25"/>
	<polygon points="132.5,0 132.5,25.3 138.2,25.3 138.2,12.2 154,25.6 154,0.3 148.3,0.3 148.3,13.3 	"/>
	<polygon points="158.7,0.3 174.3,0.3 174.3,5.8 164.4,5.8 164.4,10.1 172.2,10.1 172.2,15.5 164.4,15.5 164.4,19.7 174.3,19.7 
		174.3,25.3 158.7,25.3 	"/>
	<path d="M64.7,0.3H73c4.9,0,8.6,3.8,8.6,8.5s-3.7,8.5-8.6,8.5h-2.6v8h-5.7C64.7,25.3,64.7,0.3,64.7,0.3z M72.9,12
		c1.8,0,3.2-1.6,3.2-3.2c0-1.7-1.3-3.2-3.2-3.2h-2.5V12H72.9z"/>
	<polygon points="107.3,0 107.3,0.1 107.2,0 97.5,19.7 90,19.7 90,0.3 89.9,0.3 84.4,0.3 84.2,0.3 84.2,25.3 84.4,25.3 94.8,25.3 
		94.8,25.3 95,25.3 100.7,25.3 100.9,25.3 107.3,11.8 113.6,25.3 113.8,25.3 119.5,25.3 119.7,25.3 	"/>
	<rect x="122.3" y="0.3" width="5.7" height="25"/>
	<polygon points="132.7,0 132.7,25.3 138.3,25.3 138.3,12.2 154.1,25.6 154.1,0.3 148.5,0.3 148.5,13.3 	"/>
	<polygon points="158.9,0.3 174.4,0.3 174.4,5.8 164.5,5.8 164.5,10.1 172.3,10.1 172.3,15.5 164.5,15.5 164.5,19.7 174.4,19.7 
		174.4,25.3 158.9,25.3 	"/>
	<g>
		<rect x="87" y="30.6" width="5.5" height="24.3"/>
		<polygon points="97.1,30.4 109.2,42.5 121.4,30.4 121.4,55 115.9,55 115.9,43 109.2,49.7 102.6,43 102.6,55 97.1,55 		"/>
		<polygon points="129.2,55 123.4,55 135.4,30.4 147.4,55 141.7,55 135.4,41.7 		"/>
		<path d="M183.3,50.5l4.2-3.4c1.1,1.7,2.8,3,4.5,3c1.6,0,2.3-0.6,2.3-1.7c0-1.1-0.8-1.8-2.9-2.7l-1.4-0.6c-3.7-1.6-5.7-4.3-5.7-7.6
			c0-4.2,3.5-7,7.4-7c2.7,0,4.8,0.7,6.8,3l-3.7,3.9c-1.2-1.5-2-1.8-3.1-1.8c-0.9,0-1.9,0.6-1.9,1.7c0,1.3,1.1,2,3.3,2.9l1.3,0.6
			c3.4,1.5,5.3,3.9,5.3,7.3c0,4.4-3.2,7.2-7.8,7.2C188.2,55.2,185,53.6,183.3,50.5"/>
		<path d="M151.4,35.6c2.6,0,4.2,0.9,5.7,2.7l4.2-3.4c-2.4-2.9-5.7-4.6-9.9-4.6c-3.9,0-7.3,1.8-9.6,4.5l2.9,6
			C145.5,37.9,148.2,35.6,151.4,35.6"/>
		<path d="M152.6,40.2l-2.3,5.1h5.9v3.4c-1.2,0.9-2.7,1.2-4.7,1.2c-0.9,0-1.7-0.2-2.5-0.5l2.8,5.7c4-0.1,7.4-1.3,9.7-4v-11
			L152.6,40.2L152.6,40.2z"/>
		<rect x="165.5" y="40.1" width="14.7" height="5.1"/>
		<rect x="165.5" y="49.4" width="15.1" height="5.4"/>
		<rect x="165.5" y="30.5" width="15.1" height="5.4"/>
		<rect x="87.1" y="30.6" width="5.5" height="24.3"/>
		<polygon points="97.2,30.4 109.4,42.5 121.6,30.4 121.6,55 116.1,55 116.1,43 109.4,49.7 102.7,43 102.7,55 97.2,55 		"/>
		<polygon points="129.3,55 123.5,55 135.6,30.4 147.6,55 141.8,55 135.6,41.7 		"/>
		<path d="M183.5,50.5l4.2-3.4c1.1,1.7,2.8,3,4.5,3c1.6,0,2.3-0.6,2.3-1.7c0-1.1-0.8-1.8-2.9-2.7l-1.4-0.6c-3.7-1.6-5.7-4.3-5.7-7.6
			c0-4.2,3.5-7,7.4-7c2.7,0,4.8,0.7,6.8,3l-3.7,3.9c-1.2-1.5-2-1.8-3.1-1.8c-0.9,0-1.9,0.6-1.9,1.7c0,1.3,1.1,2,3.3,2.9l1.3,0.6
			c3.4,1.5,5.3,3.9,5.3,7.3c0,4.4-3.2,7.2-7.8,7.2C188.3,55.2,185.1,53.6,183.5,50.5"/>
		<path d="M151.6,35.6c2.6,0,4.2,0.9,5.7,2.7l4.2-3.4c-2.4-2.9-5.7-4.6-9.9-4.6c-3.9,0-7.3,1.8-9.6,4.5l2.9,6
			C145.7,37.9,148.3,35.6,151.6,35.6"/>
		<path d="M152.7,40.2l-2.3,5.1h5.9v3.4c-1.2,0.9-2.7,1.2-4.7,1.2c-0.9,0-1.7-0.2-2.5-0.5l2.8,5.7c4-0.1,7.4-1.3,9.7-4v-11
			L152.7,40.2L152.7,40.2z"/>
		<rect x="165.6" y="40.1" width="14.7" height="5.1"/>
		<rect x="165.6" y="49.4" width="15.1" height="5.4"/>
		<rect x="165.6" y="30.5" width="15.1" height="5.4"/>
	</g>
</g>
<path d="M47.9,41V14.2l0,0v-0.1c0,0,0,0,0-0.1v-0.1l0,0c0,0,0,0,0-0.1l-0.1-0.1l0,0L24.4,0.4l0,0c-0.1,0-0.1,0-0.2,0h-0.1H24h-0.1
	h-0.1c-0.1,0-0.2,0-0.2,0.1l0,0L0.3,13.7l0,0l0,0c0,0-0.1,0-0.1,0.1c0,0,0,0,0,0.1l0,0c0,0,0,0,0,0.1l0,0l0,0v0.1l0,0l0,0V41l0,0
	c0,0.1,0,0.1,0,0.2c0,0,0,0,0,0.1s0.1,0.1,0.2,0.2l0,0l23.3,13.4l0,0c0.1,0,0.1,0.1,0.2,0.1l0,0l0,0l0,0l0,0H24c0.1,0,0.1,0,0.2,0
	s0.2,0,0.3-0.1l23.3-13.4c0.1,0,0.1-0.1,0.2-0.2c0,0,0,0,0-0.1C47.9,41.1,47.9,41.1,47.9,41L47.9,41z M46.5,40.6l-11.6,6.7l-9.1,5.3
	l20.8-35.8L46.5,40.6L46.5,40.6z M1.8,14.7h44.3L24,53L1.8,14.7z M2.9,13.7L24,1.5l21,12.2H2.9z M22.2,52.6l-20.8-12V16.8L22.2,52.6
	z"/>
</svg>
