<?xml version="1.0" encoding="utf-8"?>
<!-- Generator: Adobe Illustrator 22.0.1, SVG Export Plug-In . SVG Version: 6.00 Build 0)  -->
<svg version="1.1" id="Calque_1" xmlns="http://www.w3.org/2000/svg" xmlns:xlink="http://www.w3.org/1999/xlink" x="0px" y="0px"
	 viewBox="0 0 130 130" style="enable-background:new 0 0 130 130;" xml:space="preserve">
<style type="text/css">
	.st0{filter:url(#Adobe_OpacityMaskFilter);}
	.st1{fill:url(#SVGID_2_);}
	.st2{mask:url(#SVGID_1_);}
</style>
<g id="logo_yuz">
	<g>
		<path d="M120.9,93.6V4.3c0-2.4-2-4.3-4.3-4.3H4.3C2,0,0,2,0,4.3v112.2c0,2.4,2,4.3,4.3,4.3h90.9c20.2,1,34.7,9.1,34.7,9.1
			C123.6,116.1,121.4,98.1,120.9,93.6z M101.7,49.1L85.2,67h16.5v7h-27v-7h0l16.5-17.8h-17c-0.1,4.5-0.3,11.9-0.3,13.2
			c-0.4,7-6.6,11.6-13.7,11.6c-6.7,0-12.8-4-13.7-10.4c-0.1-0.5-0.1-6.9,0-12.4l-7.3,23.3c-1.3,6.1-5.7,10-9.1,10
			c-0.3,0-10.4,0-10.4,0V77h7.6c1.1-0.2,2.1-1,2.2-2.1c0-0.2,0-0.4,0-0.7L19,42.1l7.9,0l6.6,23.1c0.2,0.6,1,0.6,1.2,0l6.6-23.1
			l11.7,0c0.5,0,0.9,0.4,0.9,0.9v12.2c0,0,0,2.8,0,4.6c0,3.5,2.9,6.3,6.5,6.3c3.6,0,6.5-2.8,6.5-6.3c0-1.8,0-14.1,0-14.1
			c0-1.9,1.6-3.5,3.5-3.5h0.4h30.9V49.1z"/>
		<defs>
			<filter id="Adobe_OpacityMaskFilter" filterUnits="userSpaceOnUse" x="93.9" y="67" width="7.8" height="7">
				
					<feColorMatrix  type="matrix" values="-1 0 0 0 1  0 -1 0 0 1  0 0 -1 0 1  0 0 0 1 0" color-interpolation-filters="sRGB" result="source"/>
			</filter>
		</defs>
		<mask maskUnits="userSpaceOnUse" x="93.9" y="67" width="7.8" height="7" id="SVGID_1_">
			<g class="st0">
				<linearGradient id="SVGID_2_" gradientUnits="userSpaceOnUse" x1="93.4783" y1="70.4348" x2="101.7391" y2="70.4348">
					<stop  offset="0.1443" style="stop-color:#FFFFFF"/>
					<stop  offset="1" style="stop-color:#2B2B2B"/>
				</linearGradient>
				<rect x="93.5" y="67" class="st1" width="8.3" height="7"/>
			</g>
		</mask>
		<rect x="93.9" y="67" class="st2" width="7.8" height="7"/>
	</g>
</g>
</svg>
