<?xml version="1.0" encoding="utf-8"?>
<!-- Generator: Adobe Illustrator 23.0.1, SVG Export Plug-In . SVG Version: 6.00 Build 0)  -->
<svg version="1.1" id="Calque_1" xmlns="http://www.w3.org/2000/svg" xmlns:xlink="http://www.w3.org/1999/xlink" x="0px" y="0px"
	 viewBox="0 0 26 25.4" style="enable-background:new 0 0 26 25.4;" xml:space="preserve">
<style type="text/css">
	.st0{fill:#FFFFFF;}
</style>
<path id="github" class="st0" d="M13.04,0C5.83,0,0,5.83,0,13.04c0,5.74,3.74,10.61,8.96,12.35c0.7,0.09,0.87-0.26,0.87-0.61
	s0-1.13,0-2.26c-3.65,0.78-4.43-1.74-4.43-1.74c-0.61-1.48-1.48-1.91-1.48-1.91C2.7,18.09,4,18.09,4,18.09c1.3,0.09,2,1.3,2,1.3
	c1.13,2,3.04,1.39,3.83,1.04c0.09-0.87,0.43-1.39,0.87-1.74c-2.87-0.35-5.91-1.48-5.91-6.43c0-1.39,0.52-2.61,1.3-3.48
	C5.91,8.43,5.48,7.13,6.17,5.3c0,0,1.13-0.35,3.57,1.3c1.04-0.26,2.17-0.43,3.3-0.43s2.26,0.17,3.3,0.43
	c2.52-1.65,3.57-1.3,3.57-1.3c0.7,1.83,0.26,3.13,0.09,3.48c0.87,0.87,1.3,2.09,1.3,3.48c0,5.04-3.04,6.09-5.91,6.43
	c0.43,0.43,0.87,1.22,0.87,2.43c0,1.74,0,3.13,0,3.57c0,0.35,0.26,0.78,0.87,0.61C22.35,23.56,26,18.7,26,12.96
	C26.09,5.83,20.26,0,13.04,0z"/>
</svg>
