<?xml version="1.0" encoding="utf-8"?>
<!-- Generator: Adobe Illustrator 22.0.1, SVG Export Plug-In . SVG Version: 6.00 Build 0)  -->
<svg version="1.1" id="Calque_1" xmlns="http://www.w3.org/2000/svg" xmlns:xlink="http://www.w3.org/1999/xlink" x="0px" y="0px"
	 viewBox="0 0 838 485" style="enable-background:new 0 0 838 485;" xml:space="preserve">
<style type="text/css">
	.st0{display:none;}
	.st1{display:inline;}
	.st2{fill:#DB234F;}
	.st3{fill:#FF6986;}
	.st4{fill:#EA324C;}
	.st5{fill:url(#SVGID_1_);}
	.st6{fill:url(#SVGID_2_);}
	.st7{fill:#E82D43;}
	.st8{fill:url(#SVGID_3_);}
	.st9{fill:#EF4D64;}
	.st10{fill:url(#SVGID_4_);}
	.st11{fill:#FF6683;}
	.st12{fill:url(#SVGID_5_);}
	.st13{fill:#FFFFFF;}
	.st14{font-family:'Yantramanav-Bold';}
	.st15{font-size:74px;}
	.st16{font-family:'Yantramanav-Light';}
	.st17{font-size:54px;}
	.st18{opacity:0.45;}
	.st19{fill:url(#SVGID_6_);}
	.st20{fill:url(#SVGID_7_);}
	.st21{fill:url(#SVGID_8_);}
	.st22{fill:url(#SVGID_9_);}
	.st23{fill:url(#SVGID_10_);}
	.st24{fill:url(#SVGID_11_);}
	.st25{fill:url(#SVGID_12_);}
	.st26{fill:url(#SVGID_13_);}
	.st27{fill:url(#SVGID_14_);}
	.st28{fill:url(#SVGID_15_);}
	.st29{opacity:0.6;}
	.st30{fill:url(#SVGID_16_);}
	.st31{fill:url(#SVGID_17_);}
	.st32{fill:url(#SVGID_18_);}
	.st33{fill:url(#SVGID_19_);}
	.st34{fill:url(#SVGID_20_);}
</style>
<image style="display:none;overflow:visible;enable-background:new    ;" width="3841" height="1081" xlink:href="2D6EB48C.jpg"  transform="matrix(0.9997 0 0 0.9997 127.9098 -315.0796)">
</image>
<g class="st0">
	<g class="st1">
		<polygon class="st2" points="266.6,110.3 586.6,7.3 378.6,368.3 		"/>
		<path class="st3" d="M586.6,7.3l-208,361l-112-258L586.6,7.3 M588.8,5.5l-2.5,0.8l-320,103l-1.1,0.3l0.4,1l112,258l0.8,1.8l1-1.7
			l208-361L588.8,5.5L588.8,5.5z"/>
	</g>
	<g class="st1">
		<polygon class="st4" points="552.6,406.3 388.6,175.3 494.6,76.3 		"/>
		<path class="st3" d="M494.6,76.3l58,330l-164-231L494.6,76.3 M495.3,74.3l-1.3,1.3l-106,99l-0.6,0.6l0.5,0.7l164,231l2.6,3.6
			l-0.8-4.4l-58-330L495.3,74.3L495.3,74.3z"/>
	</g>
	<g class="st1">
		
			<linearGradient id="SVGID_1_" gradientUnits="userSpaceOnUse" x1="500.4861" y1="26.4845" x2="688.4856" y2="352.1094" gradientTransform="matrix(1 0 0 -1 0 417.8068)">
			<stop  offset="0" style="stop-color:#E82D43"/>
			<stop  offset="1" style="stop-color:#FC436E"/>
		</linearGradient>
		<polygon class="st5" points="850.6,159.3 460.6,368.3 368.6,245.3 602.6,63.3 		"/>
		<path class="st3" d="M602.6,63.3l248,96l-390,209l-92-123L602.6,63.3 M602.5,62.1l-0.4,0.3l-234,182l-0.8,0.6l0.6,0.8l92,123
			l0.5,0.7l0.8-0.4l390-209l1.9-1l-2-0.8l-248-96L602.5,62.1L602.5,62.1z"/>
	</g>
	<g class="st1">
		
			<linearGradient id="SVGID_2_" gradientUnits="userSpaceOnUse" x1="552.6969" y1="17.9978" x2="709.0363" y2="288.7856" gradientTransform="matrix(1 0 0 -1 0 417.8068)">
			<stop  offset="0" style="stop-color:#B82D43"/>
			<stop  offset="1" style="stop-color:#F55F67"/>
		</linearGradient>
		<polygon class="st6" points="863.6,263.3 378.6,299.3 676.6,110.3 		"/>
		<path class="st3" d="M676.6,110.3l187,153l-485,36L676.6,110.3 M676.7,109l-0.6,0.4l-298,189l-3.4,2.1l4-0.3l485-36l2.5-0.2
			l-1.9-1.6l-187-153L676.7,109L676.7,109z"/>
	</g>
	<g class="st1">
		<polygon class="st7" points="765.6,76.3 586.6,244.3 634.6,483.3 		"/>
		<path class="st3" d="M765.6,76.3l-131,407l-48-239L765.6,76.3 M767.8,72.9l-2.8,2.6l-179,168l-0.4,0.4l0.1,0.5l48,239l0.8,3.8
			l1.2-3.7l131-407L767.8,72.9L767.8,72.9z"/>
	</g>
	<g class="st1">
		
			<linearGradient id="SVGID_3_" gradientUnits="userSpaceOnUse" x1="624.1537" y1="20.593" x2="723.1487" y2="192.0574" gradientTransform="matrix(1 0 0 -1 0 417.8068)">
			<stop  offset="0" style="stop-color:#D92D43"/>
			<stop  offset="0.7456" style="stop-color:#FC6371"/>
		</linearGradient>
		<polygon class="st8" points="578.6,142.3 524.7,339.8 811.6,406.3 		"/>
		<path class="st3" d="M578.6,142.3l233,264l-286.9-66.4L578.6,142.3 M578.2,140.2l-0.5,1.8l-53.9,197.6l-0.3,1l1,0.2l286.9,66.4
			l3,0.7l-2.1-2.3l-233-264L578.2,140.2L578.2,140.2z"/>
	</g>
	<g class="st1">
		<polygon class="st9" points="449.1,377.8 490.1,204.8 579.1,340.8 		"/>
		<path class="st3" d="M448.4,378.5l0.2-0.8l41.3-174.1l90,137.5l-0.7,0.2L448.4,378.5z M490.3,206l-40.5,171l128.5-36.6L490.3,206z
			"/>
	</g>
	<g class="st1">
		
			<linearGradient id="SVGID_4_" gradientUnits="userSpaceOnUse" x1="726.7645" y1="186.6098" x2="801.7917" y2="316.5608" gradientTransform="matrix(1 0 0 -1 0 417.8068)">
			<stop  offset="0" style="stop-color:#E82D43"/>
			<stop  offset="1" style="stop-color:#FC436E"/>
		</linearGradient>
		<polygon class="st10" points="768.1,81.8 707.1,162.8 771.1,256.8 779.1,123.8 		"/>
		<path class="st3" d="M771.5,258.2l-65-95.5l0.2-0.3l61.6-81.8l11.3,43.1v0.1L771.5,258.2z M707.7,162.8l63,92.5l7.9-131.5
			l-10.7-40.9L707.7,162.8z"/>
	</g>
	<g class="st1">
		<polygon class="st11" points="375.1,198.8 451.1,317.8 338.1,336.8 		"/>
		<path class="st3" d="M337.4,337.4l37.5-139.8l77,120.6L337.4,337.4z M375.3,200l-36.5,136.1l111.5-18.7L375.3,200z"/>
	</g>
	<g class="st1">
		
			<linearGradient id="SVGID_5_" gradientUnits="userSpaceOnUse" x1="663.3881" y1="-324.313" x2="756.0025" y2="-163.9001" gradientTransform="matrix(-0.7698 0.6383 0.6383 0.7698 1239.2864 38.7341)">
			<stop  offset="0" style="stop-color:#D92D43"/>
			<stop  offset="0.7456" style="stop-color:#FC6371"/>
		</linearGradient>
		<polygon class="st12" points="447.1,225.2 588.6,389 602.4,237 		"/>
		<path class="st3" d="M447.1,225.2L602.4,237l-13.8,152L447.1,225.2 M444.8,224l1.6,1.8l141.5,163.9l1.5,1.8l0.2-2.3l13.8-152
			l0.1-1l-1-0.1l-155.3-11.8L444.8,224L444.8,224z"/>
	</g>
</g>
<text transform="matrix(1 0 0 1 357.6434 185.9124)" class="st13 st14 st15">Développeur </text>
<text transform="matrix(1 0 0 1 357.6434 244.9124)" class="st13 st14 st15">front-end</text>
<text transform="matrix(1 0 0 1 357.6434 293.9124)" class="st13 st16 st17">(html, css, js)</text>
<g>
	<g>
		<g>
			<g class="st18">
				
					<image style="overflow:visible;enable-background:new    ;" width="254" height="282" xlink:href="2D6EB48C.png"  transform="matrix(1 0 0 1 393 73)">
				</image>
			</g>
			<g>
				<g>
					<polygon class="st2" points="407.5,158.3 627.7,87.5 484.5,335.9 					"/>
					<path class="st3" d="M627.7,87.5L484.5,335.9l-77.1-177.5L627.7,87.5 M629.1,86.3l-1.7,0.5l-220.2,70.9l-0.7,0.2l0.3,0.7
						l77.1,177.5l0.5,1.3l0.7-1.2L628.3,87.8L629.1,86.3L629.1,86.3z"/>
				</g>
			</g>
		</g>
		<g>
			<g class="st18">
				
					<image style="overflow:visible;enable-background:new    ;" width="146" height="262" xlink:href="2D6EB48B.png"  transform="matrix(1 0 0 1 477.0001 120)">
				</image>
			</g>
			<g>
				<g>
					<polygon class="st4" points="604.3,362 491.4,203.1 564.4,134.9 					"/>
					<path class="st3" d="M564.4,134.9L604.3,362L491.5,203L564.4,134.9 M564.8,133.6l-0.9,0.9L491,202.6l-0.4,0.4l0.3,0.5
						l112.8,159l1.8,2.5l-0.5-3l-39.9-227.1L564.8,133.6L564.8,133.6z"/>
				</g>
			</g>
		</g>
		<g>
			<g class="st18">
				
					<image style="overflow:visible;enable-background:new    ;" width="365" height="242" xlink:href="2D6EB494.png"  transform="matrix(1 0 0 1 463.0001 112)">
				</image>
			</g>
			<g>
				<g>
					
						<linearGradient id="SVGID_6_" gradientUnits="userSpaceOnUse" x1="568.3978" y1="66.0946" x2="697.7832" y2="290.1969" gradientTransform="matrix(1 0 0 -1 0 417.8068)">
						<stop  offset="0" style="stop-color:#E82D43"/>
						<stop  offset="1" style="stop-color:#FC436E"/>
					</linearGradient>
					<polygon class="st19" points="809.3,192 541,335.9 477.7,251.2 638.7,126 					"/>
					<path class="st3" d="M638.7,126l170.7,66.1L541,335.9l-63.3-84.6L638.7,126 M638.6,125.2l-0.3,0.2l-161,125.2l-0.5,0.4l0.4,0.5
						l63.3,84.6l0.4,0.5l0.5-0.3l268.4-143.8l1.3-0.7l-1.4-0.5L639,125.2L638.6,125.2L638.6,125.2z"/>
				</g>
			</g>
		</g>
		<g>
			<g class="st18">
				
					<image style="overflow:visible;enable-background:new    ;" width="370" height="163" xlink:href="2D6EB497.png"  transform="matrix(1 0 0 1 468.0001 144)">
				</image>
			</g>
			<g>
				<g>
					
						<linearGradient id="SVGID_7_" gradientUnits="userSpaceOnUse" x1="604.3218" y1="60.2336" x2="711.9317" y2="246.6195" gradientTransform="matrix(1 0 0 -1 0 417.8068)">
						<stop  offset="0" style="stop-color:#B82D43"/>
						<stop  offset="1" style="stop-color:#F55F67"/>
					</linearGradient>
					<polygon class="st20" points="818.3,263.6 484.5,288.4 689.6,158.3 					"/>
					<path class="st3" d="M689.6,158.3l128.7,105.3l-333.7,24.8L689.6,158.3 M689.6,157.5l-0.4,0.3l-205,130l-2.3,1.5l2.7-0.2
						l333.7-24.8l1.7-0.1l-1.3-1.1L690,157.8L689.6,157.5L689.6,157.5z"/>
				</g>
			</g>
		</g>
		<g>
			<g class="st18">
				
					<image style="overflow:visible;enable-background:new    ;" width="157" height="316" xlink:href="2D6EB495.png"  transform="matrix(1 0 0 1 613.0001 119)">
				</image>
			</g>
			<g>
				<g>
					<polygon class="st7" points="750.8,134.9 627.7,250.5 660.7,415 					"/>
					<path class="st3" d="M750.8,134.9L660.7,415l-33-164.5L750.8,134.9 M752.3,132.6l-1.9,1.8L627.2,250l-0.3,0.3l0.1,0.4l33,164.5
						l0.5,2.6l0.8-2.5l90.1-280.1L752.3,132.6L752.3,132.6z"/>
				</g>
			</g>
		</g>
		<g>
			<g class="st18">
				
					<image style="overflow:visible;enable-background:new    ;" width="231" height="216" xlink:href="2D6EB49B.png"  transform="matrix(1 0 0 1 571.0001 165)">
				</image>
			</g>
			<g>
				<g>
					
						<linearGradient id="SVGID_8_" gradientUnits="userSpaceOnUse" x1="653.5031" y1="62.0202" x2="721.6678" y2="180.0849" gradientTransform="matrix(1 0 0 -1 0 417.8068)">
						<stop  offset="0" style="stop-color:#D92D43"/>
						<stop  offset="0.7456" style="stop-color:#FC6371"/>
					</linearGradient>
					<polygon class="st21" points="622.2,180.3 585.1,316.3 782.5,362 					"/>
					<path class="st3" d="M622.2,180.3L782.5,362l-197.4-45.7L622.2,180.3 M621.8,178.9l-0.3,1.2l-37.1,136l-0.2,0.7l0.7,0.2
						l197.4,45.7l2.1,0.5l-1.4-1.6L622.7,179.9L621.8,178.9L621.8,178.9z"/>
				</g>
			</g>
		</g>
		<g>
			<g class="st18">
				
					<image style="overflow:visible;enable-background:new    ;" width="122" height="151" xlink:href="2D6EB49C.png"  transform="matrix(1 0 0 1 519.0001 209)">
				</image>
			</g>
			<g>
				<g>
					<polygon class="st9" points="533,342.4 561.3,223.4 622.5,316.9 					"/>
					<path class="st3" d="M532.6,342.9l0.1-0.6l28.4-119.8l61.9,94.6l-0.4,0.1L532.6,342.9z M561.4,224.2l-27.9,117.7l88.4-25.2
						L561.4,224.2z"/>
				</g>
			</g>
		</g>
		<g>
			<g class="st18">
				
					<image style="overflow:visible;enable-background:new    ;" width="81" height="154" xlink:href="2D6EB49F.png"  transform="matrix(1 0 0 1 697.0001 124)">
				</image>
			</g>
			<g>
				<g>
					
						<linearGradient id="SVGID_9_" gradientUnits="userSpaceOnUse" x1="724.1298" y1="176.3047" x2="775.7645" y2="265.7386" gradientTransform="matrix(1 0 0 -1 0 417.8068)">
						<stop  offset="0" style="stop-color:#E82D43"/>
						<stop  offset="1" style="stop-color:#FC436E"/>
					</linearGradient>
					<polygon class="st22" points="752.6,138.7 710.6,194.5 754.6,259.1 760.1,167.6 					"/>
					<path class="st3" d="M754.9,260.2l-44.7-65.7l0.1-0.2l42.4-56.3l7.8,29.6v0.1L754.9,260.2z M711,194.5l43.3,63.6l5.4-90.5
						l-7.4-28.2L711,194.5z"/>
				</g>
			</g>
		</g>
		<g>
			<g class="st18">
				
					<image style="overflow:visible;enable-background:new    ;" width="110" height="127" xlink:href="9100189B.png"  transform="matrix(1 0 0 1 443.0001 205)">
				</image>
			</g>
			<g>
				<g>
					<polygon class="st11" points="482.1,219.2 534.4,301.1 456.7,314.2 					"/>
					<path class="st3" d="M456.2,314.6l25.8-96.2l53,83L456.2,314.6z M482.3,220.1l-25.1,93.7l76.7-12.9L482.3,220.1z"/>
				</g>
			</g>
		</g>
		<g>
			<g class="st18">
				
					<image style="overflow:visible;enable-background:new    ;" width="140" height="146" xlink:href="91001899.png"  transform="matrix(1 0 0 1 517.0001 223)">
				</image>
			</g>
			<g>
				<g>
					
						<linearGradient id="SVGID_10_" gradientUnits="userSpaceOnUse" x1="626.5269" y1="-272.7633" x2="690.3017" y2="-162.3022" gradientTransform="matrix(-0.7698 0.6383 0.6383 0.7698 1239.2864 38.7341)">
						<stop  offset="0" style="stop-color:#D92D43"/>
						<stop  offset="0.7456" style="stop-color:#FC6371"/>
					</linearGradient>
					<polygon class="st23" points="531.6,237.4 629,350.2 638.5,245.6 					"/>
					<path class="st3" d="M531.6,237.4l106.9,8.1L629,350.1L531.6,237.4 M530,236.6l1.1,1.3l97.4,112.8l1.1,1.2l0.1-1.6l9.5-104.6
						l0.1-0.7l-0.7-0.1l-106.9-8.1L530,236.6L530,236.6z"/>
				</g>
			</g>
		</g>
	</g>
	<g>
		<g>
			<g class="st18">
				
					<image style="overflow:visible;enable-background:new    ;" width="275" height="306" xlink:href="9100189F.png"  transform="matrix(1 0 0 1 210 89)">
				</image>
			</g>
			<g>
				<g>
					<polygon class="st2" points="466.6,298.6 224.9,376.4 382,103.7 					"/>
					<path class="st3" d="M224.9,376.4L382,103.8l84.6,194.9L224.9,376.4 M223.3,377.7l1.9-0.6l241.7-77.8l0.8-0.3l-0.3-0.8
						l-84.6-194.9l-0.6-1.4l-0.7,1.3L224.3,376L223.3,377.7L223.3,377.7z"/>
				</g>
			</g>
		</g>
		<g>
			<g class="st18">
				
					<image style="overflow:visible;enable-background:new    ;" width="157" height="285" xlink:href="9100189A.png"  transform="matrix(1 0 0 1 236.0001 58)">
				</image>
			</g>
			<g>
				<g>
					<polygon class="st4" points="250.6,75 374.5,249.5 294.4,324.3 					"/>
					<path class="st3" d="M294.4,324.3L250.6,75l123.9,174.5L294.4,324.3 M293.9,325.8l1-1L375,250l0.5-0.5l-0.4-0.5L251.2,74.6
						l-1.9-2.7l0.6,3.3l43.8,249.2L293.9,325.8L293.9,325.8z"/>
				</g>
			</g>
		</g>
		<g>
			<g class="st18">
				
					<image style="overflow:visible;enable-background:new    ;" width="398" height="263" xlink:href="91001885.png"  transform="matrix(1 0 0 1 10 89)">
				</image>
			</g>
			<g>
				<g>
					
						<linearGradient id="SVGID_11_" gradientUnits="userSpaceOnUse" x1="907.4606" y1="-268.5776" x2="1049.4584" y2="-22.6304" gradientTransform="matrix(-1 0 0 1 1197.5015 354.9171)">
						<stop  offset="0" style="stop-color:#E82D43"/>
						<stop  offset="1" style="stop-color:#FC436E"/>
					</linearGradient>
					<polygon class="st24" points="25.6,261.6 320.1,103.7 389.6,196.6 212.9,334.1 					"/>
					<path class="st3" d="M212.9,334.1L25.6,261.6l294.5-157.8l69.5,92.9L212.9,334.1 M213,335l0.3-0.3L390,197.2l0.6-0.5l-0.4-0.6
						l-69.5-92.9l-0.4-0.5l-0.6,0.3L25.2,260.9l-1.4,0.8l1.5,0.6l187.3,72.5L213,335L213,335z"/>
				</g>
			</g>
		</g>
		<g>
			<g class="st18">
				
					<image style="overflow:visible;enable-background:new    ;" width="402" height="176" xlink:href="91001886.png"  transform="matrix(1 0 0 1 0 141)">
				</image>
			</g>
			<g>
				<g>
					
						<linearGradient id="SVGID_12_" gradientUnits="userSpaceOnUse" x1="946.9806" y1="-274.9325" x2="1065.0215" y2="-70.4796" gradientTransform="matrix(-1 0 0 1 1197.5015 354.9171)">
						<stop  offset="0" style="stop-color:#B82D43"/>
						<stop  offset="1" style="stop-color:#F55F67"/>
					</linearGradient>
					<polygon class="st25" points="15.7,183 382,155.9 157,298.6 					"/>
					<path class="st3" d="M157,298.6L15.8,183L382,155.9L157,298.6 M156.9,299.5l0.5-0.3l225.1-142.7l2.5-1.6l-3,0.2L15.7,182.3
						l-1.9,0.1l1.5,1.2l141.2,115.6L156.9,299.5L156.9,299.5z"/>
				</g>
			</g>
		</g>
		<g>
			<g class="st18">
				
					<image style="overflow:visible;enable-background:new    ;" width="168" height="344" xlink:href="91001887.png"  transform="matrix(1 0 0 1 75.0001 0)">
				</image>
			</g>
			<g>
				<g>
					<polygon class="st7" points="89.8,324.3 224.9,197.4 188.7,16.9 					"/>
					<path class="st3" d="M89.8,324.3l98.9-307.4L225,197.4L89.8,324.3 M88.1,326.8l2.1-2l135.3-126.9l0.3-0.3l-0.1-0.4L189.4,16.7
						l-0.5-2.8l-0.9,2.8L89.1,324.1L88.1,326.8L88.1,326.8z"/>
				</g>
			</g>
		</g>
		<g>
			<g class="st18">
				
					<image style="overflow:visible;enable-background:new    ;" width="251" height="233" xlink:href="91001889.png"  transform="matrix(1 0 0 1 39 60)">
				</image>
			</g>
			<g>
				<g>
					
						<linearGradient id="SVGID_13_" gradientUnits="userSpaceOnUse" x1="1000.8763" y1="-273.0674" x2="1075.6567" y2="-143.5438" gradientTransform="matrix(-1 0 0 1 1197.5015 354.9171)">
						<stop  offset="0" style="stop-color:#D92D43"/>
						<stop  offset="0.7456" style="stop-color:#FC6371"/>
					</linearGradient>
					<polygon class="st26" points="231,274.4 271.7,125.2 55,75 					"/>
					<path class="st3" d="M231,274.4L55,75l216.7,50.2L231,274.4 M231.3,276l0.4-1.4l40.7-149.2l0.2-0.8l-0.8-0.2L55.1,74.2
						l-2.3-0.5l1.6,1.8l176,199.4L231.3,276L231.3,276z"/>
				</g>
			</g>
		</g>
		<g>
			<g class="st18">
				
					<image style="overflow:visible;enable-background:new    ;" width="130" height="163" xlink:href="9100188B.png"  transform="matrix(1 0 0 1 217 83)">
				</image>
			</g>
			<g>
				<g>
					<polygon class="st9" points="328.8,96.6 297.8,227.2 230.6,124.5 					"/>
					<path class="st3" d="M329.3,96l-0.1,0.6L298,228.1l-68-103.9l0.5-0.1L329.3,96z M297.7,226.3l30.6-129.2l-97.1,27.6
						L297.7,226.3z"/>
				</g>
			</g>
		</g>
		<g>
			<g class="st18">
				
					<image style="overflow:visible;enable-background:new    ;" width="86" height="165" xlink:href="9100188E.png"  transform="matrix(1 0 0 1 66.0001 173)">
				</image>
			</g>
			<g>
				<g>
					
						<linearGradient id="SVGID_14_" gradientUnits="userSpaceOnUse" x1="1078.4226" y1="-147.5939" x2="1135.0486" y2="-49.5149" gradientTransform="matrix(-1 0 0 1 1197.5015 354.9171)">
						<stop  offset="0" style="stop-color:#E82D43"/>
						<stop  offset="1" style="stop-color:#FC436E"/>
					</linearGradient>
					<polygon class="st27" points="87.9,320.1 133.9,258.9 85.6,188 79.6,288.4 					"/>
					<path class="st3" d="M85.3,186.8l49.1,72.1l-0.2,0.2l-46.5,61.8l-8.5-32.5v-0.1L85.3,186.8z M133.5,258.9L85.9,189l-6,99.3
						l8.1,30.9L133.5,258.9z"/>
				</g>
			</g>
		</g>
		<g>
			<g class="st18">
				
					<image style="overflow:visible;enable-background:new    ;" width="118" height="136" xlink:href="910018A2.png"  transform="matrix(1 0 0 1 313 114)">
				</image>
			</g>
			<g>
				<g>
					<polygon class="st11" points="384.7,231.8 327.3,141.9 412.6,127.5 					"/>
					<path class="st3" d="M413.1,127.1l-28.3,105.6l-58.2-91.1L413.1,127.1z M384.5,230.8L412.1,128l-84.2,14.2L384.5,230.8z"/>
				</g>
			</g>
		</g>
		<g>
			<g class="st18">
				
					<image style="overflow:visible;enable-background:new    ;" width="151" height="157" xlink:href="910018A1.png"  transform="matrix(1 0 0 1 199 73)">
				</image>
			</g>
			<g>
				<g>
					
						<linearGradient id="SVGID_15_" gradientUnits="userSpaceOnUse" x1="570.3192" y1="192.9989" x2="640.3132" y2="314.2322" gradientTransform="matrix(0.7698 -0.6383 -0.6383 -0.7698 -41.7849 733.9897)">
						<stop  offset="0" style="stop-color:#D92D43"/>
						<stop  offset="0.7456" style="stop-color:#FC6371"/>
					</linearGradient>
					<polygon class="st28" points="330.3,211.8 223.4,88 213,202.9 					"/>
					<path class="st3" d="M330.3,211.8L213,202.9L223.4,88L330.3,211.8 M332.1,212.7l-1.2-1.4L224,87.5l-1.2-1.3l-0.2,1.8
						l-10.3,114.8l-0.1,0.8l0.8,0.1l117.3,8.9L332.1,212.7L332.1,212.7z"/>
				</g>
			</g>
		</g>
	</g>
	<g>
		<g>
			<g>
				<g class="st29">
					
						<image style="overflow:visible;enable-background:new    ;" width="234" height="355" xlink:href="910018AE.png"  transform="matrix(1 0 0 1 402 121)">
					</image>
				</g>
				<g>
					<polygon class="st2" points="610.3,283.1 419.6,450.7 455.1,138.1 					"/>
				</g>
			</g>
			<path class="st3" d="M419.6,450.7L455.1,138l155.2,145L419.6,450.7 M418.6,452.6l1.5-1.3l190.7-167.6l0.6-0.6l-0.6-0.6
				l-155.2-145l-1.1-1l-0.2,1.5l-35.5,312.7L418.6,452.6L418.6,452.6z"/>
		</g>
		<g>
			<g class="st29">
				
					<image style="overflow:visible;enable-background:new    ;" width="230" height="258" xlink:href="910018A0.png"  transform="matrix(1 0 0 1 303 144)">
				</image>
			</g>
			<g>
				<g>
					<polygon class="st4" points="323.1,164.1 506.2,274.8 462.6,375.3 					"/>
					<path class="st3" d="M462.6,375.3L323.1,164.1l183.1,110.7L462.6,375.3 M462.7,376.8l0.6-1.3L506.9,275l0.3-0.6l-0.6-0.3
						L323.5,163.5l-2.9-1.7l1.8,2.8l139.5,211.1L462.7,376.8L462.7,376.8z"/>
				</g>
			</g>
		</g>
		<g>
			<g class="st29">
				
					<image style="overflow:visible;enable-background:new    ;" width="354" height="307" xlink:href="910018A3.png"  transform="matrix(1 0 0 1 172 144)">
				</image>
			</g>
			<g>
				<g>
					
						<linearGradient id="SVGID_16_" gradientUnits="userSpaceOnUse" x1="728.2224" y1="-283.8675" x2="870.1981" y2="-37.9582" gradientTransform="matrix(-0.9172 0.3984 0.3984 0.9172 1144.7542 129.0898)">
						<stop  offset="0" style="stop-color:#E82D43"/>
						<stop  offset="1" style="stop-color:#FC436E"/>
					</linearGradient>
					<polygon class="st30" points="191,424.9 398.3,162.8 499,220.3 391.7,416.8 					"/>
					<path class="st3" d="M391.7,416.8L191,424.9l207.3-262.1L499,220.3L391.7,416.8 M392.1,417.5l0.2-0.4l107.3-196.5l0.4-0.7
						l-0.6-0.4L398.7,162l-0.6-0.3l-0.4,0.5L190.4,424.4l-1,1.3l1.6-0.1l200.7-8.1L392.1,417.5L392.1,417.5z"/>
				</g>
			</g>
		</g>
		<g>
			<g class="st29">
				
					<image style="overflow:visible;enable-background:new    ;" width="373" height="267" xlink:href="910018A7.png"  transform="matrix(1 0 0 1 131 166)">
				</image>
			</g>
			<g>
				<g>
					
						<linearGradient id="SVGID_17_" gradientUnits="userSpaceOnUse" x1="767.6563" y1="-290.2974" x2="885.7337" y2="-85.7813" gradientTransform="matrix(-0.9172 0.3984 0.3984 0.9172 1144.7542 129.0898)">
						<stop  offset="0" style="stop-color:#B82D43"/>
						<stop  offset="1" style="stop-color:#F55F67"/>
					</linearGradient>
					<polygon class="st31" points="150.7,356.8 475.8,185.9 326.3,406.5 					"/>
					<path class="st3" d="M326.3,406.5l-175.6-49.7l325.1-170.9L326.3,406.5 M326.6,407.4l0.3-0.5l149.6-220.6l1.7-2.5l-2.7,1.4
						L150.3,356.1l-1.7,0.9l1.8,0.5L326,407.2L326.6,407.4L326.6,407.4z"/>
				</g>
			</g>
		</g>
		<g>
			<g class="st29">
				
					<image style="overflow:visible;enable-background:new    ;" width="150" height="370" xlink:href="910018A6.png"  transform="matrix(1 0 0 1 225 115)">
				</image>
			</g>
			<g>
				<g>
					<polygon class="st7" points="274.8,456.8 348.3,286.6 243.1,135.5 					"/>
					<path class="st3" d="M274.8,456.8l-31.7-321.3l105.2,151.1L274.8,456.8 M274.4,459.8l1.2-2.7L349,286.9l0.2-0.4l-0.2-0.3
						L243.7,135l-1.7-2.4l0.3,2.9l31.8,321.4L274.4,459.8L274.4,459.8z"/>
				</g>
			</g>
		</g>
		<g>
			<g class="st29">
				
					<image style="overflow:visible;enable-background:new    ;" width="287" height="199" xlink:href="9100189D.png"  transform="matrix(1 0 0 1 124 183)">
				</image>
			</g>
			<g>
				<g>
					
						<linearGradient id="SVGID_18_" gradientUnits="userSpaceOnUse" x1="821.5698" y1="-288.4257" x2="896.3702" y2="-158.8674" gradientTransform="matrix(-0.9172 0.3984 0.3984 0.9172 1144.7542 129.0898)">
						<stop  offset="0" style="stop-color:#D92D43"/>
						<stop  offset="0.7456" style="stop-color:#FC6371"/>
					</linearGradient>
					<polygon class="st32" points="384.5,354.8 362.4,201.7 143.7,242.1 					"/>
					<path class="st3" d="M384.5,354.8L143.7,242.1l218.7-40.3L384.5,354.8 M385.5,356.1l-0.2-1.4l-22.1-153.1l-0.1-0.8l-0.8,0.1
						l-218.7,40.3l-2.3,0.4l2.1,1l240.8,112.8L385.5,356.1L385.5,356.1z"/>
				</g>
			</g>
		</g>
		<g>
			<g class="st29">
				
					<image style="overflow:visible;enable-background:new    ;" width="147" height="176" xlink:href="9100189E.png"  transform="matrix(1 0 0 1 306 135)">
				</image>
			</g>
			<g>
				<g>
					<polygon class="st9" points="403.4,152.7 427,284.9 324.4,217.5 					"/>
					<path class="st3" d="M403.6,152l0.1,0.6l23.8,133l-103.7-68.1l0.4-0.3L403.6,152z M426.5,284.1l-23.4-130.7l-78,64L426.5,284.1
						z"/>
				</g>
			</g>
		</g>
		<g>
			<g class="st29">
				
					<image style="overflow:visible;enable-background:new    ;" width="116" height="165" xlink:href="9100189C.png"  transform="matrix(1 0 0 1 199 315)">
				</image>
			</g>
			<g>
				<g>
					
						<linearGradient id="SVGID_19_" gradientUnits="userSpaceOnUse" x1="899.1241" y1="-163.0017" x2="955.8232" y2="-64.7961" gradientTransform="matrix(-0.9172 0.3984 0.3984 0.9172 1144.7542 129.0898)">
						<stop  offset="0" style="stop-color:#E82D43"/>
						<stop  offset="1" style="stop-color:#FC436E"/>
					</linearGradient>
					<polygon class="st33" points="271.5,453.8 289.3,379.3 216.7,333.4 251.2,428 					"/>
					<path class="st3" d="M216,332.5l73.8,46.6l-0.1,0.3l-18.1,75.2l-20.8-26.4v-0.1L216,332.5z M288.9,379.5l-71.5-45.1l34.1,93.4
						l19.7,25.1L288.9,379.5z"/>
				</g>
			</g>
		</g>
		<g>
			<g class="st29">
				
					<image style="overflow:visible;enable-background:new    ;" width="133" height="151" xlink:href="910018C5.png"  transform="matrix(1 0 0 1 402 130)">
				</image>
			</g>
			<g>
				<g>
					<polygon class="st11" points="508.5,254.5 420,194.9 492.6,147.7 					"/>
					<path class="st3" d="M492.9,147.1L509,255.3l-89.6-60.4L492.9,147.1z M508,253.7l-15.7-105.3l-71.6,46.5L508,253.7z"/>
				</g>
			</g>
		</g>
		<g>
			<g class="st29">
				
					<image style="overflow:visible;enable-background:new    ;" width="193" height="155" xlink:href="910018C3.png"  transform="matrix(1 0 0 1 285.0001 168)">
				</image>
			</g>
			<g>
				<g>
					
						<linearGradient id="SVGID_20_" gradientUnits="userSpaceOnUse" x1="718.1454" y1="90.3559" x2="788.1213" y2="211.5575" gradientTransform="matrix(0.4518 -0.8921 -0.8921 -0.4518 159.0697 970.4886)">
						<stop  offset="0" style="stop-color:#D92D43"/>
						<stop  offset="0.7456" style="stop-color:#FC6371"/>
					</linearGradient>
					<polygon class="st34" points="450.7,257.8 303.3,186.9 339.5,296.3 					"/>
					<path class="st3" d="M450.7,257.8l-111.1,38.5l-36.3-109.4L450.7,257.8 M452.7,257.9l-1.7-0.8l-147.4-70.9l-1.6-0.8l0.6,1.7
						l36.2,109.5l0.2,0.7l0.7-0.3l111.1-38.5L452.7,257.9L452.7,257.9z"/>
				</g>
			</g>
		</g>
	</g>
</g>
</svg>
